WaldbaFantuwua-Regular.ufo
<glyph name="uni0022" format="2">
  <advance width="1381"/>
  <unicode hex="0022"/>
  <outline>
    <contour>
      <point x="1019.76" y="1296" type="line"/>
      <point x="801.079" y="1296" type="line"/>
      <point x="824.099" y="649.15" type="line"/>
      <point x="994.443" y="649.15" type="line"/>
    </contour>
    <contour>
      <point x="580.092" y="1296" type="line"/>
      <point x="361.406" y="1296" type="line"/>
      <point x="386.728" y="649.15" type="line"/>
      <point x="557.072" y="649.15" type="line"/>
    </contour>
  </outline>
</glyph>
<glyph name="uni0023" format="2">
  <advance width="600"/>
  <unicode hex="0023"/>
  <outline>
    <contour>
      <point x="233" y="389" type="line"/>
      <point x="378" y="389" type="line"/>
      <point x="368" y="222" type="line"/>
      <point x="223" y="222" type="line"/>
    </contour>
    <contour>
      <point x="248" y="659" type="line"/>
      <point x="201" y="659" type="line"/>
      <point x="189" y="454" type="line"/>
      <point x="78" y="454" type="line"/>
      <point x="78" y="389" type="line"/>
      <point x="186" y="389" type="line"/>
      <point x="176" y="222" type="line"/>
      <point x="78" y="222" type="line"/>
      <point x="78" y="157" type="line"/>
      <point x="172" y="157" type="line"/>
      <point x="161" y="-57" type="line"/>
      <point x="208" y="-57" type="line"/>
      <point x="219" y="157" type="line"/>
      <point x="365" y="157" type="line"/>
      <point x="353" y="-57" type="line"/>
      <point x="400" y="-57" type="line"/>
      <point x="412" y="157" type="line"/>
      <point x="522" y="157" type="line"/>
      <point x="522" y="222" type="line"/>
      <point x="415" y="222" type="line"/>
      <point x="425" y="389" type="line"/>
      <point x="522" y="389" type="line"/>
      <point x="522" y="454" type="line"/>
      <point x="428" y="454" type="line"/>
      <point x="440" y="659" type="line"/>
      <point x="393" y="659" type="line"/>
      <point x="381" y="454" type="line"/>
      <point x="236" y="454" type="line"/>
    </contour>
  </outline>
</glyph>
<glyph name="uni0026" format="2">
  <advance width="600"/>
  <unicode hex="0026"/>
  <outline>
    <contour>
      <point x="244" y="264" type="qcurve"/>
      <point x="354" y="100" type="line"/>
      <point x="348" y="93"/>
      <point x="330" y="74"/>
      <point x="306" y="56"/>
      <point x="274" y="44"/>
      <point x="255" y="44" type="qcurve" smooth="yes"/>
      <point x="231" y="44"/>
      <point x="197" y="63"/>
      <point x="174" y="94"/>
      <point x="164" y="132"/>
      <point x="164" y="150" type="qcurve" smooth="yes"/>
      <point x="164" y="173"/>
      <point x="179" y="210"/>
      <point x="202" y="238"/>
      <point x="230" y="258"/>
    </contour>
    <contour>
      <point x="529" y="280" type="line"/>
      <point x="434" y="280" type="line"/>
      <point x="426" y="254"/>
      <point x="416" y="223"/>
      <point x="407" y="199"/>
      <point x="396" y="175"/>
      <point x="387" y="156" type="qcurve"/>
      <point x="257" y="349" type="line" smooth="yes"/>
      <point x="238" y="377"/>
      <point x="218" y="412"/>
      <point x="218" y="430" type="qcurve" smooth="yes"/>
      <point x="218" y="439"/>
      <point x="224" y="461"/>
      <point x="240" y="480"/>
      <point x="267" y="492"/>
      <point x="288" y="492" type="qcurve" smooth="yes"/>
      <point x="326" y="492"/>
      <point x="380" y="462"/>
      <point x="399" y="448" type="qcurve"/>
      <point x="445" y="520" type="line"/>
      <point x="439" y="518"/>
      <point x="420" y="512"/>
      <point x="408" y="512" type="qcurve" smooth="yes"/>
      <point x="402" y="512"/>
      <point x="388" y="515"/>
      <point x="367" y="523" type="qcurve"/>
      <point x="348" y="531"/>
      <point x="310" y="540"/>
      <point x="288" y="540" type="qcurve" smooth="yes"/>
      <point x="228" y="540"/>
      <point x="159" y="475"/>
      <point x="159" y="426" type="qcurve" smooth="yes"/>
      <point x="159" y="412"/>
      <point x="163" y="390"/>
      <point x="175" y="364"/>
      <point x="196" y="332"/>
      <point x="213" y="307" type="qcurve"/>
      <point x="217" y="303"/>
      <point x="217" y="300" type="qcurve"/>
      <point x="160" y="279"/>
      <point x="98" y="189"/>
      <point x="98" y="138" type="qcurve" smooth="yes"/>
      <point x="98" y="111"/>
      <point x="117" y="59"/>
      <point x="154" y="17"/>
      <point x="208" y="-8"/>
      <point x="243" y="-8" type="qcurve" smooth="yes"/>
      <point x="270" y="-8"/>
      <point x="314" y="6"/>
      <point x="348" y="27"/>
      <point x="372" y="50"/>
      <point x="381" y="60" type="qcurve"/>
      <point x="422" y="0" type="line"/>
      <point x="536" y="0" type="line"/>
      <point x="536" y="47" type="line"/>
      <point x="461" y="47" type="line"/>
      <point x="417" y="111" type="line"/>
      <point x="425" y="125"/>
      <point x="451" y="180"/>
      <point x="469" y="233" type="qcurve"/>
      <point x="529" y="233" type="line"/>
    </contour>
  </outline>
</glyph>
<glyph name="uni0027" format="2">
  <advance width="600"/>
  <unicode hex="0027"/>
  <outline>
    <contour>
      <point x="357" y="563" type="line"/>
      <point x="243" y="563" type="line"/>
      <point x="262" y="281" type="line"/>
      <point x="337" y="281" type="line"/>
    </contour>
  </outline>
</glyph>
<glyph name="uni0028" format="2">
  <advance width="1381"/>
  <unicode hex="0028"/>
  <outline>
    <contour>
      <point x="1065.8" y="1493.97" type="qcurve"/>
      <point x="948.404" y="1493.97" type="line"/>
      <point x="881.648" y="1394.98"/>
      <point x="775.758" y="1171.69"/>
      <point x="699.793" y="946.102"/>
      <point x="660.66" y="727.417"/>
      <point x="660.66" y="635.339" type="qcurve" smooth="yes"/>
      <point x="660.66" y="540.959"/>
      <point x="702.095" y="322.273"/>
      <point x="778.06" y="96.682"/>
      <point x="883.95" y="-124.305"/>
      <point x="948.404" y="-220.987" type="qcurve"/>
      <point x="1065.8" y="-220.987" type="line"/>
      <point x="1028.97" y="-151.929"/>
      <point x="936.894" y="34.5293"/>
      <point x="854.024" y="255.517"/>
      <point x="798.777" y="504.127"/>
      <point x="798.777" y="635.339" type="qcurve" smooth="yes"/>
      <point x="798.777" y="766.55"/>
      <point x="854.024" y="1015.16"/>
      <point x="936.894" y="1236.15"/>
      <point x="1028.97" y="1422.61"/>
    </contour>
  </outline>
</glyph>
<glyph name="uni0029" format="2">
  <advance width="600"/>
  <unicode hex="0029"/>
  <outline>
    <contour>
      <point x="137" y="-96" type="qcurve"/>
      <point x="189" y="-96" type="line"/>
      <point x="218" y="-52"/>
      <point x="265" y="45"/>
      <point x="297" y="142"/>
      <point x="314" y="235"/>
      <point x="314" y="276" type="qcurve" smooth="yes"/>
      <point x="314" y="354"/>
      <point x="251" y="553"/>
      <point x="189" y="649" type="qcurve"/>
      <point x="137" y="649" type="line"/>
      <point x="152" y="620"/>
      <point x="192" y="539"/>
      <point x="229" y="443"/>
      <point x="254" y="334"/>
      <point x="254" y="276" type="qcurve" smooth="yes"/>
      <point x="254" y="218"/>
      <point x="229" y="108"/>
      <point x="192" y="11"/>
      <point x="152" y="-69"/>
    </contour>
  </outline>
</glyph>
<glyph name="uni002A" format="2">
  <advance width="1381"/>
  <unicode hex="002A"/>
  <outline>
    <contour>
      <point x="768.852" y="1296" type="line"/>
      <point x="612.319" y="1296" type="line"/>
      <point x="626.131" y="957.612" type="line"/>
      <point x="303.858" y="1075.01" type="line"/>
      <point x="255.517" y="927.687" type="line"/>
      <point x="586.998" y="835.609" type="line"/>
      <point x="372.916" y="568.582" type="line"/>
      <point x="499.524" y="474.202" type="line"/>
      <point x="690.586" y="761.946" type="line"/>
      <point x="881.648" y="474.202" type="line"/>
      <point x="1008.25" y="568.582" type="line"/>
      <point x="794.173" y="835.609" type="line"/>
      <point x="1125.65" y="927.687" type="line"/>
      <point x="1077.31" y="1075.01" type="line"/>
      <point x="755.04" y="957.612" type="line"/>
    </contour>
  </outline>
</glyph>
<glyph name="uni002B" format="2">
  <advance width="600"/>
  <unicode hex="002B"/>
  <outline>
    <contour>
      <point x="325" y="533" type="line"/>
      <point x="275" y="533" type="line"/>
      <point x="275" y="328" type="line"/>
      <point x="66" y="328" type="line"/>
      <point x="66" y="278" type="line"/>
      <point x="275" y="278" type="line"/>
      <point x="275" y="73" type="line"/>
      <point x="325" y="73" type="line"/>
      <point x="325" y="278" type="line"/>
      <point x="534" y="278" type="line"/>
      <point x="534" y="328" type="line"/>
      <point x="325" y="328" type="line"/>
    </contour>
  </outline>
</glyph>
<glyph name="uni002C" format="2">
  <advance width="1381"/>
  <unicode hex="002C"/>
  <outline>
    <contour>
      <point x="821.797" y="306.16" type="line"/>
      <point x="582.394" y="306.16" type="line"/>
      <point x="407.446" y="-250.913" type="line"/>
      <point x="570.884" y="-250.913" type="line"/>
    </contour>
  </outline>
</glyph>
<glyph name="uni002F" format="2">
  <advance width="600"/>
  <unicode hex="002F"/>
  <outline>
    <contour>
      <point x="509" y="684" type="line"/>
      <point x="466" y="702" type="line"/>
      <point x="91" y="-113" type="line"/>
      <point x="134" y="-133" type="line"/>
    </contour>
  </outline>
</glyph>
<glyph name="uni0030" format="2">
  <advance width="1381"/>
  <unicode hex="0030"/>
  <outline>
    <contour>
      <point x="690.586" y="1325.92" type="qcurve" smooth="yes"/>
      <point x="794.173" y="1325.92"/>
      <point x="918.479" y="1199.32"/>
      <point x="985.235" y="1010.56"/>
      <point x="1005.95" y="791.871"/>
      <point x="1005.95" y="699.793" type="qcurve" smooth="yes"/>
      <point x="1005.95" y="610.017"/>
      <point x="985.235" y="389.03"/>
      <point x="916.177" y="200.27"/>
      <point x="791.871" y="71.3605"/>
      <point x="688.284" y="71.3605" type="qcurve" smooth="yes"/>
      <point x="586.998" y="71.3605"/>
      <point x="462.692" y="197.968"/>
      <point x="395.936" y="389.03"/>
      <point x="375.218" y="607.715"/>
      <point x="375.218" y="699.793" type="qcurve" smooth="yes"/>
      <point x="375.218" y="789.57"/>
      <point x="395.936" y="1008.25"/>
      <point x="462.692" y="1197.02"/>
      <point x="586.998" y="1325.92"/>
    </contour>
    <contour>
      <point x="690.586" y="1429.51" type="qcurve" smooth="yes"/>
      <point x="550.167" y="1429.51"/>
      <point x="377.52" y="1284.49"/>
      <point x="285.442" y="1065.8"/>
      <point x="253.215" y="810.287"/>
      <point x="253.215" y="697.491" type="qcurve" smooth="yes"/>
      <point x="253.215" y="586.998"/>
      <point x="285.442" y="329.179"/>
      <point x="377.52" y="112.796"/>
      <point x="550.167" y="-32.2273"/>
      <point x="690.586" y="-32.2273" type="qcurve" smooth="yes"/>
      <point x="831.005" y="-32.2273"/>
      <point x="1003.65" y="110.494"/>
      <point x="1095.73" y="329.179"/>
      <point x="1127.96" y="584.696"/>
      <point x="1127.96" y="697.491" type="qcurve" smooth="yes"/>
      <point x="1127.96" y="810.287"/>
      <point x="1095.73" y="1065.8"/>
      <point x="1003.65" y="1284.49"/>
      <point x="831.005" y="1429.51"/>
    </contour>
  </outline>
</glyph>
<glyph name="uni0031" format="2">
  <advance width="600"/>
  <unicode hex="0031"/>
  <outline>
    <contour>
      <point x="302" y="621" type="line"/>
      <point x="104" y="533" type="line"/>
      <point x="124" y="489" type="line"/>
      <point x="284" y="563" type="line"/>
      <point x="284" y="47" type="line"/>
      <point x="110" y="47" type="line"/>
      <point x="110" y="0" type="line"/>
      <point x="505" y="0" type="line"/>
      <point x="505" y="47" type="line"/>
      <point x="334" y="47" type="line"/>
      <point x="334" y="621" type="line"/>
    </contour>
  </outline>
</glyph>
<glyph name="uni0032" format="2">
  <advance width="600"/>
  <unicode hex="0032"/>
  <outline>
    <contour>
      <point x="472" y="146" type="line"/>
      <point x="425" y="146" type="line"/>
      <point x="425" y="47" type="line"/>
      <point x="149" y="47" type="line"/>
      <point x="149" y="49" type="line"/>
      <point x="199" y="89"/>
      <point x="293" y="171"/>
      <point x="371" y="245"/>
      <point x="427" y="306"/>
      <point x="439" y="325" type="qcurve" smooth="yes"/>
      <point x="457" y="354"/>
      <point x="473" y="404"/>
      <point x="473" y="436" type="qcurve" smooth="yes"/>
      <point x="473" y="478"/>
      <point x="440" y="547"/>
      <point x="386" y="595"/>
      <point x="318" y="621"/>
      <point x="283" y="621" type="qcurve" smooth="yes"/>
      <point x="277" y="621"/>
      <point x="240" y="618"/>
      <point x="189" y="602"/>
      <point x="130" y="565"/>
      <point x="102" y="532" type="qcurve"/>
      <point x="102" y="467" type="line"/>
      <point x="154" y="467" type="line"/>
      <point x="152" y="498"/>
      <point x="181" y="538"/>
      <point x="222" y="562"/>
      <point x="267" y="571"/>
      <point x="281" y="571" type="qcurve" smooth="yes"/>
      <point x="300" y="571"/>
      <point x="348" y="556"/>
      <point x="390" y="524"/>
      <point x="419" y="474"/>
      <point x="419" y="438" type="qcurve" smooth="yes"/>
      <point x="419" y="403"/>
      <point x="396" y="344"/>
      <point x="360" y="308" type="qcurve" smooth="yes"/>
      <point x="330" y="277"/>
      <point x="247" y="200"/>
      <point x="166" y="127"/>
      <point x="98" y="67"/>
      <point x="82" y="53" type="qcurve"/>
      <point x="82" y="0" type="line"/>
      <point x="472" y="0" type="line"/>
    </contour>
  </outline>
</glyph>
<glyph name="uni0034" format="2">
  <advance width="1381"/>
  <unicode hex="0034"/>
  <outline>
    <contour>
      <point x="787.268" y="446.579" type="line"/>
      <point x="283.14" y="446.579" type="line"/>
      <point x="782.664" y="1296" type="line"/>
      <point x="787.268" y="1296" type="line"/>
    </contour>
    <contour>
      <point x="897.761" y="446.579" type="line"/>
      <point x="897.761" y="1429.51" type="line"/>
      <point x="741.229" y="1429.51" type="line"/>
      <point x="170.344" y="469.598" type="line"/>
      <point x="170.344" y="336.085" type="line"/>
      <point x="787.268" y="336.085" type="line"/>
      <point x="787.268" y="108.192" type="line"/>
      <point x="476.504" y="108.192" type="line"/>
      <point x="476.504" y="0" type="line"/>
      <point x="1104.94" y="0" type="line"/>
      <point x="1104.94" y="108.192" type="line"/>
      <point x="897.761" y="108.192" type="line"/>
      <point x="897.761" y="336.085" type="line"/>
      <point x="1104.94" y="336.085" type="line"/>
      <point x="1104.94" y="446.579" type="line"/>
    </contour>
  </outline>
</glyph>
<glyph name="uni0035" format="2">
  <advance width="1381"/>
  <unicode hex="0035"/>
  <outline>
    <contour>
      <point x="1058.9" y="1394.98" type="line"/>
      <point x="290.046" y="1394.98" type="line"/>
      <point x="290.046" y="697.491" type="line"/>
      <point x="347.595" y="665.264" type="line"/>
      <point x="418.955" y="718.209"/>
      <point x="566.28" y="775.758"/>
      <point x="653.754" y="775.758" type="qcurve" smooth="yes"/>
      <point x="736.625" y="775.758"/>
      <point x="865.534" y="720.511"/>
      <point x="955.31" y="623.829"/>
      <point x="1001.35" y="497.222"/>
      <point x="1001.35" y="428.163" type="qcurve" smooth="yes"/>
      <point x="1001.35" y="354.501"/>
      <point x="957.612" y="230.195"/>
      <point x="865.534" y="135.815"/>
      <point x="727.417" y="82.8703"/>
      <point x="633.037" y="82.8703" type="qcurve" smooth="yes"/>
      <point x="573.186" y="82.8703"/>
      <point x="458.088" y="103.588"/>
      <point x="359.105" y="131.211"/>
      <point x="278.536" y="163.439"/>
      <point x="250.913" y="174.948" type="qcurve"/>
      <point x="209.478" y="71.3605" type="line"/>
      <point x="267.026" y="48.341"/>
      <point x="370.614" y="9.20781"/>
      <point x="474.202" y="-18.4156"/>
      <point x="580.092" y="-32.2273"/>
      <point x="642.245" y="-32.2273" type="qcurve" smooth="yes"/>
      <point x="780.362" y="-32.2273"/>
      <point x="966.82" y="62.1527"/>
      <point x="1079.62" y="200.27"/>
      <point x="1125.65" y="363.708"/>
      <point x="1125.65" y="432.767" type="qcurve" smooth="yes"/>
      <point x="1125.65" y="524.845"/>
      <point x="1061.2" y="690.586"/>
      <point x="943.8" y="812.589"/>
      <point x="775.758" y="883.95"/>
      <point x="672.17" y="883.95" type="qcurve" smooth="yes"/>
      <point x="580.092" y="883.95"/>
      <point x="446.579" y="842.514"/>
      <point x="393.634" y="819.495" type="qcurve"/>
      <point x="393.634" y="1284.49" type="line"/>
      <point x="1058.9" y="1284.49" type="line"/>
    </contour>
  </outline>
</glyph>
<glyph name="uni0036" format="2">
  <advance width="600"/>
  <unicode hex="0036"/>
  <outline>
    <contour>
      <point x="158" y="212" type="qcurve"/>
      <point x="174" y="251"/>
      <point x="218" y="294"/>
      <point x="261" y="315"/>
      <point x="297" y="320"/>
      <point x="305" y="320" type="qcurve" smooth="yes"/>
      <point x="332" y="320"/>
      <point x="377" y="296"/>
      <point x="408" y="257"/>
      <point x="426" y="204"/>
      <point x="426" y="176" type="qcurve" smooth="yes"/>
      <point x="426" y="143"/>
      <point x="406" y="91"/>
      <point x="371" y="55"/>
      <point x="327" y="36"/>
      <point x="303" y="36" type="qcurve" smooth="yes"/>
      <point x="284" y="36"/>
      <point x="236" y="52"/>
      <point x="193" y="92"/>
      <point x="161" y="160"/>
    </contour>
    <contour>
      <point x="486" y="571" type="qcurve"/>
      <point x="486" y="621" type="line"/>
      <point x="442" y="623"/>
      <point x="378" y="620"/>
      <point x="333" y="614"/>
      <point x="302" y="606"/>
      <point x="291" y="602" type="qcurve" smooth="yes"/>
      <point x="225" y="578"/>
      <point x="149" y="483"/>
      <point x="112" y="378"/>
      <point x="102" y="284"/>
      <point x="102" y="260" type="qcurve" smooth="yes"/>
      <point x="102" y="180"/>
      <point x="142" y="75"/>
      <point x="202" y="12"/>
      <point x="273" y="-14"/>
      <point x="303" y="-14" type="qcurve" smooth="yes"/>
      <point x="342" y="-14"/>
      <point x="407" y="17"/>
      <point x="454" y="69"/>
      <point x="480" y="138"/>
      <point x="480" y="176" type="qcurve" smooth="yes"/>
      <point x="480" y="214"/>
      <point x="455" y="284"/>
      <point x="409" y="338"/>
      <point x="344" y="370"/>
      <point x="305" y="370" type="qcurve" smooth="yes"/>
      <point x="273" y="370"/>
      <point x="225" y="352"/>
      <point x="189" y="328"/>
      <point x="166" y="302"/>
      <point x="160" y="295" type="qcurve"/>
      <point x="158" y="297" type="line"/>
      <point x="169" y="400"/>
      <point x="232" y="514"/>
      <point x="322" y="566"/>
      <point x="430" y="574"/>
    </contour>
  </outline>
</glyph>
<glyph name="uni0038" format="2">
  <advance width="600"/>
  <unicode hex="0038"/>
  <outline>
    <contour>
      <point x="300" y="285" type="qcurve" smooth="yes"/>
      <point x="334" y="285"/>
      <point x="386" y="262"/>
      <point x="421" y="226"/>
      <point x="439" y="180"/>
      <point x="439" y="158" type="qcurve" smooth="yes"/>
      <point x="439" y="133"/>
      <point x="418" y="88"/>
      <point x="380" y="53"/>
      <point x="330" y="33"/>
      <point x="300" y="33" type="qcurve" smooth="yes"/>
      <point x="270" y="33"/>
      <point x="220" y="53"/>
      <point x="182" y="88"/>
      <point x="161" y="133"/>
      <point x="161" y="158" type="qcurve" smooth="yes"/>
      <point x="161" y="180"/>
      <point x="178" y="225"/>
      <point x="213" y="262"/>
      <point x="265" y="285"/>
    </contour>
    <contour>
      <point x="300" y="574" type="qcurve" smooth="yes"/>
      <point x="323" y="574"/>
      <point x="369" y="559"/>
      <point x="405" y="530"/>
      <point x="428" y="486"/>
      <point x="428" y="456" type="qcurve" smooth="yes"/>
      <point x="428" y="427"/>
      <point x="406" y="382"/>
      <point x="370" y="349"/>
      <point x="324" y="332"/>
      <point x="300" y="332" type="qcurve" smooth="yes"/>
      <point x="271" y="332"/>
      <point x="223" y="354"/>
      <point x="190" y="389"/>
      <point x="172" y="433"/>
      <point x="172" y="456" type="qcurve" smooth="yes"/>
      <point x="172" y="474"/>
      <point x="186" y="515"/>
      <point x="216" y="551"/>
      <point x="265" y="574"/>
    </contour>
    <contour>
      <point x="208" y="309" type="qcurve"/>
      <point x="163" y="289"/>
      <point x="107" y="205"/>
      <point x="107" y="158" type="qcurve" smooth="yes"/>
      <point x="107" y="130"/>
      <point x="130" y="69"/>
      <point x="178" y="19"/>
      <point x="250" y="-14"/>
      <point x="300" y="-14" type="qcurve" smooth="yes"/>
      <point x="349" y="-14"/>
      <point x="422" y="19"/>
      <point x="470" y="69"/>
      <point x="493" y="130"/>
      <point x="493" y="158" type="qcurve" smooth="yes"/>
      <point x="493" y="177"/>
      <point x="482" y="220"/>
      <point x="457" y="261"/>
      <point x="419" y="297"/>
      <point x="392" y="309" type="qcurve"/>
      <point x="439" y="335"/>
      <point x="482" y="417"/>
      <point x="482" y="457" type="qcurve" smooth="yes"/>
      <point x="482" y="491"/>
      <point x="454" y="550"/>
      <point x="405" y="595"/>
      <point x="339" y="621"/>
      <point x="300" y="621" type="qcurve" smooth="yes"/>
      <point x="261" y="621"/>
      <point x="195" y="595"/>
      <point x="146" y="550"/>
      <point x="118" y="491"/>
      <point x="118" y="457" type="qcurve" smooth="yes"/>
      <point x="118" y="425"/>
      <point x="139" y="375"/>
      <point x="167" y="338"/>
      <point x="198" y="314"/>
    </contour>
  </outline>
</glyph>
<glyph name="uni0039" format="2">
  <advance width="1381"/>
  <unicode hex="0039"/>
  <outline>
    <contour>
      <point x="941.498" y="909.271" type="qcurve"/>
      <point x="904.667" y="819.495"/>
      <point x="803.381" y="718.209"/>
      <point x="702.095" y="669.868"/>
      <point x="619.225" y="660.66"/>
      <point x="603.111" y="660.66" type="qcurve" smooth="yes"/>
      <point x="540.959" y="660.66"/>
      <point x="437.371" y="715.907"/>
      <point x="366.01" y="805.683"/>
      <point x="324.575" y="925.385"/>
      <point x="324.575" y="992.141" type="qcurve" smooth="yes"/>
      <point x="324.575" y="1068.11"/>
      <point x="370.614" y="1187.81"/>
      <point x="451.183" y="1270.68"/>
      <point x="552.468" y="1314.41"/>
      <point x="607.715" y="1314.41" type="qcurve" smooth="yes"/>
      <point x="651.452" y="1314.41"/>
      <point x="761.946" y="1277.58"/>
      <point x="860.93" y="1185.51"/>
      <point x="934.593" y="1028.97"/>
    </contour>
    <contour>
      <point x="186.458" y="82.8703" type="qcurve"/>
      <point x="186.458" y="-32.2273" type="line"/>
      <point x="287.744" y="-36.8312"/>
      <point x="435.069" y="-32.2273"/>
      <point x="538.657" y="-18.4156"/>
      <point x="610.017" y="2.30195"/>
      <point x="635.339" y="11.5098" type="qcurve" smooth="yes"/>
      <point x="787.268" y="66.7566"/>
      <point x="962.216" y="285.442"/>
      <point x="1047.39" y="527.147"/>
      <point x="1070.41" y="743.53"/>
      <point x="1070.41" y="798.777" type="qcurve" smooth="yes"/>
      <point x="1070.41" y="980.632"/>
      <point x="978.33" y="1224.64"/>
      <point x="840.212" y="1369.66"/>
      <point x="676.774" y="1429.51"/>
      <point x="607.715" y="1429.51" type="qcurve" smooth="yes"/>
      <point x="517.939" y="1429.51"/>
      <point x="368.312" y="1358.15"/>
      <point x="260.121" y="1238.45"/>
      <point x="200.27" y="1079.62"/>
      <point x="200.27" y="992.141" type="qcurve" smooth="yes"/>
      <point x="200.27" y="904.667"/>
      <point x="257.819" y="743.53"/>
      <point x="363.708" y="619.225"/>
      <point x="513.335" y="545.563"/>
      <point x="603.111" y="545.563" type="qcurve" smooth="yes"/>
      <point x="674.472" y="545.563"/>
      <point x="787.268" y="586.998"/>
      <point x="870.138" y="642.245"/>
      <point x="923.083" y="699.793"/>
      <point x="936.894" y="718.209" type="qcurve"/>
      <point x="941.498" y="713.605" type="line"/>
      <point x="913.875" y="476.504"/>
      <point x="768.852" y="214.082"/>
      <point x="563.978" y="94.38"/>
      <point x="317.669" y="75.9644"/>
    </contour>
  </outline>
</glyph>
<glyph name="uni003C" format="2">
  <advance width="600"/>
  <unicode hex="003C"/>
  <outline>
    <contour>
      <point x="54" y="308" type="line"/>
      <point x="526" y="89" type="line"/>
      <point x="546" y="133" type="line"/>
      <point x="165" y="308" type="line"/>
      <point x="546" y="487" type="line"/>
      <point x="526" y="532" type="line"/>
    </contour>
  </outline>
</glyph>
<glyph name="uni003E" format="2">
  <advance width="600"/>
  <unicode hex="003E"/>
  <outline>
    <contour>
      <point x="546" y="308" type="line"/>
      <point x="74" y="527" type="line"/>
      <point x="54" y="483" type="line"/>
      <point x="435" y="308" type="line"/>
      <point x="54" y="129" type="line"/>
      <point x="74" y="84" type="line"/>
    </contour>
  </outline>
</glyph>
<glyph name="uni003F" format="2">
  <advance width="600"/>
  <unicode hex="003F"/>
  <outline>
    <contour>
      <point x="266" y="106" type="qcurve" smooth="yes"/>
      <point x="237" y="106"/>
      <point x="197" y="71"/>
      <point x="197" y="45" type="qcurve" smooth="yes"/>
      <point x="197" y="18"/>
      <point x="238" y="-17"/>
      <point x="266" y="-17" type="qcurve" smooth="yes"/>
      <point x="294" y="-17"/>
      <point x="335" y="18"/>
      <point x="335" y="45" type="qcurve" smooth="yes"/>
      <point x="335" y="71"/>
      <point x="295" y="106"/>
    </contour>
    <contour>
      <point x="120" y="537" type="qcurve"/>
      <point x="120" y="435" type="line"/>
      <point x="170" y="435" type="line"/>
      <point x="170" y="499" type="line"/>
      <point x="195" y="509"/>
      <point x="246" y="523"/>
      <point x="283" y="523" type="qcurve" smooth="yes"/>
      <point x="325" y="523"/>
      <point x="379" y="500"/>
      <point x="410" y="465"/>
      <point x="422" y="426"/>
      <point x="422" y="411" type="qcurve" smooth="yes"/>
      <point x="422" y="377"/>
      <point x="391" y="332"/>
      <point x="345" y="303"/>
      <point x="289" y="286"/>
      <point x="264" y="280" type="qcurve"/>
      <point x="259" y="279"/>
      <point x="246" y="276"/>
      <point x="244" y="275" type="qcurve"/>
      <point x="244" y="178" type="line"/>
      <point x="293" y="178" type="line"/>
      <point x="293" y="238" type="line"/>
      <point x="318" y="245"/>
      <point x="381" y="267"/>
      <point x="436" y="305"/>
      <point x="474" y="364"/>
      <point x="474" y="408" type="qcurve" smooth="yes"/>
      <point x="474" y="439"/>
      <point x="450" y="499"/>
      <point x="402" y="544"/>
      <point x="330" y="572"/>
      <point x="282" y="572" type="qcurve" smooth="yes"/>
      <point x="261" y="572"/>
      <point x="224" y="568"/>
      <point x="187" y="559"/>
      <point x="146" y="546"/>
    </contour>
  </outline>
</glyph>
<glyph name="uni0040" format="2">
  <advance width="600"/>
  <unicode hex="0040"/>
  <outline>
    <contour>
      <point x="253" y="153" type="qcurve" smooth="yes"/>
      <point x="244" y="153"/>
      <point x="232" y="163"/>
      <point x="224" y="178"/>
      <point x="221" y="194"/>
      <point x="221" y="201" type="qcurve" smooth="yes"/>
      <point x="221" y="223"/>
      <point x="236" y="277"/>
      <point x="261" y="323"/>
      <point x="294" y="354"/>
      <point x="311" y="354" type="qcurve" smooth="yes"/>
      <point x="325" y="354"/>
      <point x="347" y="327"/>
      <point x="347" y="304" type="qcurve" smooth="yes"/>
      <point x="347" y="282"/>
      <point x="332" y="229"/>
      <point x="306" y="184"/>
      <point x="272" y="153"/>
    </contour>
    <contour>
      <point x="533" y="57" type="qcurve"/>
      <point x="512" y="99" type="line"/>
      <point x="511" y="99"/>
      <point x="506" y="96"/>
      <point x="505" y="96" type="qcurve"/>
      <point x="490" y="88" type="line" smooth="yes"/>
      <point x="455" y="69"/>
      <point x="354" y="33"/>
      <point x="291" y="33" type="qcurve" smooth="yes"/>
      <point x="234" y="33"/>
      <point x="155" y="74"/>
      <point x="106" y="139"/>
      <point x="84" y="219"/>
      <point x="84" y="259" type="qcurve" smooth="yes"/>
      <point x="84" y="304"/>
      <point x="109" y="390"/>
      <point x="163" y="457"/>
      <point x="247" y="499"/>
      <point x="307" y="499" type="qcurve" smooth="yes"/>
      <point x="351" y="499"/>
      <point x="428" y="475"/>
      <point x="486" y="426"/>
      <point x="519" y="352"/>
      <point x="519" y="303" type="qcurve" smooth="yes"/>
      <point x="519" y="272"/>
      <point x="505" y="218"/>
      <point x="480" y="177"/>
      <point x="447" y="153"/>
      <point x="428" y="153" type="qcurve" smooth="yes"/>
      <point x="405" y="153"/>
      <point x="382" y="182"/>
      <point x="382" y="193" type="qcurve" smooth="yes"/>
      <point x="382" y="205"/>
      <point x="392" y="239"/>
      <point x="392" y="243" type="qcurve"/>
      <point x="435" y="399" type="line"/>
      <point x="383" y="399" type="line"/>
      <point x="374" y="364" type="line"/>
      <point x="367" y="375"/>
      <point x="342" y="404"/>
      <point x="317" y="404" type="qcurve" smooth="yes"/>
      <point x="286" y="404"/>
      <point x="233" y="367"/>
      <point x="193" y="309"/>
      <point x="170" y="238"/>
      <point x="170" y="205" type="qcurve" smooth="yes"/>
      <point x="170" y="175"/>
      <point x="187" y="135"/>
      <point x="212" y="113"/>
      <point x="239" y="104"/>
      <point x="248" y="104" type="qcurve" smooth="yes"/>
      <point x="266" y="104"/>
      <point x="296" y="115"/>
      <point x="320" y="132"/>
      <point x="337" y="150"/>
      <point x="343" y="157" type="qcurve"/>
      <point x="343" y="152"/>
      <point x="346" y="143"/>
      <point x="354" y="137" type="qcurve" smooth="yes"/>
      <point x="368" y="127"/>
      <point x="385" y="115"/>
      <point x="398" y="108"/>
      <point x="411" y="106"/>
      <point x="422" y="106" type="qcurve" smooth="yes"/>
      <point x="454" y="106"/>
      <point x="507" y="134"/>
      <point x="546" y="184"/>
      <point x="567" y="255"/>
      <point x="567" y="297" type="qcurve" smooth="yes"/>
      <point x="567" y="356"/>
      <point x="527" y="449"/>
      <point x="458" y="513"/>
      <point x="364" y="546"/>
      <point x="309" y="546" type="qcurve" smooth="yes"/>
      <point x="243" y="546"/>
      <point x="139" y="501"/>
      <point x="69" y="424"/>
      <point x="32" y="320"/>
      <point x="32" y="260" type="qcurve" smooth="yes"/>
      <point x="32" y="207"/>
      <point x="63" y="108"/>
      <point x="126" y="32"/>
      <point x="222" y="-14"/>
      <point x="288" y="-14" type="qcurve" smooth="yes"/>
      <point x="354" y="-14"/>
      <point x="476" y="25"/>
      <point x="527" y="54" type="qcurve"/>
      <point x="528" y="54"/>
      <point x="532" y="57"/>
    </contour>
  </outline>
</glyph>
<glyph name="uni0044" format="2">
  <advance width="1381"/>
  <unicode hex="0044"/>
  <outline>
    <contour>
      <point x="375.218" y="1187.81" type="line"/>
      <point x="656.056" y="1187.81" type="line" smooth="yes"/>
      <point x="755.04" y="1187.81"/>
      <point x="900.063" y="1162.49"/>
      <point x="959.914" y="1116.45" type="qcurve"/>
      <point x="985.235" y="1095.73"/>
      <point x="1047.39" y="1028.97"/>
      <point x="1102.64" y="925.385"/>
      <point x="1141.77" y="773.456"/>
      <point x="1144.07" y="665.264" type="qcurve"/>
      <point x="1144.07" y="506.429"/>
      <point x="1051.99" y="278.536"/>
      <point x="989.839" y="216.383" type="qcurve" smooth="yes"/>
      <point x="948.404" y="174.948"/>
      <point x="851.722" y="131.211"/>
      <point x="757.342" y="110.494"/>
      <point x="674.472" y="108.192"/>
      <point x="644.547" y="108.192" type="qcurve" smooth="yes"/>
      <point x="375.218" y="108.192" type="line"/>
    </contour>
    <contour>
      <point x="653.754" y="1296" type="qcurve" smooth="yes"/>
      <point x="78.2664" y="1296" type="line"/>
      <point x="78.2664" y="1187.81" type="line"/>
      <point x="260.121" y="1187.81" type="line"/>
      <point x="260.121" y="108.192" type="line"/>
      <point x="78.2664" y="108.192" type="line"/>
      <point x="78.2664" y="0" type="line"/>
      <point x="644.547" y="0" type="line" smooth="yes"/>
      <point x="676.774" y="0"/>
      <point x="780.362" y="4.6039"/>
      <point x="900.063" y="29.9254"/>
      <point x="1024.37" y="82.8703"/>
      <point x="1077.31" y="133.513" type="qcurve" smooth="yes"/>
      <point x="1150.98" y="204.874"/>
      <point x="1268.38" y="464.994"/>
      <point x="1268.38" y="672.17" type="qcurve" smooth="yes"/>
      <point x="1268.38" y="702.095"/>
      <point x="1261.47" y="803.381"/>
      <point x="1233.85" y="927.687"/>
      <point x="1176.3" y="1061.2"/>
      <point x="1125.65" y="1123.35" type="qcurve" smooth="yes"/>
      <point x="1077.31" y="1180.9"/>
      <point x="973.726" y="1249.96"/>
      <point x="860.93" y="1284.49"/>
      <point x="729.719" y="1296"/>
    </contour>
  </outline>
</glyph>
<glyph name="uni0045" format="2">
  <advance width="1381"/>
  <unicode hex="0045"/>
  <outline>
    <contour>
      <point x="1224.64" y="1296" type="line"/>
      <point x="131.211" y="1296" type="line"/>
      <point x="131.211" y="1187.81" type="line"/>
      <point x="326.877" y="1187.81" type="line"/>
      <point x="326.877" y="108.192" type="line"/>
      <point x="131.211" y="108.192" type="line"/>
      <point x="131.211" y="0" type="line"/>
      <point x="1245.36" y="0" type="line"/>
      <point x="1245.36" y="423.559" type="line"/>
      <point x="1139.47" y="423.559" type="line"/>
      <point x="1127.96" y="108.192" type="line"/>
      <point x="441.975" y="108.192" type="line"/>
      <point x="441.975" y="630.735" type="line"/>
      <point x="814.891" y="630.735" type="line"/>
      <point x="814.891" y="464.994" type="line"/>
      <point x="920.781" y="464.994" type="line"/>
      <point x="920.781" y="906.969" type="line"/>
      <point x="814.891" y="906.969" type="line"/>
      <point x="814.891" y="738.927" type="line"/>
      <point x="441.975" y="738.927" type="line"/>
      <point x="441.975" y="1187.81" type="line"/>
      <point x="1104.94" y="1187.81" type="line"/>
      <point x="1127.96" y="872.44" type="line"/>
      <point x="1233.85" y="872.44" type="line"/>
    </contour>
  </outline>
</glyph>
<glyph name="uni0046" format="2">
  <advance width="600"/>
  <unicode hex="0046"/>
  <outline>
    <contour>
      <point x="541" y="563" type="line"/>
      <point x="72" y="563" type="line"/>
      <point x="72" y="516" type="line"/>
      <point x="153" y="516" type="line"/>
      <point x="153" y="47" type="line"/>
      <point x="72" y="47" type="line"/>
      <point x="72" y="0" type="line"/>
      <point x="333" y="0" type="line"/>
      <point x="333" y="47" type="line"/>
      <point x="203" y="47" type="line"/>
      <point x="203" y="274" type="line"/>
      <point x="365" y="274" type="line"/>
      <point x="365" y="202" type="line"/>
      <point x="411" y="202" type="line"/>
      <point x="411" y="394" type="line"/>
      <point x="365" y="394" type="line"/>
      <point x="365" y="321" type="line"/>
      <point x="203" y="321" type="line"/>
      <point x="203" y="516" type="line"/>
      <point x="489" y="516" type="line"/>
      <point x="501" y="383" type="line"/>
      <point x="546" y="383" type="line"/>
    </contour>
  </outline>
</glyph>
<glyph name="uni0048" format="2">
  <advance width="600"/>
  <unicode hex="0048"/>
  <outline>
    <contour>
      <point x="239" y="563" type="line"/>
      <point x="39" y="563" type="line"/>
      <point x="39" y="516" type="line"/>
      <point x="114" y="516" type="line"/>
      <point x="114" y="47" type="line"/>
      <point x="39" y="47" type="line"/>
      <point x="39" y="0" type="line"/>
      <point x="239" y="0" type="line"/>
      <point x="239" y="47" type="line"/>
      <point x="164" y="47" type="line"/>
      <point x="164" y="267" type="line"/>
      <point x="436" y="267" type="line"/>
      <point x="436" y="47" type="line"/>
      <point x="361" y="47" type="line"/>
      <point x="361" y="0" type="line"/>
      <point x="562" y="0" type="line"/>
      <point x="562" y="47" type="line"/>
      <point x="486" y="47" type="line"/>
      <point x="486" y="516" type="line"/>
      <point x="562" y="516" type="line"/>
      <point x="562" y="563" type="line"/>
      <point x="361" y="563" type="line"/>
      <point x="361" y="516" type="line"/>
      <point x="436" y="516" type="line"/>
      <point x="436" y="314" type="line"/>
      <point x="164" y="314" type="line"/>
      <point x="164" y="516" type="line"/>
      <point x="239" y="516" type="line"/>
    </contour>
  </outline>
</glyph>
<glyph name="uni004A" format="2">
  <advance width="1381"/>
  <unicode hex="004A"/>
  <outline>
    <contour>
      <point x="1332.83" y="1296" type="line"/>
      <point x="471.9" y="1296" type="line"/>
      <point x="471.9" y="1187.81" type="line"/>
      <point x="925.385" y="1187.81" type="line"/>
      <point x="925.385" y="469.598" type="line" smooth="yes"/>
      <point x="925.385" y="400.54"/>
      <point x="916.177" y="260.121"/>
      <point x="860.93" y="147.325"/>
      <point x="743.53" y="75.9644"/>
      <point x="637.641" y="75.9644" type="qcurve" smooth="yes"/>
      <point x="577.79" y="75.9644"/>
      <point x="432.767" y="105.89"/>
      <point x="366.01" y="147.325" type="qcurve" smooth="yes"/>
      <point x="296.952" y="188.76"/>
      <point x="260.121" y="294.65"/>
      <point x="257.819" y="382.124" type="qcurve" smooth="yes"/>
      <point x="248.611" y="605.413" type="line"/>
      <point x="135.815" y="605.413" type="line"/>
      <point x="156.533" y="108.192" type="line"/>
      <point x="200.27" y="89.7761" type="line"/>
      <point x="296.952" y="46.039"/>
      <point x="524.845" y="-39.1332"/>
      <point x="662.962" y="-39.1332" type="qcurve" smooth="yes"/>
      <point x="699.793" y="-39.1332"/>
      <point x="784.966" y="-23.0195"/>
      <point x="867.836" y="11.5098"/>
      <point x="946.102" y="69.0586"/>
      <point x="973.726" y="108.192" type="qcurve"/>
      <point x="1019.76" y="179.552"/>
      <point x="1040.48" y="372.916"/>
      <point x="1040.48" y="469.598" type="qcurve" smooth="yes"/>
      <point x="1040.48" y="1187.81" type="line"/>
      <point x="1332.83" y="1187.81" type="line"/>
    </contour>
  </outline>
</glyph>
<glyph name="uni004B" format="2">
  <advance width="1381"/>
  <unicode hex="004B"/>
  <outline>
    <contour>
      <point x="642.245" y="1296" type="line"/>
      <point x="138.117" y="1296" type="line"/>
      <point x="138.117" y="1187.81" type="line"/>
      <point x="331.481" y="1187.81" type="line"/>
      <point x="331.481" y="108.192" type="line"/>
      <point x="138.117" y="108.192" type="line"/>
      <point x="138.117" y="0" type="line"/>
      <point x="642.245" y="0" type="line"/>
      <point x="642.245" y="108.192" type="line"/>
      <point x="446.579" y="108.192" type="line"/>
      <point x="446.579" y="471.9" type="line"/>
      <point x="605.413" y="623.829" type="line"/>
      <point x="706.699" y="573.186"/>
      <point x="842.514" y="425.861"/>
      <point x="909.271" y="310.764" type="qcurve" smooth="yes"/>
      <point x="934.593" y="269.328"/>
      <point x="1022.07" y="96.682"/>
      <point x="1058.9" y="0" type="qcurve"/>
      <point x="1353.55" y="0" type="line"/>
      <point x="1353.55" y="108.192" type="line"/>
      <point x="1141.77" y="108.192" type="line"/>
      <point x="1072.71" y="264.724"/>
      <point x="946.102" y="471.9"/>
      <point x="831.005" y="605.413"/>
      <point x="727.417" y="679.076"/>
      <point x="683.68" y="702.095" type="qcurve"/>
      <point x="1183.2" y="1187.81" type="line"/>
      <point x="1286.79" y="1187.81" type="line"/>
      <point x="1286.79" y="1296" type="line"/>
      <point x="837.911" y="1296" type="line"/>
      <point x="837.911" y="1187.81" type="line"/>
      <point x="1026.67" y="1187.81" type="line"/>
      <point x="446.579" y="623.829" type="line"/>
      <point x="446.579" y="1187.81" type="line"/>
      <point x="642.245" y="1187.81" type="line"/>
    </contour>
  </outline>
</glyph>
<glyph name="uni004D" format="2">
  <advance width="600"/>
  <unicode hex="004D"/>
  <outline>
    <contour>
      <point x="175" y="563" type="line"/>
      <point x="8" y="563" type="line"/>
      <point x="8" y="516" type="line"/>
      <point x="79" y="516" type="line"/>
      <point x="62" y="47" type="line"/>
      <point x="1" y="47" type="line"/>
      <point x="1" y="0" type="line"/>
      <point x="213" y="0" type="line"/>
      <point x="213" y="47" type="line"/>
      <point x="106" y="47" type="line"/>
      <point x="121" y="516" type="line"/>
      <point x="139" y="516" type="line"/>
      <point x="269" y="144" type="line"/>
      <point x="321" y="144" type="line"/>
      <point x="461" y="516" type="line"/>
      <point x="479" y="516" type="line"/>
      <point x="494" y="47" type="line"/>
      <point x="387" y="47" type="line"/>
      <point x="387" y="0" type="line"/>
      <point x="599" y="0" type="line"/>
      <point x="599" y="47" type="line"/>
      <point x="538" y="47" type="line"/>
      <point x="521" y="516" type="line"/>
      <point x="592" y="516" type="line"/>
      <point x="592" y="563" type="line"/>
      <point x="431" y="563" type="line"/>
      <point x="307" y="224" type="line"/>
      <point x="289" y="224" type="line"/>
    </contour>
  </outline>
</glyph>
<glyph name="uni004E" format="2">
  <advance width="600"/>
  <unicode hex="004E"/>
  <outline>
    <contour>
      <point x="199" y="563" type="line"/>
      <point x="28" y="563" type="line"/>
      <point x="28" y="516" type="line"/>
      <point x="106" y="516" type="line"/>
      <point x="106" y="47" type="line"/>
      <point x="28" y="47" type="line"/>
      <point x="28" y="0" type="line"/>
      <point x="265" y="0" type="line"/>
      <point x="265" y="47" type="line"/>
      <point x="152" y="47" type="line"/>
      <point x="152" y="516" type="line"/>
      <point x="169" y="516" type="line"/>
      <point x="437" y="-13" type="line"/>
      <point x="526" y="-13" type="line"/>
      <point x="526" y="516" type="line"/>
      <point x="591" y="516" type="line"/>
      <point x="591" y="563" type="line"/>
      <point x="368" y="563" type="line"/>
      <point x="368" y="516" type="line"/>
      <point x="480" y="516" type="line"/>
      <point x="480" y="42" type="line"/>
      <point x="462" y="42" type="line"/>
    </contour>
  </outline>
</glyph>
<glyph name="uni0050" format="2">
  <advance width="600"/>
  <unicode hex="0050"/>
  <outline>
    <contour>
      <point x="202" y="516" type="line"/>
      <point x="300" y="516" type="line" smooth="yes"/>
      <point x="327" y="516"/>
      <point x="364" y="513"/>
      <point x="391" y="508"/>
      <point x="411" y="501"/>
      <point x="420" y="496" type="qcurve"/>
      <point x="440" y="486"/>
      <point x="480" y="431"/>
      <point x="480" y="390" type="qcurve" smooth="yes"/>
      <point x="480" y="354"/>
      <point x="452" y="306"/>
      <point x="438" y="295" type="qcurve" smooth="yes"/>
      <point x="412" y="274"/>
      <point x="320" y="268"/>
      <point x="259" y="268" type="qcurve" smooth="yes"/>
      <point x="202" y="268" type="line"/>
    </contour>
    <contour>
      <point x="300" y="563" type="qcurve" smooth="yes"/>
      <point x="71" y="563" type="line"/>
      <point x="71" y="516" type="line"/>
      <point x="152" y="516" type="line"/>
      <point x="152" y="47" type="line"/>
      <point x="71" y="47" type="line"/>
      <point x="71" y="0" type="line"/>
      <point x="349" y="0" type="line"/>
      <point x="349" y="47" type="line"/>
      <point x="202" y="47" type="line"/>
      <point x="202" y="221" type="line"/>
      <point x="258" y="221" type="line" smooth="yes"/>
      <point x="303" y="221"/>
      <point x="364" y="222"/>
      <point x="408" y="228"/>
      <point x="443" y="240"/>
      <point x="461" y="251" type="qcurve"/>
      <point x="477" y="260"/>
      <point x="504" y="290"/>
      <point x="523" y="326"/>
      <point x="534" y="367"/>
      <point x="534" y="388" type="qcurve" smooth="yes"/>
      <point x="534" y="434"/>
      <point x="486" y="516"/>
      <point x="448" y="537" type="qcurve" smooth="yes"/>
      <point x="421" y="552"/>
      <point x="354" y="563"/>
    </contour>
  </outline>
</glyph>
<glyph name="uni0051" format="2">
  <advance width="1381"/>
  <unicode hex="0051"/>
  <outline>
    <contour>
      <point x="223.289" y="649.15" type="qcurve" smooth="yes"/>
      <point x="223.289" y="748.134"/>
      <point x="280.838" y="953.008"/>
      <point x="395.936" y="1116.45"/>
      <point x="570.884" y="1220.03"/>
      <point x="690.586" y="1220.03" type="qcurve" smooth="yes"/>
      <point x="803.381" y="1220.03"/>
      <point x="976.028" y="1123.35"/>
      <point x="1095.73" y="964.518"/>
      <point x="1157.88" y="757.342"/>
      <point x="1157.88" y="649.15" type="qcurve" smooth="yes"/>
      <point x="1157.88" y="540.959"/>
      <point x="1098.03" y="336.085"/>
      <point x="978.33" y="174.948"/>
      <point x="803.381" y="75.9644"/>
      <point x="690.586" y="75.9644" type="qcurve" smooth="yes"/>
      <point x="575.488" y="75.9644"/>
      <point x="400.54" y="177.25"/>
      <point x="283.14" y="340.689"/>
      <point x="223.289" y="545.563"/>
    </contour>
    <contour>
      <point x="1259.17" y="-202.572" type="qcurve"/>
      <point x="1187.81" y="-119.702" type="line"/>
      <point x="1155.58" y="-140.419"/>
      <point x="1075.01" y="-179.552"/>
      <point x="1017.46" y="-179.552" type="qcurve" smooth="yes"/>
      <point x="1003.65" y="-179.552"/>
      <point x="980.632" y="-177.25"/>
      <point x="948.404" y="-165.741"/>
      <point x="900.063" y="-147.325"/>
      <point x="858.628" y="-131.211" type="qcurve"/>
      <point x="798.777" y="-105.89"/>
      <point x="697.491" y="-85.1722"/>
      <point x="656.056" y="-85.1722" type="qcurve" smooth="yes"/>
      <point x="637.641" y="-85.1722"/>
      <point x="616.923" y="-87.4742"/>
      <point x="605.413" y="-87.4742" type="qcurve"/>
      <point x="605.413" y="-82.8703" type="line"/>
      <point x="610.017" y="-82.8703" type="line"/>
      <point x="607.715" y="-87.4742"/>
      <point x="612.319" y="-82.8703"/>
      <point x="614.621" y="-78.2664" type="qcurve"/>
      <point x="633.037" y="-59.8508"/>
      <point x="642.245" y="-50.6429"/>
      <point x="651.452" y="-39.1332" type="qcurve"/>
      <point x="831.005" y="-41.4351"/>
      <point x="1072.71" y="80.5683"/>
      <point x="1220.03" y="278.536"/>
      <point x="1282.19" y="520.241"/>
      <point x="1282.19" y="637.641" type="qcurve" smooth="yes"/>
      <point x="1282.19" y="796.475"/>
      <point x="1190.11" y="1054.29"/>
      <point x="1028.97" y="1236.15"/>
      <point x="812.589" y="1335.13"/>
      <point x="688.284" y="1335.13" type="qcurve" smooth="yes"/>
      <point x="573.186" y="1335.13"/>
      <point x="359.105" y="1243.05"/>
      <point x="195.666" y="1065.8"/>
      <point x="98.9839" y="810.287"/>
      <point x="98.9839" y="646.849" type="qcurve" smooth="yes"/>
      <point x="98.9839" y="527.147"/>
      <point x="158.835" y="313.065"/>
      <point x="269.328" y="140.419"/>
      <point x="425.861" y="13.8117"/>
      <point x="522.543" y="-16.1137" type="qcurve"/>
      <point x="517.939" y="-20.7176"/>
      <point x="488.014" y="-59.8508"/>
      <point x="437.371" y="-112.796"/>
      <point x="368.312" y="-174.948"/>
      <point x="326.877" y="-202.572" type="qcurve"/>
      <point x="379.822" y="-287.744" type="line"/>
      <point x="460.39" y="-241.705"/>
      <point x="575.488" y="-193.364"/>
      <point x="651.452" y="-193.364" type="qcurve" smooth="yes"/>
      <point x="695.19" y="-193.364"/>
      <point x="771.154" y="-214.082"/>
      <point x="890.855" y="-264.724"/>
      <point x="973.726" y="-294.65"/>
      <point x="1026.67" y="-294.65" type="qcurve" smooth="yes"/>
      <point x="1107.24" y="-294.65"/>
      <point x="1220.03" y="-230.195"/>
    </contour>
  </outline>
</glyph>
<glyph name="uni0052" format="2">
  <advance width="600"/>
  <unicode hex="0052"/>
  <outline>
    <contour>
      <point x="177" y="516" type="line"/>
      <point x="300" y="516" type="line" smooth="yes"/>
      <point x="327" y="516"/>
      <point x="362" y="513"/>
      <point x="384" y="509"/>
      <point x="397" y="503"/>
      <point x="403" y="499" type="qcurve" smooth="yes"/>
      <point x="423" y="485"/>
      <point x="445" y="440"/>
      <point x="445" y="415" type="qcurve" smooth="yes"/>
      <point x="445" y="373"/>
      <point x="405" y="328"/>
      <point x="350" y="308"/>
      <point x="290" y="305"/>
      <point x="270" y="305" type="qcurve" smooth="yes"/>
      <point x="177" y="305" type="line"/>
    </contour>
    <contour>
      <point x="302" y="563" type="qcurve" smooth="yes"/>
      <point x="45" y="563" type="line"/>
      <point x="45" y="516" type="line"/>
      <point x="127" y="516" type="line"/>
      <point x="127" y="47" type="line"/>
      <point x="45" y="47" type="line"/>
      <point x="45" y="0" type="line"/>
      <point x="266" y="0" type="line"/>
      <point x="266" y="47" type="line"/>
      <point x="177" y="47" type="line"/>
      <point x="177" y="258" type="line"/>
      <point x="249" y="258" type="line" smooth="yes"/>
      <point x="269" y="258"/>
      <point x="296" y="248"/>
      <point x="319" y="227"/>
      <point x="341" y="194"/>
      <point x="356" y="171" type="qcurve" smooth="yes"/>
      <point x="361" y="163"/>
      <point x="384" y="126"/>
      <point x="411" y="79"/>
      <point x="440" y="25"/>
      <point x="452" y="0" type="qcurve"/>
      <point x="577" y="0" type="line"/>
      <point x="577" y="47" type="line"/>
      <point x="489" y="47" type="line"/>
      <point x="474" y="71"/>
      <point x="435" y="134"/>
      <point x="396" y="194"/>
      <point x="359" y="245"/>
      <point x="346" y="259" type="qcurve"/>
      <point x="389" y="263"/>
      <point x="448" y="296"/>
      <point x="484" y="340"/>
      <point x="499" y="390"/>
      <point x="499" y="412" type="qcurve" smooth="yes"/>
      <point x="499" y="449"/>
      <point x="464" y="518"/>
      <point x="412" y="554"/>
      <point x="350" y="563"/>
    </contour>
  </outline>
</glyph>
<glyph name="uni0054" format="2">
  <advance width="600"/>
  <unicode hex="0054"/>
  <outline>
    <contour>
      <point x="540" y="563" type="line"/>
      <point x="60" y="563" type="line"/>
      <point x="43" y="327" type="line"/>
      <point x="91" y="321" type="line"/>
      <point x="105" y="516" type="line"/>
      <point x="275" y="516" type="line"/>
      <point x="275" y="47" type="line"/>
      <point x="154" y="47" type="line"/>
      <point x="154" y="0" type="line"/>
      <point x="446" y="0" type="line"/>
      <point x="446" y="47" type="line"/>
      <point x="325" y="47" type="line"/>
      <point x="325" y="516" type="line"/>
      <point x="495" y="516" type="line"/>
      <point x="509" y="321" type="line"/>
      <point x="557" y="327" type="line"/>
    </contour>
  </outline>
</glyph>
<glyph name="uni0056" format="2">
  <advance width="600"/>
  <unicode hex="0056"/>
  <outline>
    <contour>
      <point x="220" y="563" type="line"/>
      <point x="6" y="563" type="line"/>
      <point x="6" y="516" type="line"/>
      <point x="75" y="516" type="line"/>
      <point x="271" y="0" type="line"/>
      <point x="333" y="0" type="line"/>
      <point x="531" y="516" type="line"/>
      <point x="594" y="516" type="line"/>
      <point x="594" y="563" type="line"/>
      <point x="381" y="563" type="line"/>
      <point x="381" y="516" type="line"/>
      <point x="483" y="516" type="line"/>
      <point x="303" y="56" type="line"/>
      <point x="126" y="516" type="line"/>
      <point x="220" y="516" type="line"/>
    </contour>
  </outline>
</glyph>
<glyph name="uni0058" format="2">
  <advance width="600"/>
  <unicode hex="0058"/>
  <outline>
    <contour>
      <point x="246" y="563" type="line"/>
      <point x="52" y="563" type="line"/>
      <point x="52" y="516" type="line"/>
      <point x="105" y="516" type="line"/>
      <point x="273" y="296" type="line"/>
      <point x="84" y="47" type="line"/>
      <point x="33" y="47" type="line"/>
      <point x="33" y="0" type="line"/>
      <point x="246" y="0" type="line"/>
      <point x="246" y="47" type="line"/>
      <point x="140" y="47" type="line"/>
      <point x="301" y="259" type="line"/>
      <point x="455" y="47" type="line"/>
      <point x="365" y="47" type="line"/>
      <point x="365" y="0" type="line"/>
      <point x="567" y="0" type="line"/>
      <point x="567" y="47" type="line"/>
      <point x="515" y="47" type="line"/>
      <point x="329" y="296" type="line"/>
      <point x="497" y="516" type="line"/>
      <point x="548" y="516" type="line"/>
      <point x="548" y="563" type="line"/>
      <point x="365" y="563" type="line"/>
      <point x="365" y="516" type="line"/>
      <point x="441" y="516" type="line"/>
      <point x="301" y="333" type="line"/>
      <point x="164" y="516" type="line"/>
      <point x="246" y="516" type="line"/>
    </contour>
  </outline>
</glyph>
<glyph name="uni0059" format="2">
  <advance width="1381"/>
  <unicode hex="0059"/>
  <outline>
    <contour>
      <point x="524.845" y="1296" type="line"/>
      <point x="73.6625" y="1296" type="line"/>
      <point x="73.6625" y="1187.81" type="line"/>
      <point x="218.685" y="1187.81" type="line"/>
      <point x="635.339" y="501.826" type="line"/>
      <point x="635.339" y="108.192" type="line"/>
      <point x="361.406" y="108.192" type="line"/>
      <point x="361.406" y="0" type="line"/>
      <point x="1022.07" y="0" type="line"/>
      <point x="1022.07" y="108.192" type="line"/>
      <point x="750.436" y="108.192" type="line"/>
      <point x="750.436" y="501.826" type="line"/>
      <point x="1162.49" y="1187.81" type="line"/>
      <point x="1307.51" y="1187.81" type="line"/>
      <point x="1307.51" y="1296" type="line"/>
      <point x="860.93" y="1296" type="line"/>
      <point x="860.93" y="1187.81" type="line"/>
      <point x="1040.48" y="1187.81" type="line"/>
      <point x="697.491" y="616.923" type="line"/>
      <point x="349.897" y="1187.81" type="line"/>
      <point x="524.845" y="1187.81" type="line"/>
    </contour>
  </outline>
</glyph>
<glyph name="uni005B" format="2">
  <advance width="1381"/>
  <unicode hex="005B"/>
  <outline>
    <contour>
      <point x="1116.45" y="1505.48" type="line"/>
      <point x="711.303" y="1505.48" type="line"/>
      <point x="711.303" y="-216.383" type="line"/>
      <point x="1116.45" y="-216.383" type="line"/>
      <point x="1116.45" y="-101.286" type="line"/>
      <point x="826.401" y="-101.286" type="line"/>
      <point x="826.401" y="1390.38" type="line"/>
      <point x="1116.45" y="1390.38" type="line"/>
    </contour>
  </outline>
</glyph>
<glyph name="uni005C" format="2">
  <advance width="1381"/>
  <unicode hex="005C"/>
  <outline>
    <contour>
      <point x="1176.3" y="-273.932" type="line"/>
      <point x="313.065" y="1622.88" type="line"/>
      <point x="214.082" y="1579.14" type="line"/>
      <point x="1077.31" y="-319.971" type="line"/>
    </contour>
  </outline>
</glyph>
<glyph name="uni005D" format="2">
  <advance width="1381"/>
  <unicode hex="005D"/>
  <outline>
    <contour>
      <point x="264.724" y="-216.383" type="line"/>
      <point x="669.868" y="-216.383" type="line"/>
      <point x="669.868" y="1505.48" type="line"/>
      <point x="264.724" y="1505.48" type="line"/>
      <point x="264.724" y="1390.38" type="line"/>
      <point x="554.77" y="1390.38" type="line"/>
      <point x="554.77" y="-101.286" type="line"/>
      <point x="264.724" y="-101.286" type="line"/>
    </contour>
  </outline>
</glyph>
<glyph name="uni005F" format="2">
  <advance width="1381"/>
  <unicode hex="005F"/>
  <outline>
    <contour>
      <point x="1491.66" y="-172.646" type="line"/>
      <point x="-110.494" y="-172.646" type="line"/>
      <point x="-110.494" y="-287.744" type="line"/>
      <point x="1491.66" y="-287.744" type="line"/>
    </contour>
  </outline>
</glyph>
<glyph name="uni0060" format="2">
  <advance width="1381"/>
  <unicode hex="0060"/>
  <outline>
    <contour>
      <point x="683.68" y="1422.61" type="line"/>
      <point x="437.371" y="1422.61" type="line"/>
      <point x="741.229" y="1157.88" type="line"/>
      <point x="860.93" y="1157.88" type="line"/>
    </contour>
  </outline>
</glyph>
<glyph name="uni0062" format="2">
  <advance width="1381"/>
  <unicode hex="0062"/>
  <outline>
    <contour>
      <point x="340.689" y="490.316" type="qcurve" smooth="yes"/>
      <point x="340.689" y="568.582"/>
      <point x="402.842" y="711.303"/>
      <point x="511.033" y="819.495"/>
      <point x="656.056" y="883.95"/>
      <point x="741.229" y="883.95" type="qcurve" smooth="yes"/>
      <point x="824.099" y="883.95"/>
      <point x="966.82" y="819.495"/>
      <point x="1070.41" y="711.303"/>
      <point x="1127.96" y="566.28"/>
      <point x="1127.96" y="488.014" type="qcurve" smooth="yes"/>
      <point x="1127.96" y="409.747"/>
      <point x="1072.71" y="267.026"/>
      <point x="971.424" y="156.533"/>
      <point x="828.703" y="92.0781"/>
      <point x="743.53" y="92.0781" type="qcurve" smooth="yes"/>
      <point x="656.056" y="92.0781"/>
      <point x="508.731" y="156.533"/>
      <point x="402.842" y="264.724"/>
      <point x="340.689" y="409.747"/>
    </contour>
    <contour>
      <point x="338.387" y="1447.93" type="line"/>
      <point x="11.5098" y="1427.21" type="line"/>
      <point x="11.5098" y="1319.02" type="line"/>
      <point x="223.289" y="1330.53" type="line"/>
      <point x="223.289" y="108.192" type="line"/>
      <point x="39.1332" y="108.192" type="line"/>
      <point x="39.1332" y="0" type="line"/>
      <point x="338.387" y="0" type="line"/>
      <point x="338.387" y="177.25" type="line"/>
      <point x="359.105" y="154.231"/>
      <point x="421.257" y="85.1722"/>
      <point x="517.939" y="23.0195"/>
      <point x="651.452" y="-23.0195"/>
      <point x="745.832" y="-23.0195" type="qcurve" smooth="yes"/>
      <point x="858.628" y="-23.0195"/>
      <point x="1045.09" y="64.4547"/>
      <point x="1178.6" y="207.176"/>
      <point x="1252.26" y="389.03"/>
      <point x="1252.26" y="485.712" type="qcurve" smooth="yes"/>
      <point x="1252.26" y="591.602"/>
      <point x="1171.69" y="780.362"/>
      <point x="1031.27" y="918.479"/>
      <point x="842.514" y="999.047"/>
      <point x="736.625" y="999.047" type="qcurve" smooth="yes"/>
      <point x="610.017" y="999.047"/>
      <point x="414.351" y="893.157"/>
      <point x="342.991" y="796.475" type="qcurve"/>
      <point x="338.387" y="796.475" type="line"/>
    </contour>
  </outline>
</glyph>
<glyph name="uni0063" format="2">
  <advance width="1381"/>
  <unicode hex="0063"/>
  <outline>
    <contour>
      <point x="1203.92" y="1008.25" type="qcurve"/>
      <point x="1098.03" y="1019.76" type="line"/>
      <point x="1086.52" y="973.726"/>
      <point x="1084.22" y="946.102" type="qcurve"/>
      <point x="1081.92" y="934.593"/>
      <point x="1070.41" y="895.459"/>
      <point x="1061.2" y="895.459" type="qcurve"/>
      <point x="1058.9" y="895.459"/>
      <point x="1051.99" y="902.365" type="qcurve"/>
      <point x="948.404" y="985.235"/>
      <point x="780.362" y="1024.37"/>
      <point x="713.605" y="1024.37" type="qcurve" smooth="yes"/>
      <point x="573.186" y="1024.37"/>
      <point x="366.01" y="929.989"/>
      <point x="230.195" y="778.06"/>
      <point x="163.439" y="589.3"/>
      <point x="163.439" y="497.222" type="qcurve" smooth="yes"/>
      <point x="163.439" y="386.728"/>
      <point x="241.705" y="195.666"/>
      <point x="384.426" y="50.6429"/>
      <point x="582.394" y="-32.2273"/>
      <point x="704.397" y="-32.2273" type="qcurve" smooth="yes"/>
      <point x="801.079" y="-32.2273"/>
      <point x="971.424" y="16.1137"/>
      <point x="1114.14" y="87.4742"/>
      <point x="1226.94" y="163.439"/>
      <point x="1263.77" y="191.062" type="qcurve"/>
      <point x="1203.92" y="278.536" type="line"/>
      <point x="1077.31" y="191.062"/>
      <point x="840.212" y="82.8703"/>
      <point x="715.907" y="82.8703" type="qcurve" smooth="yes"/>
      <point x="600.809" y="82.8703"/>
      <point x="439.673" y="158.835"/>
      <point x="336.085" y="280.838"/>
      <point x="287.744" y="428.163"/>
      <point x="287.744" y="499.524" type="qcurve" smooth="yes"/>
      <point x="287.744" y="573.186"/>
      <point x="340.689" y="720.511"/>
      <point x="448.881" y="837.911"/>
      <point x="614.621" y="909.271"/>
      <point x="725.115" y="909.271" type="qcurve" smooth="yes"/>
      <point x="835.609" y="909.271"/>
      <point x="969.122" y="851.722"/>
      <point x="1040.48" y="773.456"/>
      <point x="1068.11" y="690.586"/>
      <point x="1075.01" y="667.566" type="qcurve"/>
      <point x="1084.22" y="628.433" type="line"/>
      <point x="1190.11" y="644.547" type="line"/>
      <point x="1183.2" y="734.323"/>
      <point x="1183.2" y="796.475" type="qcurve" smooth="yes"/>
      <point x="1183.2" y="856.326"/>
      <point x="1199.32" y="973.726"/>
    </contour>
  </outline>
</glyph>
<glyph name="uni0065" format="2">
  <advance width="1381"/>
  <unicode hex="0065"/>
  <outline>
    <contour>
      <point x="1114.14" y="570.884" type="qcurve"/>
      <point x="294.65" y="570.884" type="line"/>
      <point x="301.556" y="610.017"/>
      <point x="349.897" y="727.417"/>
      <point x="446.579" y="835.609"/>
      <point x="600.809" y="913.875"/>
      <point x="715.907" y="913.875" type="qcurve" smooth="yes"/>
      <point x="819.495" y="913.875"/>
      <point x="969.122" y="849.42"/>
      <point x="1065.8" y="748.134"/>
      <point x="1114.14" y="626.131"/>
    </contour>
    <contour>
      <point x="1286.79" y="131.211" type="qcurve"/>
      <point x="1233.85" y="232.497" type="line"/>
      <point x="1197.02" y="214.082"/>
      <point x="1086.52" y="161.137"/>
      <point x="953.008" y="112.796"/>
      <point x="803.381" y="78.2664"/>
      <point x="732.021" y="78.2664" type="qcurve" smooth="yes"/>
      <point x="598.508" y="78.2664"/>
      <point x="430.465" y="165.741"/>
      <point x="333.783" y="285.442"/>
      <point x="296.952" y="416.653"/>
      <point x="294.65" y="462.692" type="qcurve"/>
      <point x="1233.85" y="462.692" type="line"/>
      <point x="1233.85" y="474.202"/>
      <point x="1238.45" y="538.657"/>
      <point x="1238.45" y="566.28" type="qcurve" smooth="yes"/>
      <point x="1238.45" y="644.547"/>
      <point x="1174" y="807.985"/>
      <point x="1042.78" y="941.498"/>
      <point x="847.118" y="1024.37"/>
      <point x="715.907" y="1024.37" type="qcurve" smooth="yes"/>
      <point x="589.3" y="1024.37"/>
      <point x="386.728" y="939.196"/>
      <point x="246.309" y="791.871"/>
      <point x="170.344" y="598.508"/>
      <point x="170.344" y="492.618" type="qcurve" smooth="yes"/>
      <point x="170.344" y="391.332"/>
      <point x="239.403" y="200.27"/>
      <point x="379.822" y="55.2468"/>
      <point x="589.3" y="-32.2273"/>
      <point x="729.719" y="-32.2273" type="qcurve" smooth="yes"/>
      <point x="810.287" y="-32.2273"/>
      <point x="971.424" y="0"/>
      <point x="1116.45" y="48.341"/>
      <point x="1240.75" y="105.89"/>
    </contour>
  </outline>
</glyph>
<glyph name="uni0066" format="2">
  <advance width="600"/>
  <unicode hex="0066"/>
  <outline>
    <contour>
      <point x="201" y="418" type="line"/>
      <point x="97" y="418" type="line"/>
      <point x="97" y="371" type="line"/>
      <point x="201" y="371" type="line"/>
      <point x="201" y="47" type="line"/>
      <point x="97" y="47" type="line"/>
      <point x="97" y="0" type="line"/>
      <point x="464" y="0" type="line"/>
      <point x="464" y="47" type="line"/>
      <point x="251" y="47" type="line"/>
      <point x="251" y="371" type="line"/>
      <point x="464" y="371" type="line"/>
      <point x="464" y="418" type="line"/>
      <point x="251" y="418" type="line"/>
      <point x="251" y="471" type="line" smooth="yes"/>
      <point x="251" y="491"/>
      <point x="254" y="529"/>
      <point x="272" y="558"/>
      <point x="310" y="575"/>
      <point x="345" y="575" type="qcurve" smooth="yes"/>
      <point x="377" y="575"/>
      <point x="452" y="567"/>
      <point x="485" y="559" type="qcurve"/>
      <point x="506" y="609" type="line"/>
      <point x="474" y="615"/>
      <point x="400" y="625"/>
      <point x="358" y="625" type="qcurve" smooth="yes"/>
      <point x="304" y="625"/>
      <point x="241" y="601"/>
      <point x="210" y="560"/>
      <point x="201" y="505"/>
      <point x="201" y="474" type="qcurve" smooth="yes"/>
    </contour>
  </outline>
</glyph>
<glyph name="uni0067" format="2">
  <advance width="600"/>
  <unicode hex="0067"/>
  <outline>
    <contour>
      <point x="422" y="220" type="qcurve" smooth="yes"/>
      <point x="422" y="189"/>
      <point x="399" y="131"/>
      <point x="357" y="87"/>
      <point x="298" y="60"/>
      <point x="263" y="60" type="qcurve" smooth="yes"/>
      <point x="230" y="60"/>
      <point x="171" y="85"/>
      <point x="127" y="129"/>
      <point x="101" y="188"/>
      <point x="101" y="223" type="qcurve" smooth="yes"/>
      <point x="101" y="259"/>
      <point x="128" y="318"/>
      <point x="173" y="360"/>
      <point x="231" y="384"/>
      <point x="263" y="384" type="qcurve" smooth="yes"/>
      <point x="294" y="384"/>
      <point x="352" y="361"/>
      <point x="396" y="318"/>
      <point x="422" y="257"/>
    </contour>
    <contour>
      <point x="553" y="430" type="line"/>
      <point x="422" y="430" type="line"/>
      <point x="422" y="357" type="line"/>
      <point x="420" y="357" type="line"/>
      <point x="399" y="386"/>
      <point x="347" y="417"/>
      <point x="300" y="432"/>
      <point x="265" y="434"/>
      <point x="261" y="434" type="qcurve" smooth="yes"/>
      <point x="219" y="434"/>
      <point x="142" y="402"/>
      <point x="83" y="346"/>
      <point x="47" y="268"/>
      <point x="47" y="222" type="qcurve" smooth="yes"/>
      <point x="47" y="180"/>
      <point x="80" y="103"/>
      <point x="137" y="44"/>
      <point x="215" y="10"/>
      <point x="261" y="10" type="qcurve" smooth="yes"/>
      <point x="294" y="10"/>
      <point x="349" y="28"/>
      <point x="389" y="54"/>
      <point x="415" y="80"/>
      <point x="420" y="88" type="qcurve"/>
      <point x="422" y="88" type="line"/>
      <point x="422" y="30" type="line" smooth="yes"/>
      <point x="422" y="-21"/>
      <point x="393" y="-78"/>
      <point x="334" y="-105"/>
      <point x="243" y="-110"/>
      <point x="180" y="-110" type="qcurve"/>
      <point x="180" y="-157" type="line"/>
      <point x="243" y="-157" type="line" smooth="yes"/>
      <point x="310" y="-157"/>
      <point x="398" y="-133"/>
      <point x="451" y="-86"/>
      <point x="472" y="-16"/>
      <point x="472" y="30" type="qcurve" smooth="yes"/>
      <point x="472" y="383" type="line"/>
      <point x="553" y="383" type="line"/>
    </contour>
  </outline>
</glyph>
<glyph name="uni0068" format="2">
  <advance width="600"/>
  <unicode hex="0068"/>
  <outline>
    <contour>
      <point x="172" y="629" type="line"/>
      <point x="25" y="617" type="line"/>
      <point x="29" y="570" type="line"/>
      <point x="122" y="578" type="line"/>
      <point x="122" y="47" type="line"/>
      <point x="38" y="47" type="line"/>
      <point x="38" y="0" type="line"/>
      <point x="251" y="0" type="line"/>
      <point x="251" y="47" type="line"/>
      <point x="172" y="47" type="line"/>
      <point x="172" y="315" type="line"/>
      <point x="190" y="330"/>
      <point x="230" y="358"/>
      <point x="275" y="381"/>
      <point x="321" y="395"/>
      <point x="345" y="395" type="qcurve" smooth="yes"/>
      <point x="390" y="395"/>
      <point x="441" y="330"/>
      <point x="441" y="276" type="qcurve" smooth="yes"/>
      <point x="441" y="47" type="line"/>
      <point x="356" y="47" type="line"/>
      <point x="356" y="0" type="line"/>
      <point x="575" y="0" type="line"/>
      <point x="575" y="47" type="line"/>
      <point x="491" y="47" type="line"/>
      <point x="491" y="280" type="line" smooth="yes"/>
      <point x="491" y="316"/>
      <point x="471" y="377"/>
      <point x="432" y="421"/>
      <point x="377" y="445"/>
      <point x="343" y="445" type="qcurve" smooth="yes"/>
      <point x="316" y="445"/>
      <point x="268" y="432"/>
      <point x="226" y="411"/>
      <point x="188" y="386"/>
      <point x="172" y="374" type="qcurve"/>
    </contour>
  </outline>
</glyph>
<glyph name="uni006A" format="2">
  <advance width="1381"/>
  <unicode hex="006A"/>
  <outline>
    <contour>
      <point x="685.982" y="1510.08" type="line"/>
      <point x="685.982" y="1236.15" type="line"/>
      <point x="851.722" y="1236.15" type="line"/>
      <point x="851.722" y="1510.08" type="line"/>
    </contour>
    <contour>
      <point x="897.761" y="989.839" type="line"/>
      <point x="195.666" y="989.839" type="line"/>
      <point x="195.666" y="881.648" type="line"/>
      <point x="782.664" y="881.648" type="line"/>
      <point x="782.664" y="108.192" type="line" smooth="yes"/>
      <point x="782.664" y="59.8508"/>
      <point x="773.456" y="-59.8508"/>
      <point x="715.907" y="-163.439"/>
      <point x="589.3" y="-232.497"/>
      <point x="474.202" y="-232.497" type="qcurve" smooth="yes"/>
      <point x="386.728" y="-232.497"/>
      <point x="227.893" y="-209.478"/>
      <point x="181.854" y="-197.968" type="qcurve"/>
      <point x="156.533" y="-308.462" type="line"/>
      <point x="223.289" y="-322.273"/>
      <point x="375.218" y="-347.595"/>
      <point x="467.296" y="-347.595" type="qcurve" smooth="yes"/>
      <point x="628.433" y="-347.595"/>
      <point x="803.381" y="-244.007"/>
      <point x="883.95" y="-103.588"/>
      <point x="897.761" y="46.039"/>
      <point x="897.761" y="92.0781" type="qcurve" smooth="yes"/>
    </contour>
  </outline>
</glyph>
<glyph name="uni006C" format="2">
  <advance width="1381"/>
  <unicode hex="006C"/>
  <outline>
    <contour>
      <point x="748.134" y="1406.49" type="line"/>
      <point x="246.309" y="1374.27" type="line"/>
      <point x="257.819" y="1268.38" type="line"/>
      <point x="633.037" y="1296" type="line"/>
      <point x="633.037" y="108.192" type="line"/>
      <point x="232.497" y="108.192" type="line"/>
      <point x="232.497" y="0" type="line"/>
      <point x="1148.67" y="0" type="line"/>
      <point x="1148.67" y="108.192" type="line"/>
      <point x="748.134" y="108.192" type="line"/>
    </contour>
  </outline>
</glyph>
<glyph name="uni006D" format="2">
  <advance width="600"/>
  <unicode hex="006D"/>
  <outline>
    <contour>
      <point x="114" y="430" type="line"/>
      <point x="0" y="430" type="line"/>
      <point x="0" y="383" type="line"/>
      <point x="68" y="383" type="line"/>
      <point x="68" y="47" type="line"/>
      <point x="0" y="47" type="line"/>
      <point x="0" y="0" type="line"/>
      <point x="186" y="0" type="line"/>
      <point x="186" y="47" type="line"/>
      <point x="118" y="47" type="line"/>
      <point x="118" y="335" type="line"/>
      <point x="124" y="343"/>
      <point x="142" y="362"/>
      <point x="166" y="379"/>
      <point x="196" y="391"/>
      <point x="214" y="391" type="qcurve" smooth="yes"/>
      <point x="239" y="391"/>
      <point x="266" y="367"/>
      <point x="278" y="333"/>
      <point x="280" y="292"/>
      <point x="280" y="276" type="qcurve" smooth="yes"/>
      <point x="280" y="0" type="line"/>
      <point x="392" y="0" type="line"/>
      <point x="392" y="47" type="line"/>
      <point x="330" y="47" type="line"/>
      <point x="330" y="325" type="line"/>
      <point x="358" y="364"/>
      <point x="407" y="391"/>
      <point x="428" y="391" type="qcurve" smooth="yes"/>
      <point x="452" y="391"/>
      <point x="478" y="370"/>
      <point x="490" y="335"/>
      <point x="492" y="293"/>
      <point x="492" y="272" type="qcurve" smooth="yes"/>
      <point x="492" y="0" type="line"/>
      <point x="599" y="0" type="line"/>
      <point x="599" y="47" type="line"/>
      <point x="542" y="47" type="line"/>
      <point x="542" y="272" type="line" smooth="yes"/>
      <point x="542" y="300"/>
      <point x="539" y="339"/>
      <point x="533" y="366"/>
      <point x="523" y="387"/>
      <point x="516" y="398" type="qcurve" smooth="yes"/>
      <point x="503" y="418"/>
      <point x="453" y="441"/>
      <point x="427" y="441" type="qcurve" smooth="yes"/>
      <point x="392" y="441"/>
      <point x="335" y="404"/>
      <point x="313" y="378" type="qcurve"/>
      <point x="299" y="408"/>
      <point x="245" y="441"/>
      <point x="213" y="441" type="qcurve" smooth="yes"/>
      <point x="195" y="441"/>
      <point x="164" y="431"/>
      <point x="142" y="418"/>
      <point x="128" y="407"/>
      <point x="127" y="406" type="qcurve"/>
      <point x="114" y="395" type="line"/>
    </contour>
  </outline>
</glyph>
<glyph name="uni006E" format="2">
  <advance width="600"/>
  <unicode hex="006E"/>
  <outline>
    <contour>
      <point x="166" y="430" type="line"/>
      <point x="34" y="430" type="line"/>
      <point x="34" y="383" type="line"/>
      <point x="116" y="383" type="line"/>
      <point x="116" y="47" type="line"/>
      <point x="34" y="47" type="line"/>
      <point x="34" y="0" type="line"/>
      <point x="250" y="0" type="line"/>
      <point x="250" y="47" type="line"/>
      <point x="166" y="47" type="line"/>
      <point x="166" y="315" type="line"/>
      <point x="200" y="342"/>
      <point x="253" y="373"/>
      <point x="295" y="390"/>
      <point x="327" y="395"/>
      <point x="339" y="395" type="qcurve" smooth="yes"/>
      <point x="384" y="395"/>
      <point x="437" y="331"/>
      <point x="437" y="276" type="qcurve" smooth="yes"/>
      <point x="437" y="47" type="line"/>
      <point x="351" y="47" type="line"/>
      <point x="351" y="0" type="line"/>
      <point x="567" y="0" type="line"/>
      <point x="567" y="47" type="line"/>
      <point x="487" y="47" type="line"/>
      <point x="487" y="280" type="line" smooth="yes"/>
      <point x="487" y="316"/>
      <point x="466" y="377"/>
      <point x="427" y="421"/>
      <point x="372" y="445"/>
      <point x="338" y="445" type="qcurve" smooth="yes"/>
      <point x="311" y="445"/>
      <point x="263" y="432"/>
      <point x="220" y="411"/>
      <point x="182" y="386"/>
      <point x="166" y="374" type="qcurve"/>
    </contour>
  </outline>
</glyph>
<glyph name="uni006F" format="2">
  <advance width="1381"/>
  <unicode hex="006F"/>
  <outline>
    <contour>
      <point x="244.007" y="501.826" type="qcurve" smooth="yes"/>
      <point x="244.007" y="584.696"/>
      <point x="301.556" y="734.323"/>
      <point x="416.653" y="851.722"/>
      <point x="582.394" y="920.781"/>
      <point x="690.586" y="920.781" type="qcurve" smooth="yes"/>
      <point x="801.079" y="920.781"/>
      <point x="969.122" y="849.42"/>
      <point x="1079.62" y="732.021"/>
      <point x="1137.16" y="580.092"/>
      <point x="1137.16" y="501.826" type="qcurve" smooth="yes"/>
      <point x="1137.16" y="421.257"/>
      <point x="1079.62" y="271.63"/>
      <point x="969.122" y="154.231"/>
      <point x="801.079" y="82.8703"/>
      <point x="690.586" y="82.8703" type="qcurve" smooth="yes"/>
      <point x="582.394" y="82.8703"/>
      <point x="414.351" y="151.929"/>
      <point x="301.556" y="269.328"/>
      <point x="244.007" y="421.257"/>
    </contour>
    <contour>
      <point x="119.702" y="501.826" type="qcurve" smooth="yes"/>
      <point x="119.702" y="398.238"/>
      <point x="193.364" y="207.176"/>
      <point x="336.085" y="57.5488"/>
      <point x="550.167" y="-32.2273"/>
      <point x="690.586" y="-32.2273" type="qcurve" smooth="yes"/>
      <point x="835.609" y="-32.2273"/>
      <point x="1049.69" y="59.8508"/>
      <point x="1190.11" y="211.78"/>
      <point x="1261.47" y="402.842"/>
      <point x="1261.47" y="501.826" type="qcurve" smooth="yes"/>
      <point x="1261.47" y="600.809"/>
      <point x="1190.11" y="791.871"/>
      <point x="1049.69" y="943.8"/>
      <point x="835.609" y="1035.88"/>
      <point x="690.586" y="1035.88" type="qcurve" smooth="yes"/>
      <point x="550.167" y="1035.88"/>
      <point x="336.085" y="946.102"/>
      <point x="193.364" y="798.777"/>
      <point x="119.702" y="605.413"/>
    </contour>
  </outline>
</glyph>
<glyph name="uni0070" format="2">
  <advance width="1381"/>
  <unicode hex="0070"/>
  <outline>
    <contour>
      <point x="338.387" y="511.033" type="qcurve" smooth="yes"/>
      <point x="338.387" y="589.3"/>
      <point x="400.54" y="734.323"/>
      <point x="508.731" y="840.212"/>
      <point x="660.66" y="904.667"/>
      <point x="750.436" y="904.667" type="qcurve" smooth="yes"/>
      <point x="847.118" y="904.667"/>
      <point x="992.141" y="833.307"/>
      <point x="1088.82" y="720.511"/>
      <point x="1137.16" y="577.79"/>
      <point x="1137.16" y="506.429" type="qcurve" smooth="yes"/>
      <point x="1137.16" y="418.955"/>
      <point x="1072.71" y="269.328"/>
      <point x="966.82" y="161.137"/>
      <point x="826.401" y="98.9839"/>
      <point x="748.134" y="98.9839" type="qcurve" smooth="yes"/>
      <point x="681.378" y="98.9839"/>
      <point x="536.355" y="151.929"/>
      <point x="416.653" y="255.517"/>
      <point x="338.387" y="409.747"/>
    </contour>
    <contour>
      <point x="347.595" y="989.839" type="line"/>
      <point x="43.7371" y="989.839" type="line"/>
      <point x="43.7371" y="881.648" type="line"/>
      <point x="232.497" y="881.648" type="line"/>
      <point x="232.497" y="-253.215" type="line"/>
      <point x="43.7371" y="-253.215" type="line"/>
      <point x="43.7371" y="-361.406" type="line"/>
      <point x="690.586" y="-361.406" type="line"/>
      <point x="690.586" y="-253.215" type="line"/>
      <point x="347.595" y="-253.215" type="line"/>
      <point x="347.595" y="181.854" type="line"/>
      <point x="352.199" y="181.854" type="line"/>
      <point x="412.049" y="108.192"/>
      <point x="540.959" y="27.6234"/>
      <point x="656.056" y="-9.20781"/>
      <point x="738.927" y="-16.1137"/>
      <point x="752.738" y="-16.1137" type="qcurve" smooth="yes"/>
      <point x="844.816" y="-16.1137"/>
      <point x="1028.97" y="59.8508"/>
      <point x="1171.69" y="197.968"/>
      <point x="1261.47" y="389.03"/>
      <point x="1261.47" y="504.127" type="qcurve" smooth="yes"/>
      <point x="1261.47" y="603.111"/>
      <point x="1190.11" y="787.268"/>
      <point x="1054.29" y="932.291"/>
      <point x="865.534" y="1019.76"/>
      <point x="748.134" y="1019.76" type="qcurve" smooth="yes"/>
      <point x="656.056" y="1019.76"/>
      <point x="520.241" y="973.726"/>
      <point x="423.559" y="911.573"/>
      <point x="366.01" y="847.118"/>
      <point x="352.199" y="826.401" type="qcurve"/>
      <point x="347.595" y="826.401" type="line"/>
    </contour>
  </outline>
</glyph>
<glyph name="uni0074" format="2">
  <advance width="600"/>
  <unicode hex="0074"/>
  <outline>
    <contour>
      <point x="223" y="563" type="line"/>
      <point x="173" y="563" type="line"/>
      <point x="173" y="416" type="line"/>
      <point x="105" y="416" type="line"/>
      <point x="105" y="369" type="line"/>
      <point x="173" y="369" type="line"/>
      <point x="173" y="180" type="line" smooth="yes"/>
      <point x="173" y="130"/>
      <point x="182" y="57"/>
      <point x="208" y="31" type="qcurve" smooth="yes"/>
      <point x="224" y="15"/>
      <point x="284" y="-14"/>
      <point x="332" y="-14" type="qcurve" smooth="yes"/>
      <point x="381" y="-14"/>
      <point x="490" y="21"/>
      <point x="538" y="43" type="qcurve"/>
      <point x="520" y="88" type="line"/>
      <point x="476" y="70"/>
      <point x="414" y="49"/>
      <point x="370" y="39"/>
      <point x="339" y="36"/>
      <point x="327" y="36" type="qcurve" smooth="yes"/>
      <point x="288" y="36"/>
      <point x="245" y="60"/>
      <point x="226" y="100"/>
      <point x="223" y="152"/>
      <point x="223" y="180" type="qcurve" smooth="yes"/>
      <point x="223" y="369" type="line"/>
      <point x="465" y="369" type="line"/>
      <point x="465" y="416" type="line"/>
      <point x="223" y="416" type="line"/>
    </contour>
  </outline>
</glyph>
<glyph name="uni0076" format="2">
  <advance width="1381"/>
  <unicode hex="0076"/>
  <outline>
    <contour>
      <point x="538.657" y="989.839" type="line"/>
      <point x="48.341" y="989.839" type="line"/>
      <point x="48.341" y="881.648" type="line"/>
      <point x="218.685" y="881.648" type="line"/>
      <point x="637.641" y="0" type="line"/>
      <point x="745.832" y="0" type="line"/>
      <point x="1162.49" y="881.648" type="line"/>
      <point x="1332.83" y="881.648" type="line"/>
      <point x="1332.83" y="989.839" type="line"/>
      <point x="865.534" y="989.839" type="line"/>
      <point x="865.534" y="881.648" type="line"/>
      <point x="1047.39" y="881.648" type="line"/>
      <point x="697.491" y="133.513" type="line"/>
      <point x="352.199" y="881.648" type="line"/>
      <point x="538.657" y="881.648" type="line"/>
    </contour>
  </outline>
</glyph>
<glyph name="uni0077" format="2">
  <advance width="600"/>
  <unicode hex="0077"/>
  <outline>
    <contour>
      <point x="181" y="430" type="line"/>
      <point x="2" y="430" type="line"/>
      <point x="2" y="383" type="line"/>
      <point x="45" y="383" type="line"/>
      <point x="158" y="0" type="line"/>
      <point x="207" y="0" type="line"/>
      <point x="300" y="258" type="line"/>
      <point x="395" y="0" type="line"/>
      <point x="447" y="0" type="line"/>
      <point x="559" y="383" type="line"/>
      <point x="598" y="383" type="line"/>
      <point x="598" y="430" type="line"/>
      <point x="428" y="430" type="line"/>
      <point x="428" y="383" type="line"/>
      <point x="512" y="383" type="line"/>
      <point x="422" y="76" type="line"/>
      <point x="420" y="76" type="line"/>
      <point x="321" y="352" type="line"/>
      <point x="286" y="352" type="line"/>
      <point x="188" y="80" type="line"/>
      <point x="186" y="80" type="line"/>
      <point x="98" y="383" type="line"/>
      <point x="181" y="383" type="line"/>
    </contour>
  </outline>
</glyph>
<glyph name="uni007A" format="2">
  <advance width="1381"/>
  <unicode hex="007A"/>
  <outline>
    <contour>
      <point x="1141.77" y="989.839" type="line"/>
      <point x="262.423" y="989.839" type="line"/>
      <point x="262.423" y="676.774" type="line"/>
      <point x="370.614" y="676.774" type="line"/>
      <point x="370.614" y="881.648" type="line"/>
      <point x="978.33" y="881.648" type="line"/>
      <point x="239.403" y="108.192" type="line"/>
      <point x="239.403" y="0" type="line"/>
      <point x="1141.77" y="0" type="line"/>
      <point x="1141.77" y="319.971" type="line"/>
      <point x="1033.58" y="319.971" type="line"/>
      <point x="1033.58" y="108.192" type="line"/>
      <point x="395.936" y="108.192" type="line"/>
      <point x="1141.77" y="890.855" type="line"/>
    </contour>
  </outline>
</glyph>
<glyph name="uni007B" format="2">
  <advance width="600"/>
  <unicode hex="007B"/>
  <outline>
    <contour>
      <point x="461" y="604" type="qcurve"/>
      <point x="461" y="652" type="line"/>
      <point x="451" y="652"/>
      <point x="397" y="650"/>
      <point x="340" y="627"/>
      <point x="296" y="575"/>
      <point x="296" y="525" type="qcurve" smooth="yes"/>
      <point x="296" y="516"/>
      <point x="298" y="502"/>
      <point x="301" y="484"/>
      <point x="307" y="458"/>
      <point x="311" y="437" type="qcurve"/>
      <point x="312" y="433"/>
      <point x="315" y="418"/>
      <point x="318" y="398"/>
      <point x="320" y="378"/>
      <point x="320" y="369" type="qcurve" smooth="yes"/>
      <point x="320" y="338"/>
      <point x="273" y="308"/>
      <point x="235" y="304" type="qcurve"/>
      <point x="235" y="253" type="line"/>
      <point x="242" y="252"/>
      <point x="271" y="247"/>
      <point x="299" y="234"/>
      <point x="320" y="210"/>
      <point x="320" y="190" type="qcurve" smooth="yes"/>
      <point x="320" y="173"/>
      <point x="314" y="136"/>
      <point x="311" y="120" type="qcurve"/>
      <point x="310" y="117"/>
      <point x="307" y="106"/>
      <point x="304" y="93"/>
      <point x="302" y="82"/>
      <point x="302" y="79" type="qcurve"/>
      <point x="298" y="62"/>
      <point x="296" y="36"/>
      <point x="296" y="29" type="qcurve" smooth="yes"/>
      <point x="296" y="-11"/>
      <point x="339" y="-74"/>
      <point x="379" y="-87" type="qcurve" smooth="yes"/>
      <point x="403" y="-95"/>
      <point x="421" y="-95" type="qcurve" smooth="yes"/>
      <point x="461" y="-95" type="line"/>
      <point x="461" y="-47" type="line"/>
      <point x="445" y="-47"/>
      <point x="406" y="-44"/>
      <point x="371" y="-30"/>
      <point x="348" y="0"/>
      <point x="348" y="27" type="qcurve" smooth="yes"/>
      <point x="348" y="44"/>
      <point x="352" y="77"/>
      <point x="360" y="109" type="qcurve" smooth="yes"/>
      <point x="368" y="144" type="line"/>
      <point x="369" y="149"/>
      <point x="373" y="176"/>
      <point x="373" y="188" type="qcurve" smooth="yes"/>
      <point x="373" y="206"/>
      <point x="363" y="234"/>
      <point x="346" y="255"/>
      <point x="327" y="271"/>
      <point x="318" y="278" type="qcurve"/>
      <point x="327" y="285"/>
      <point x="347" y="302"/>
      <point x="363" y="323"/>
      <point x="373" y="351"/>
      <point x="373" y="369" type="qcurve" smooth="yes"/>
      <point x="373" y="381"/>
      <point x="369" y="408"/>
      <point x="368" y="413" type="qcurve"/>
      <point x="360" y="448" type="line" smooth="yes"/>
      <point x="352" y="480"/>
      <point x="348" y="513"/>
      <point x="348" y="529" type="qcurve" smooth="yes"/>
      <point x="348" y="556"/>
      <point x="370" y="586"/>
      <point x="403" y="601"/>
      <point x="443" y="604"/>
    </contour>
  </outline>
</glyph>
<glyph name="uni007C" format="2">
  <advance width="600"/>
  <unicode hex="007C"/>
  <outline>
    <contour>
      <point x="327" y="-185" type="line"/>
      <point x="327" y="673" type="line"/>
      <point x="274" y="673" type="line"/>
      <point x="274" y="-185" type="line"/>
    </contour>
  </outline>
</glyph>
<glyph name="uni007D" format="2">
  <advance width="1381"/>
  <unicode hex="007D"/>
  <outline>
    <contour>
      <point x="319.971" y="-108.192" type="qcurve"/>
      <point x="319.971" y="-218.685" type="line"/>
      <point x="342.991" y="-218.685"/>
      <point x="467.296" y="-214.082"/>
      <point x="598.508" y="-163.439"/>
      <point x="699.793" y="-41.4351"/>
      <point x="699.793" y="73.6625" type="qcurve" smooth="yes"/>
      <point x="699.793" y="94.38"/>
      <point x="695.19" y="126.607"/>
      <point x="688.284" y="168.042"/>
      <point x="674.472" y="227.893"/>
      <point x="665.264" y="276.234" type="qcurve"/>
      <point x="662.962" y="285.442"/>
      <point x="656.056" y="319.971"/>
      <point x="649.15" y="366.01"/>
      <point x="644.547" y="412.049"/>
      <point x="644.547" y="432.767" type="qcurve" smooth="yes"/>
      <point x="644.547" y="504.127"/>
      <point x="752.738" y="573.186"/>
      <point x="840.212" y="582.394" type="qcurve"/>
      <point x="840.212" y="699.793" type="line"/>
      <point x="821.797" y="702.095"/>
      <point x="757.342" y="713.605"/>
      <point x="692.888" y="743.53"/>
      <point x="644.547" y="798.777"/>
      <point x="644.547" y="844.816" type="qcurve" smooth="yes"/>
      <point x="644.547" y="883.95"/>
      <point x="658.358" y="969.122"/>
      <point x="665.264" y="1005.95" type="qcurve"/>
      <point x="667.566" y="1012.86"/>
      <point x="674.472" y="1038.18"/>
      <point x="681.378" y="1068.11"/>
      <point x="685.982" y="1093.43"/>
      <point x="685.982" y="1100.33" type="qcurve"/>
      <point x="695.19" y="1139.47"/>
      <point x="699.793" y="1199.32"/>
      <point x="699.793" y="1215.43" type="qcurve" smooth="yes"/>
      <point x="699.793" y="1307.51"/>
      <point x="600.809" y="1452.53"/>
      <point x="508.731" y="1482.46" type="qcurve" smooth="yes"/>
      <point x="453.485" y="1500.87"/>
      <point x="409.747" y="1500.87" type="qcurve" smooth="yes"/>
      <point x="319.971" y="1500.87" type="line"/>
      <point x="319.971" y="1390.38" type="line"/>
      <point x="356.803" y="1390.38"/>
      <point x="446.579" y="1383.47"/>
      <point x="524.845" y="1351.25"/>
      <point x="580.092" y="1282.19"/>
      <point x="580.092" y="1220.03" type="qcurve" smooth="yes"/>
      <point x="580.092" y="1180.9"/>
      <point x="570.884" y="1104.94"/>
      <point x="552.468" y="1031.27" type="qcurve" smooth="yes"/>
      <point x="534.053" y="950.706" type="line"/>
      <point x="531.751" y="939.196"/>
      <point x="522.543" y="877.044"/>
      <point x="522.543" y="849.42" type="qcurve" smooth="yes"/>
      <point x="522.543" y="766.55"/>
      <point x="607.715" y="672.17"/>
      <point x="649.15" y="642.245" type="qcurve"/>
      <point x="628.433" y="626.131"/>
      <point x="582.394" y="586.998"/>
      <point x="545.563" y="538.657"/>
      <point x="522.543" y="474.202"/>
      <point x="522.543" y="432.767" type="qcurve" smooth="yes"/>
      <point x="522.543" y="405.144"/>
      <point x="531.751" y="342.991"/>
      <point x="534.053" y="331.481" type="qcurve"/>
      <point x="552.468" y="250.913" type="line" smooth="yes"/>
      <point x="570.884" y="177.25"/>
      <point x="580.092" y="101.286"/>
      <point x="580.092" y="64.4547" type="qcurve" smooth="yes"/>
      <point x="580.092" y="2.30195"/>
      <point x="529.449" y="-66.7566"/>
      <point x="453.485" y="-101.286"/>
      <point x="361.406" y="-108.192"/>
    </contour>
  </outline>
</glyph>
<glyph name="uni007E" format="2">
  <advance width="600"/>
  <unicode hex="007E"/>
  <outline>
    <contour>
      <point x="515" y="349" type="qcurve"/>
      <point x="481" y="387" type="line"/>
      <point x="480" y="386"/>
      <point x="476" y="380"/>
      <point x="476" y="378" type="qcurve"/>
      <point x="463" y="355"/>
      <point x="438" y="329"/>
      <point x="415" y="315"/>
      <point x="397" y="311"/>
      <point x="391" y="311" type="qcurve" smooth="yes"/>
      <point x="386" y="311"/>
      <point x="375" y="313"/>
      <point x="359" y="319"/>
      <point x="333" y="329"/>
      <point x="313" y="337" type="qcurve"/>
      <point x="274" y="354"/>
      <point x="230" y="369"/>
      <point x="208" y="369" type="qcurve" smooth="yes"/>
      <point x="184" y="369"/>
      <point x="148" y="350"/>
      <point x="119" y="321"/>
      <point x="96" y="285"/>
      <point x="86" y="268" type="qcurve"/>
      <point x="119" y="229" type="line"/>
      <point x="140" y="265"/>
      <point x="178" y="312"/>
      <point x="208" y="312" type="qcurve" smooth="yes"/>
      <point x="215" y="312"/>
      <point x="228" y="310"/>
      <point x="246" y="304"/>
      <point x="274" y="292"/>
      <point x="298" y="282" type="qcurve" smooth="yes"/>
      <point x="324" y="271"/>
      <point x="357" y="260"/>
      <point x="377" y="255"/>
      <point x="388" y="254"/>
      <point x="392" y="254" type="qcurve" smooth="yes"/>
      <point x="417" y="254"/>
      <point x="457" y="276"/>
      <point x="488" y="306"/>
      <point x="509" y="338"/>
    </contour>
  </outline>
</glyph>
<glyph name="uni00A8" format="2">
  <advance width="1381"/>
  <unicode hex="00A8"/>
  <outline>
    <contour>
      <point x="757.342" y="1429.51" type="line"/>
      <point x="757.342" y="1180.9" type="line"/>
      <point x="923.083" y="1180.9" type="line"/>
      <point x="923.083" y="1429.51" type="line"/>
    </contour>
    <contour>
      <point x="458.088" y="1429.51" type="line"/>
      <point x="458.088" y="1180.9" type="line"/>
      <point x="623.829" y="1180.9" type="line"/>
      <point x="623.829" y="1429.51" type="line"/>
    </contour>
  </outline>
</glyph>
<glyph name="uni00A9" format="2">
  <advance width="1381"/>
  <unicode hex="00A9"/>
  <outline>
    <contour>
      <point x="690.586" y="1247.66" type="qcurve" smooth="yes"/>
      <point x="810.287" y="1247.66"/>
      <point x="1022.07" y="1155.58"/>
      <point x="1178.6" y="999.047"/>
      <point x="1270.68" y="784.966"/>
      <point x="1270.68" y="665.264" type="qcurve" smooth="yes"/>
      <point x="1270.68" y="545.563"/>
      <point x="1178.6" y="333.783"/>
      <point x="1019.76" y="177.25"/>
      <point x="810.287" y="85.1722"/>
      <point x="690.586" y="85.1722" type="qcurve" smooth="yes"/>
      <point x="570.884" y="85.1722"/>
      <point x="361.406" y="177.25"/>
      <point x="202.572" y="333.783"/>
      <point x="110.494" y="545.563"/>
      <point x="110.494" y="665.264" type="qcurve" smooth="yes"/>
      <point x="110.494" y="787.268"/>
      <point x="202.572" y="999.047"/>
      <point x="361.406" y="1157.88"/>
      <point x="570.884" y="1247.66"/>
    </contour>
    <contour>
      <point x="690.586" y="1335.13" type="qcurve" smooth="yes"/>
      <point x="554.77" y="1335.13"/>
      <point x="310.764" y="1231.54"/>
      <point x="128.909" y="1051.99"/>
      <point x="23.0195" y="807.985"/>
      <point x="23.0195" y="667.566" type="qcurve" smooth="yes"/>
      <point x="23.0195" y="529.449"/>
      <point x="128.909" y="285.442"/>
      <point x="310.764" y="103.588"/>
      <point x="552.468" y="-2.30195"/>
      <point x="690.586" y="-2.30195" type="qcurve" smooth="yes"/>
      <point x="828.703" y="-2.30195"/>
      <point x="1072.71" y="103.588"/>
      <point x="1252.26" y="285.442"/>
      <point x="1358.15" y="529.449"/>
      <point x="1358.15" y="667.566" type="qcurve" smooth="yes"/>
      <point x="1358.15" y="805.683"/>
      <point x="1252.26" y="1049.69"/>
      <point x="1072.71" y="1231.54"/>
      <point x="828.703" y="1335.13"/>
    </contour>
    <contour>
      <point x="989.839" y="787.268" type="line"/>
      <point x="989.839" y="1010.56" type="line"/>
      <point x="929.989" y="1031.27"/>
      <point x="775.758" y="1061.2"/>
      <point x="718.209" y="1061.2" type="qcurve" smooth="yes"/>
      <point x="619.225" y="1061.2"/>
      <point x="469.598" y="994.443"/>
      <point x="370.614" y="886.252"/>
      <point x="319.971" y="743.53"/>
      <point x="319.971" y="667.566" type="qcurve" smooth="yes"/>
      <point x="319.971" y="586.998"/>
      <point x="370.614" y="444.277"/>
      <point x="467.296" y="336.085"/>
      <point x="603.111" y="271.63"/>
      <point x="688.284" y="271.63" type="qcurve" smooth="yes"/>
      <point x="736.625" y="271.63"/>
      <point x="835.609" y="296.952"/>
      <point x="920.781" y="349.897"/>
      <point x="987.537" y="428.163"/>
      <point x="1008.25" y="483.41" type="qcurve"/>
      <point x="953.008" y="506.429" type="line"/>
      <point x="941.498" y="483.41"/>
      <point x="906.969" y="428.163"/>
      <point x="854.024" y="377.52"/>
      <point x="775.758" y="342.991"/>
      <point x="720.511" y="342.991" type="qcurve" smooth="yes"/>
      <point x="653.754" y="342.991"/>
      <point x="550.167" y="395.936"/>
      <point x="476.504" y="488.014"/>
      <point x="437.371" y="610.017"/>
      <point x="437.371" y="676.774" type="qcurve" smooth="yes"/>
      <point x="437.371" y="741.229"/>
      <point x="474.202" y="856.326"/>
      <point x="547.865" y="943.8"/>
      <point x="656.056" y="994.443"/>
      <point x="727.417" y="994.443" type="qcurve" smooth="yes"/>
      <point x="787.268" y="994.443"/>
      <point x="883.95" y="955.31"/>
      <point x="902.365" y="925.385" type="qcurve" smooth="yes"/>
      <point x="913.875" y="906.969"/>
      <point x="920.781" y="837.911"/>
      <point x="925.385" y="787.268" type="qcurve"/>
    </contour>
  </outline>
</glyph>
<glyph name="uni00AA" format="2">
  <advance width="1381"/>
  <unicode hex="00AA"/>
  <outline>
    <contour>
      <point x="971.424" y="695.19" type="line"/>
      <point x="409.747" y="695.19" type="line"/>
      <point x="409.747" y="612.319" type="line"/>
      <point x="971.424" y="612.319" type="line"/>
    </contour>
    <contour>
      <point x="796.475" y="1045.09" type="qcurve"/>
      <point x="796.475" y="973.726" type="line"/>
      <point x="699.793" y="863.232"/>
      <point x="593.904" y="863.232" type="qcurve" smooth="yes"/>
      <point x="550.167" y="863.232"/>
      <point x="485.712" y="916.177"/>
      <point x="485.712" y="953.008" type="qcurve" smooth="yes"/>
      <point x="485.712" y="1001.35"/>
      <point x="584.696" y="1056.6"/>
      <point x="665.264" y="1056.6" type="qcurve" smooth="yes"/>
      <point x="692.888" y="1056.6"/>
      <point x="748.134" y="1051.99"/>
    </contour>
    <contour>
      <point x="439.673" y="1277.58" type="qcurve"/>
      <point x="471.9" y="1199.32" type="line"/>
      <point x="536.355" y="1226.94"/>
      <point x="628.433" y="1252.26"/>
      <point x="672.17" y="1252.26" type="qcurve" smooth="yes"/>
      <point x="738.927" y="1252.26"/>
      <point x="796.475" y="1201.62"/>
      <point x="796.475" y="1144.07" type="qcurve" smooth="yes"/>
      <point x="796.475" y="1127.96" type="line"/>
      <point x="745.832" y="1134.86"/>
      <point x="688.284" y="1139.47"/>
      <point x="653.754" y="1139.47" type="qcurve" smooth="yes"/>
      <point x="536.355" y="1139.47"/>
      <point x="398.238" y="1035.88"/>
      <point x="398.238" y="953.008" type="qcurve" smooth="yes"/>
      <point x="398.238" y="879.346"/>
      <point x="513.335" y="780.362"/>
      <point x="593.904" y="780.362" type="qcurve" smooth="yes"/>
      <point x="646.849" y="780.362"/>
      <point x="736.625" y="814.891"/>
      <point x="796.475" y="860.93" type="qcurve"/>
      <point x="796.475" y="796.475" type="line"/>
      <point x="982.934" y="796.475" type="line"/>
      <point x="982.934" y="879.346" type="line"/>
      <point x="883.95" y="879.346" type="line"/>
      <point x="883.95" y="1150.98" type="line" smooth="yes"/>
      <point x="883.95" y="1335.13"/>
      <point x="674.472" y="1335.13" type="qcurve" smooth="yes"/>
      <point x="621.527" y="1335.13"/>
      <point x="520.241" y="1309.81"/>
    </contour>
  </outline>
</glyph>
<glyph name="uni00AB" format="2">
  <advance width="533"/>
  <unicode hex="00AB"/>
  <outline>
    <contour>
      <point x="375" y="50" type="line"/>
      <point x="483" y="50" type="line"/>
      <point x="348" y="269" type="line"/>
      <point x="483" y="487" type="line"/>
      <point x="375" y="487" type="line"/>
      <point x="240" y="269" type="line"/>
    </contour>
    <contour>
      <point x="185" y="50" type="line"/>
      <point x="294" y="50" type="line"/>
      <point x="159" y="269" type="line"/>
      <point x="294" y="487" type="line"/>
      <point x="185" y="487" type="line"/>
      <point x="50" y="269" type="line"/>
    </contour>
  </outline>
</glyph>
<glyph name="uni00AF" format="2">
  <advance width="1381"/>
  <unicode hex="00AF"/>
  <outline>
    <contour>
      <point x="1081.92" y="1362.76" type="line"/>
      <point x="299.254" y="1362.76" type="line"/>
      <point x="299.254" y="1247.66" type="line"/>
      <point x="1081.92" y="1247.66" type="line"/>
    </contour>
  </outline>
</glyph>
<glyph name="uni00B0" format="2">
  <advance width="600"/>
  <unicode hex="00B0"/>
  <outline>
    <contour>
      <point x="202" y="468" type="qcurve" smooth="yes"/>
      <point x="202" y="489"/>
      <point x="217" y="525"/>
      <point x="244" y="551"/>
      <point x="279" y="566"/>
      <point x="300" y="566" type="qcurve" smooth="yes"/>
      <point x="342" y="566"/>
      <point x="398" y="510"/>
      <point x="398" y="468" type="qcurve" smooth="yes"/>
      <point x="398" y="447"/>
      <point x="383" y="412"/>
      <point x="357" y="385"/>
      <point x="321" y="370"/>
      <point x="300" y="370" type="qcurve" smooth="yes"/>
      <point x="258" y="370"/>
      <point x="202" y="426"/>
    </contour>
    <contour>
      <point x="147" y="467" type="qcurve" smooth="yes"/>
      <point x="147" y="435"/>
      <point x="171" y="380"/>
      <point x="212" y="339"/>
      <point x="268" y="315"/>
      <point x="300" y="315" type="qcurve" smooth="yes"/>
      <point x="332" y="315"/>
      <point x="388" y="339"/>
      <point x="429" y="381"/>
      <point x="453" y="436"/>
      <point x="453" y="467" type="qcurve" smooth="yes"/>
      <point x="453" y="498"/>
      <point x="430" y="554"/>
      <point x="389" y="596"/>
      <point x="333" y="621"/>
      <point x="300" y="621" type="qcurve" smooth="yes"/>
      <point x="268" y="621"/>
      <point x="212" y="597"/>
      <point x="171" y="555"/>
      <point x="147" y="499"/>
    </contour>
  </outline>
</glyph>
<glyph name="uni00B1" format="2">
  <advance width="600"/>
  <unicode hex="00B1"/>
  <outline>
    <contour>
      <point x="534" y="81" type="line"/>
      <point x="66" y="81" type="line"/>
      <point x="66" y="31" type="line"/>
      <point x="534" y="31" type="line"/>
    </contour>
    <contour>
      <point x="325" y="576" type="line"/>
      <point x="275" y="576" type="line"/>
      <point x="275" y="380" type="line"/>
      <point x="66" y="380" type="line"/>
      <point x="66" y="330" type="line"/>
      <point x="275" y="330" type="line"/>
      <point x="275" y="134" type="line"/>
      <point x="325" y="134" type="line"/>
      <point x="325" y="330" type="line"/>
      <point x="534" y="330" type="line"/>
      <point x="534" y="380" type="line"/>
      <point x="325" y="380" type="line"/>
    </contour>
  </outline>
</glyph>
<glyph name="uni00B3" format="2">
  <advance width="600"/>
  <unicode hex="00B3"/>
  <outline>
    <contour>
      <point x="173" y="579" type="qcurve"/>
      <point x="194" y="545" type="line"/>
      <point x="209" y="555" type="line" smooth="yes"/>
      <point x="232" y="571"/>
      <point x="263" y="581"/>
      <point x="280" y="581" type="qcurve" smooth="yes"/>
      <point x="307" y="581"/>
      <point x="343" y="549"/>
      <point x="343" y="524" type="qcurve" smooth="yes"/>
      <point x="343" y="494"/>
      <point x="318" y="475" type="qcurve" smooth="yes"/>
      <point x="307" y="467"/>
      <point x="283" y="462"/>
      <point x="256" y="461" type="qcurve"/>
      <point x="256" y="421" type="line"/>
      <point x="280" y="421" type="line" smooth="yes"/>
      <point x="319" y="421"/>
      <point x="361" y="386"/>
      <point x="361" y="353" type="qcurve" smooth="yes"/>
      <point x="361" y="321"/>
      <point x="317" y="279"/>
      <point x="282" y="279" type="qcurve" smooth="yes"/>
      <point x="261" y="279"/>
      <point x="214" y="293"/>
      <point x="182" y="308" type="qcurve"/>
      <point x="166" y="271" type="line"/>
      <point x="185" y="263" type="line" smooth="yes"/>
      <point x="219" y="249"/>
      <point x="258" y="239"/>
      <point x="280" y="239" type="qcurve" smooth="yes"/>
      <point x="334" y="239"/>
      <point x="403" y="302"/>
      <point x="403" y="353" type="qcurve" smooth="yes"/>
      <point x="403" y="412"/>
      <point x="347" y="447" type="qcurve"/>
      <point x="385" y="479"/>
      <point x="385" y="525" type="qcurve" smooth="yes"/>
      <point x="385" y="567"/>
      <point x="325" y="621"/>
      <point x="280" y="621" type="qcurve" smooth="yes"/>
      <point x="255" y="621"/>
      <point x="210" y="603"/>
    </contour>
  </outline>
</glyph>
<glyph name="uni00B4" format="2">
  <advance width="600"/>
  <unicode hex="00B4"/>
  <outline>
    <contour>
      <point x="268" y="503" type="line"/>
      <point x="411" y="618" type="line"/>
      <point x="304" y="618" type="line"/>
      <point x="215" y="503" type="line"/>
    </contour>
  </outline>
</glyph>
<glyph name="uni00B8" format="2">
  <advance width="600"/>
  <unicode hex="00B8"/>
  <outline>
    <contour>
      <point x="322" y="-25" type="qcurve"/>
      <point x="325" y="-2" type="line"/>
      <point x="280" y="-2" type="line"/>
      <point x="273" y="-62" type="line"/>
      <point x="302" y="-64"/>
      <point x="345" y="-73"/>
      <point x="345" y="-87" type="qcurve" smooth="yes"/>
      <point x="345" y="-94"/>
      <point x="328" y="-100"/>
      <point x="320" y="-100" type="qcurve" smooth="yes"/>
      <point x="311" y="-100" type="line" smooth="yes"/>
      <point x="279" y="-100"/>
      <point x="225" y="-90"/>
      <point x="209" y="-86" type="qcurve"/>
      <point x="202" y="-130" type="line"/>
      <point x="216" y="-133"/>
      <point x="275" y="-145"/>
      <point x="312" y="-145" type="qcurve" smooth="yes"/>
      <point x="340" y="-145"/>
      <point x="373" y="-130"/>
      <point x="388" y="-111"/>
      <point x="392" y="-92"/>
      <point x="392" y="-87" type="qcurve" smooth="yes"/>
      <point x="392" y="-84"/>
      <point x="389" y="-67"/>
      <point x="375" y="-47"/>
      <point x="347" y="-29"/>
    </contour>
  </outline>
</glyph>
<glyph name="uni00B9" format="2">
  <advance width="1381"/>
  <unicode hex="00B9"/>
  <outline>
    <contour>
      <point x="690.586" y="1429.51" type="line"/>
      <point x="409.747" y="1305.21" type="line"/>
      <point x="446.579" y="1222.34" type="line"/>
      <point x="656.056" y="1314.41" type="line"/>
      <point x="656.056" y="662.962" type="line"/>
      <point x="421.257" y="662.962" type="line"/>
      <point x="421.257" y="570.884" type="line"/>
      <point x="980.632" y="570.884" type="line"/>
      <point x="980.632" y="662.962" type="line"/>
      <point x="750.436" y="662.962" type="line"/>
      <point x="750.436" y="1429.51" type="line"/>
    </contour>
  </outline>
</glyph>
<glyph name="uni00BA" format="2">
  <advance width="1381"/>
  <unicode hex="00BA"/>
  <outline>
    <contour>
      <point x="971.424" y="695.19" type="line"/>
      <point x="409.747" y="695.19" type="line"/>
      <point x="409.747" y="612.319" type="line"/>
      <point x="971.424" y="612.319" type="line"/>
    </contour>
    <contour>
      <point x="488.014" y="1058.9" type="qcurve" smooth="yes"/>
      <point x="488.014" y="1144.07"/>
      <point x="600.809" y="1252.26"/>
      <point x="690.586" y="1252.26" type="qcurve" smooth="yes"/>
      <point x="780.362" y="1252.26"/>
      <point x="893.157" y="1144.07"/>
      <point x="893.157" y="1058.9" type="qcurve" smooth="yes"/>
      <point x="893.157" y="971.424"/>
      <point x="780.362" y="863.232"/>
      <point x="690.586" y="863.232" type="qcurve" smooth="yes"/>
      <point x="600.809" y="863.232"/>
      <point x="488.014" y="971.424"/>
    </contour>
    <contour>
      <point x="395.936" y="1056.6" type="qcurve" smooth="yes"/>
      <point x="395.936" y="932.291"/>
      <point x="559.374" y="780.362"/>
      <point x="690.586" y="780.362" type="qcurve" smooth="yes"/>
      <point x="821.797" y="780.362"/>
      <point x="985.235" y="932.291"/>
      <point x="985.235" y="1056.6" type="qcurve" smooth="yes"/>
      <point x="985.235" y="1180.9"/>
      <point x="821.797" y="1335.13"/>
      <point x="690.586" y="1335.13" type="qcurve" smooth="yes"/>
      <point x="559.374" y="1335.13"/>
      <point x="395.936" y="1180.9"/>
    </contour>
  </outline>
</glyph>
<glyph name="uni00BF" format="2">
  <advance width="1381"/>
  <unicode hex="00BF"/>
  <outline>
    <contour>
      <point x="757.342" y="752.738" type="qcurve" smooth="yes"/>
      <point x="824.099" y="752.738"/>
      <point x="916.177" y="833.307"/>
      <point x="916.177" y="893.157" type="qcurve" smooth="yes"/>
      <point x="916.177" y="955.31"/>
      <point x="821.797" y="1035.88"/>
      <point x="757.342" y="1035.88" type="qcurve" smooth="yes"/>
      <point x="692.888" y="1035.88"/>
      <point x="598.508" y="955.31"/>
      <point x="598.508" y="893.157" type="qcurve" smooth="yes"/>
      <point x="598.508" y="833.307"/>
      <point x="690.586" y="752.738"/>
    </contour>
    <contour>
      <point x="1091.13" y="-241.705" type="qcurve"/>
      <point x="1091.13" y="-6.90586" type="line"/>
      <point x="976.028" y="-6.90586" type="line"/>
      <point x="976.028" y="-154.231" type="line"/>
      <point x="918.479" y="-177.25"/>
      <point x="801.079" y="-209.478"/>
      <point x="715.907" y="-209.478" type="qcurve" smooth="yes"/>
      <point x="619.225" y="-209.478"/>
      <point x="494.92" y="-156.533"/>
      <point x="423.559" y="-75.9644"/>
      <point x="395.936" y="13.8117"/>
      <point x="395.936" y="48.341" type="qcurve" smooth="yes"/>
      <point x="395.936" y="126.607"/>
      <point x="467.296" y="230.195"/>
      <point x="573.186" y="296.952"/>
      <point x="702.095" y="336.085"/>
      <point x="759.644" y="349.897" type="qcurve"/>
      <point x="771.154" y="352.199"/>
      <point x="801.079" y="359.105"/>
      <point x="805.683" y="361.406" type="qcurve"/>
      <point x="805.683" y="584.696" type="line"/>
      <point x="692.888" y="584.696" type="line"/>
      <point x="692.888" y="446.579" type="line"/>
      <point x="635.339" y="430.465"/>
      <point x="490.316" y="379.822"/>
      <point x="363.708" y="292.348"/>
      <point x="276.234" y="156.533"/>
      <point x="276.234" y="55.2468" type="qcurve" smooth="yes"/>
      <point x="276.234" y="-18.4156"/>
      <point x="331.481" y="-154.231"/>
      <point x="441.975" y="-257.819"/>
      <point x="607.715" y="-322.273"/>
      <point x="718.209" y="-322.273" type="qcurve" smooth="yes"/>
      <point x="766.55" y="-322.273"/>
      <point x="851.722" y="-313.065"/>
      <point x="936.894" y="-292.348"/>
      <point x="1031.27" y="-262.423"/>
    </contour>
  </outline>
</glyph>
<glyph name="uni00C5" format="2">
  <advance width="1381"/>
  <unicode hex="00C5"/>
  <outline>
    <contour>
      <point x="692.888" y="1696.54" type="qcurve" smooth="yes"/>
      <point x="729.719" y="1696.54"/>
      <point x="778.06" y="1645.9"/>
      <point x="778.06" y="1609.06" type="qcurve" smooth="yes"/>
      <point x="778.06" y="1572.23"/>
      <point x="729.719" y="1521.59"/>
      <point x="692.888" y="1521.59" type="qcurve" smooth="yes"/>
      <point x="656.056" y="1521.59"/>
      <point x="603.111" y="1572.23"/>
      <point x="603.111" y="1609.06" type="qcurve" smooth="yes"/>
      <point x="603.111" y="1650.5"/>
      <point x="656.056" y="1696.54"/>
    </contour>
    <contour>
      <point x="690.586" y="1784.01" type="qcurve" smooth="yes"/>
      <point x="616.923" y="1784.01"/>
      <point x="515.637" y="1682.73"/>
      <point x="515.637" y="1609.06" type="qcurve" smooth="yes"/>
      <point x="515.637" y="1535.4"/>
      <point x="616.923" y="1434.12"/>
      <point x="690.586" y="1434.12" type="qcurve" smooth="yes"/>
      <point x="764.248" y="1434.12"/>
      <point x="865.534" y="1535.4"/>
      <point x="865.534" y="1609.06" type="qcurve" smooth="yes"/>
      <point x="865.534" y="1682.73"/>
      <point x="764.248" y="1784.01"/>
    </contour>
    <contour>
      <point x="690.586" y="1160.18" type="line"/>
      <point x="950.706" y="529.449" type="line"/>
      <point x="430.465" y="529.449" type="line"/>
    </contour>
    <contour>
      <point x="755.04" y="1296" type="line"/>
      <point x="260.121" y="1296" type="line"/>
      <point x="260.121" y="1187.81" type="line"/>
      <point x="589.3" y="1187.81" type="line"/>
      <point x="145.023" y="108.192" type="line"/>
      <point x="23.0195" y="108.192" type="line"/>
      <point x="23.0195" y="0" type="line"/>
      <point x="494.92" y="0" type="line"/>
      <point x="494.92" y="108.192" type="line"/>
      <point x="260.121" y="108.192" type="line"/>
      <point x="389.03" y="428.163" type="line"/>
      <point x="989.839" y="428.163" type="line"/>
      <point x="1121.05" y="108.192" type="line"/>
      <point x="886.252" y="108.192" type="line"/>
      <point x="886.252" y="0" type="line"/>
      <point x="1358.15" y="0" type="line"/>
      <point x="1358.15" y="108.192" type="line"/>
      <point x="1240.75" y="108.192" type="line"/>
    </contour>
  </outline>
</glyph>
<glyph name="uni00C6" format="2">
  <advance width="600"/>
  <unicode hex="00C6"/>
  <outline>
    <contour>
      <point x="302" y="504" type="line"/>
      <point x="302" y="231" type="line"/>
      <point x="196" y="231" type="line"/>
      <point x="300" y="504" type="line"/>
    </contour>
    <contour>
      <point x="549" y="563" type="line"/>
      <point x="158" y="563" type="line"/>
      <point x="158" y="516" type="line"/>
      <point x="261" y="516" type="line"/>
      <point x="72" y="47" type="line"/>
      <point x="19" y="47" type="line"/>
      <point x="19" y="0" type="line"/>
      <point x="211" y="0" type="line"/>
      <point x="211" y="47" type="line"/>
      <point x="122" y="47" type="line"/>
      <point x="179" y="184" type="line"/>
      <point x="302" y="184" type="line"/>
      <point x="302" y="0" type="line"/>
      <point x="556" y="0" type="line"/>
      <point x="556" y="186" type="line"/>
      <point x="510" y="186" type="line"/>
      <point x="504" y="47" type="line"/>
      <point x="352" y="47" type="line"/>
      <point x="352" y="275" type="line"/>
      <point x="417" y="275" type="line"/>
      <point x="417" y="202" type="line"/>
      <point x="463" y="202" type="line"/>
      <point x="463" y="395" type="line"/>
      <point x="417" y="395" type="line"/>
      <point x="417" y="322" type="line"/>
      <point x="352" y="322" type="line"/>
      <point x="352" y="516" type="line"/>
      <point x="495" y="516" type="line"/>
      <point x="504" y="383" type="line"/>
      <point x="549" y="383" type="line"/>
    </contour>
  </outline>
</glyph>
<glyph name="uni00D7" format="2">
  <advance width="1381"/>
  <unicode hex="00D7"/>
  <outline>
    <contour>
      <point x="271.63" y="1042.78" type="line"/>
      <point x="610.017" y="704.397" type="line"/>
      <point x="271.63" y="368.312" type="line"/>
      <point x="354.501" y="285.442" type="line"/>
      <point x="690.586" y="623.829" type="line"/>
      <point x="1026.67" y="285.442" type="line"/>
      <point x="1109.54" y="368.312" type="line"/>
      <point x="771.154" y="704.397" type="line"/>
      <point x="1109.54" y="1042.78" type="line"/>
      <point x="1026.67" y="1123.35" type="line"/>
      <point x="690.586" y="787.268" type="line"/>
      <point x="354.501" y="1123.35" type="line"/>
    </contour>
  </outline>
</glyph>
<glyph name="uni00D8" format="2">
  <advance width="600"/>
  <unicode hex="00D8"/>
  <outline>
    <contour>
      <point x="431" y="477" type="qcurve"/>
      <point x="148" y="112" type="line"/>
      <point x="133" y="130"/>
      <point x="113" y="178"/>
      <point x="101" y="226"/>
      <point x="97" y="269"/>
      <point x="97" y="283" type="qcurve" smooth="yes"/>
      <point x="97" y="330"/>
      <point x="124" y="419"/>
      <point x="176" y="488"/>
      <point x="251" y="530"/>
      <point x="299" y="530" type="qcurve" smooth="yes"/>
      <point x="312" y="530"/>
      <point x="346" y="526"/>
      <point x="381" y="515"/>
      <point x="416" y="494"/>
    </contour>
    <contour>
      <point x="177" y="78" type="qcurve"/>
      <point x="459" y="441" type="line"/>
      <point x="503" y="368"/>
      <point x="503" y="280" type="qcurve" smooth="yes"/>
      <point x="503" y="229"/>
      <point x="474" y="139"/>
      <point x="421" y="72"/>
      <point x="346" y="33"/>
      <point x="300" y="33" type="qcurve" smooth="yes"/>
      <point x="274" y="33"/>
      <point x="235" y="43"/>
      <point x="205" y="57"/>
      <point x="184" y="72"/>
    </contour>
    <contour>
      <point x="98" y="-23" type="line"/>
      <point x="148" y="37" type="line"/>
      <point x="193" y="1"/>
      <point x="274" y="-17"/>
      <point x="304" y="-17" type="qcurve" smooth="yes"/>
      <point x="362" y="-17"/>
      <point x="456" y="31"/>
      <point x="522" y="112"/>
      <point x="557" y="220"/>
      <point x="557" y="279" type="qcurve" smooth="yes"/>
      <point x="557" y="286"/>
      <point x="555" y="330"/>
      <point x="543" y="390"/>
      <point x="517" y="456"/>
      <point x="493" y="485" type="qcurve"/>
      <point x="537" y="541" type="line"/>
      <point x="502" y="567" type="line"/>
      <point x="463" y="518" type="line"/>
      <point x="452" y="526"/>
      <point x="425" y="548"/>
      <point x="386" y="567"/>
      <point x="335" y="580"/>
      <point x="301" y="580" type="qcurve" smooth="yes"/>
      <point x="241" y="580"/>
      <point x="146" y="533"/>
      <point x="79" y="451"/>
      <point x="43" y="342"/>
      <point x="43" y="280" type="qcurve" smooth="yes"/>
      <point x="43" y="241"/>
      <point x="55" y="178"/>
      <point x="75" y="127"/>
      <point x="101" y="86"/>
      <point x="114" y="69" type="qcurve"/>
      <point x="64" y="4" type="line"/>
    </contour>
  </outline>
</glyph>
<glyph name="uni00E5" format="2">
  <advance width="600"/>
  <unicode hex="00E5"/>
  <outline>
    <contour>
      <point x="301" y="604" type="qcurve" smooth="yes"/>
      <point x="317" y="604"/>
      <point x="338" y="582"/>
      <point x="338" y="566" type="qcurve" smooth="yes"/>
      <point x="338" y="550"/>
      <point x="317" y="528"/>
      <point x="301" y="528" type="qcurve" smooth="yes"/>
      <point x="285" y="528"/>
      <point x="262" y="550"/>
      <point x="262" y="566" type="qcurve" smooth="yes"/>
      <point x="262" y="584"/>
      <point x="285" y="604"/>
    </contour>
    <contour>
      <point x="300" y="642" type="qcurve" smooth="yes"/>
      <point x="268" y="642"/>
      <point x="224" y="598"/>
      <point x="224" y="566" type="qcurve" smooth="yes"/>
      <point x="224" y="534"/>
      <point x="268" y="490"/>
      <point x="300" y="490" type="qcurve" smooth="yes"/>
      <point x="332" y="490"/>
      <point x="376" y="534"/>
      <point x="376" y="566" type="qcurve" smooth="yes"/>
      <point x="376" y="598"/>
      <point x="332" y="642"/>
    </contour>
    <contour>
      <point x="411" y="219" type="qcurve"/>
      <point x="411" y="139" type="line"/>
      <point x="379" y="103"/>
      <point x="320" y="61"/>
      <point x="270" y="40"/>
      <point x="231" y="34"/>
      <point x="219" y="34" type="qcurve" smooth="yes"/>
      <point x="198" y="34"/>
      <point x="160" y="49"/>
      <point x="130" y="74"/>
      <point x="113" y="107"/>
      <point x="113" y="126" type="qcurve" smooth="yes"/>
      <point x="113" y="130"/>
      <point x="119" y="164"/>
      <point x="151" y="201"/>
      <point x="219" y="230"/>
      <point x="281" y="230" type="qcurve" smooth="yes"/>
      <point x="323" y="230"/>
      <point x="394" y="222"/>
    </contour>
    <contour>
      <point x="461" y="47" type="line"/>
      <point x="461" y="296" type="line" smooth="yes"/>
      <point x="461" y="311"/>
      <point x="456" y="362"/>
      <point x="424" y="413"/>
      <point x="355" y="450"/>
      <point x="291" y="450" type="qcurve" smooth="yes"/>
      <point x="231" y="450"/>
      <point x="132" y="419"/>
      <point x="100" y="405" type="qcurve"/>
      <point x="119" y="360" type="line"/>
      <point x="179" y="386"/>
      <point x="263" y="402"/>
      <point x="290" y="402" type="qcurve" smooth="yes"/>
      <point x="335" y="402"/>
      <point x="385" y="378"/>
      <point x="407" y="344"/>
      <point x="411" y="308"/>
      <point x="411" y="296" type="qcurve" smooth="yes"/>
      <point x="411" y="265" type="line"/>
      <point x="388" y="269"/>
      <point x="341" y="274"/>
      <point x="302" y="277"/>
      <point x="274" y="278"/>
      <point x="271" y="278" type="qcurve" smooth="yes"/>
      <point x="209" y="278"/>
      <point x="127" y="246"/>
      <point x="79" y="199"/>
      <point x="59" y="147"/>
      <point x="59" y="127" type="qcurve" smooth="yes"/>
      <point x="59" y="101"/>
      <point x="81" y="51"/>
      <point x="123" y="11"/>
      <point x="182" y="-14"/>
      <point x="220" y="-14" type="qcurve" smooth="yes"/>
      <point x="251" y="-14"/>
      <point x="307" y="2"/>
      <point x="355" y="27"/>
      <point x="396" y="58"/>
      <point x="411" y="72" type="qcurve"/>
      <point x="411" y="0" type="line"/>
      <point x="550" y="0" type="line"/>
      <point x="550" y="47" type="line"/>
    </contour>
  </outline>
</glyph>
<glyph name="uni00E6" format="2">
  <advance width="1381"/>
  <unicode hex="00E6"/>
  <outline>
    <contour>
      <point x="1180.9" y="575.488" type="qcurve"/>
      <point x="736.625" y="575.488" type="line"/>
      <point x="738.927" y="649.15"/>
      <point x="757.342" y="771.154"/>
      <point x="807.985" y="833.307" type="qcurve" smooth="yes"/>
      <point x="833.307" y="863.232"/>
      <point x="916.177" y="925.385"/>
      <point x="976.028" y="925.385" type="qcurve" smooth="yes"/>
      <point x="1072.71" y="925.385"/>
      <point x="1176.3" y="748.134"/>
    </contour>
    <contour>
      <point x="621.527" y="481.108" type="qcurve"/>
      <point x="621.527" y="204.874" type="line"/>
      <point x="603.111" y="188.76"/>
      <point x="547.865" y="145.023"/>
      <point x="481.108" y="103.588"/>
      <point x="400.54" y="75.9644"/>
      <point x="359.105" y="75.9644" type="qcurve" smooth="yes"/>
      <point x="315.367" y="75.9644"/>
      <point x="253.215" y="110.494"/>
      <point x="211.78" y="165.741"/>
      <point x="191.062" y="232.497"/>
      <point x="191.062" y="267.026" type="qcurve" smooth="yes"/>
      <point x="191.062" y="296.952"/>
      <point x="211.78" y="379.822"/>
      <point x="269.328" y="451.183"/>
      <point x="368.312" y="501.826"/>
      <point x="446.579" y="501.826" type="qcurve" smooth="yes"/>
      <point x="485.712" y="501.826"/>
      <point x="561.676" y="492.618"/>
    </contour>
    <contour>
      <point x="736.625" y="467.296" type="qcurve"/>
      <point x="1296" y="467.296" type="line"/>
      <point x="1302.9" y="607.715"/>
      <point x="1266.07" y="801.079"/>
      <point x="1201.62" y="927.687"/>
      <point x="1121.05" y="996.745"/>
      <point x="1045.09" y="1028.97"/>
      <point x="987.537" y="1035.88"/>
      <point x="978.33" y="1035.88" type="qcurve" smooth="yes"/>
      <point x="923.083" y="1035.88"/>
      <point x="837.911" y="999.047"/>
      <point x="771.154" y="948.404"/>
      <point x="722.813" y="886.252"/>
      <point x="704.397" y="863.232" type="qcurve"/>
      <point x="692.888" y="897.761"/>
      <point x="658.358" y="959.914"/>
      <point x="603.111" y="1008.25"/>
      <point x="517.939" y="1035.88"/>
      <point x="455.786" y="1035.88" type="qcurve" smooth="yes"/>
      <point x="384.426" y="1035.88"/>
      <point x="241.705" y="1001.35"/>
      <point x="145.023" y="964.518" type="qcurve"/>
      <point x="177.25" y="863.232" type="line"/>
      <point x="273.932" y="897.761"/>
      <point x="393.634" y="925.385"/>
      <point x="453.485" y="925.385" type="qcurve" smooth="yes"/>
      <point x="506.429" y="925.385"/>
      <point x="570.884" y="890.855"/>
      <point x="607.715" y="826.401"/>
      <point x="621.527" y="732.021"/>
      <point x="621.527" y="672.17" type="qcurve" smooth="yes"/>
      <point x="621.527" y="591.602" type="line"/>
      <point x="557.072" y="600.809"/>
      <point x="483.41" y="612.319"/>
      <point x="444.277" y="612.319" type="qcurve" smooth="yes"/>
      <point x="349.897" y="612.319"/>
      <point x="211.78" y="547.865"/>
      <point x="122.003" y="448.881"/>
      <point x="75.9644" y="324.575"/>
      <point x="75.9644" y="267.026" type="qcurve" smooth="yes"/>
      <point x="75.9644" y="209.478"/>
      <point x="112.796" y="101.286"/>
      <point x="186.458" y="16.1137"/>
      <point x="292.348" y="-34.5293"/>
      <point x="361.406" y="-34.5293" type="qcurve" smooth="yes"/>
      <point x="391.332" y="-34.5293"/>
      <point x="464.994" y="-20.7176"/>
      <point x="552.468" y="16.1137"/>
      <point x="651.452" y="85.1722"/>
      <point x="704.397" y="138.117" type="qcurve"/>
      <point x="715.907" y="122.003"/>
      <point x="759.644" y="64.4547"/>
      <point x="831.005" y="9.20781"/>
      <point x="932.291" y="-32.2273"/>
      <point x="1001.35" y="-32.2273" type="qcurve" smooth="yes"/>
      <point x="1031.27" y="-32.2273"/>
      <point x="1183.2" y="-13.8117"/>
      <point x="1307.51" y="29.9254" type="qcurve"/>
      <point x="1266.07" y="128.909" type="line"/>
      <point x="1208.52" y="110.494"/>
      <point x="1075.01" y="78.2664"/>
      <point x="1005.95" y="78.2664" type="qcurve" smooth="yes"/>
      <point x="973.726" y="78.2664"/>
      <point x="863.232" y="105.89"/>
      <point x="810.287" y="174.948" type="qcurve" smooth="yes"/>
      <point x="764.248" y="234.799"/>
      <point x="741.229" y="368.312"/>
    </contour>
  </outline>
</glyph>
<glyph name="uni00E7" format="2">
  <advance width="600"/>
  <unicode hex="00E7"/>
  <outline>
    <contour>
      <point x="330" y="-26" type="qcurve"/>
      <point x="330" y="-13" type="line"/>
      <point x="362" y="-10"/>
      <point x="417" y="6"/>
      <point x="469" y="30"/>
      <point x="521" y="62"/>
      <point x="549" y="83" type="qcurve"/>
      <point x="523" y="121" type="line"/>
      <point x="468" y="83"/>
      <point x="365" y="36"/>
      <point x="311" y="36" type="qcurve" smooth="yes"/>
      <point x="262" y="36"/>
      <point x="192" y="69"/>
      <point x="147" y="121"/>
      <point x="125" y="185"/>
      <point x="125" y="217" type="qcurve" smooth="yes"/>
      <point x="125" y="250"/>
      <point x="148" y="313"/>
      <point x="196" y="364"/>
      <point x="267" y="395"/>
      <point x="315" y="395" type="qcurve" smooth="yes"/>
      <point x="325" y="395"/>
      <point x="353" y="393"/>
      <point x="384" y="386"/>
      <point x="416" y="373"/>
      <point x="430" y="362" type="qcurve"/>
      <point x="449" y="346"/>
      <point x="463" y="307"/>
      <point x="471" y="273" type="qcurve"/>
      <point x="517" y="280" type="line"/>
      <point x="514" y="319"/>
      <point x="514" y="346" type="qcurve" smooth="yes"/>
      <point x="514" y="372"/>
      <point x="521" y="423"/>
      <point x="523" y="438" type="qcurve"/>
      <point x="477" y="443" type="line"/>
      <point x="469" y="402" type="line"/>
      <point x="468" y="400"/>
      <point x="464" y="389"/>
      <point x="461" y="389" type="qcurve"/>
      <point x="461" y="389"/>
      <point x="458" y="391" type="qcurve" smooth="yes"/>
      <point x="455" y="393"/>
      <point x="448" y="398"/>
      <point x="441" y="403"/>
      <point x="440" y="404" type="qcurve"/>
      <point x="409" y="426"/>
      <point x="349" y="445"/>
      <point x="310" y="445" type="qcurve" smooth="yes"/>
      <point x="248" y="445"/>
      <point x="158" y="403"/>
      <point x="100" y="337"/>
      <point x="71" y="256"/>
      <point x="71" y="216" type="qcurve" smooth="yes"/>
      <point x="71" y="163"/>
      <point x="109" y="79"/>
      <point x="170" y="20"/>
      <point x="247" y="-12"/>
      <point x="286" y="-13" type="qcurve"/>
      <point x="282" y="-67" type="line"/>
      <point x="287" y="-66"/>
      <point x="297" y="-65"/>
      <point x="305" y="-65" type="qcurve" smooth="yes"/>
      <point x="309" y="-65"/>
      <point x="326" y="-69"/>
      <point x="326" y="-82" type="qcurve" smooth="yes"/>
      <point x="326" y="-87"/>
      <point x="319" y="-100"/>
      <point x="307" y="-100" type="qcurve" smooth="yes"/>
      <point x="300" y="-100"/>
      <point x="291" y="-96"/>
      <point x="275" y="-85" type="qcurve"/>
      <point x="253" y="-122" type="line"/>
      <point x="265" y="-130"/>
      <point x="291" y="-144"/>
      <point x="311" y="-144" type="qcurve" smooth="yes"/>
      <point x="329" y="-144"/>
      <point x="352" y="-131"/>
      <point x="365" y="-111"/>
      <point x="371" y="-89"/>
      <point x="371" y="-81" type="qcurve" smooth="yes"/>
      <point x="371" y="-64"/>
      <point x="351" y="-31"/>
    </contour>
  </outline>
</glyph>
<glyph name="uni00EC" format="2">
  <advance width="1381"/>
  <unicode hex="00EC"/>
  <outline>
    <contour>
      <point x="752.738" y="989.839" type="line"/>
      <point x="299.254" y="989.839" type="line"/>
      <point x="299.254" y="881.648" type="line"/>
      <point x="637.641" y="881.648" type="line"/>
      <point x="637.641" y="108.192" type="line"/>
      <point x="232.497" y="108.192" type="line"/>
      <point x="232.497" y="0" type="line"/>
      <point x="1150.98" y="0" type="line"/>
      <point x="1150.98" y="108.192" type="line"/>
      <point x="752.738" y="108.192" type="line"/>
    </contour>
    <contour>
      <point x="683.68" y="1422.61" type="line"/>
      <point x="437.371" y="1422.61" type="line"/>
      <point x="741.229" y="1157.88" type="line"/>
      <point x="860.93" y="1157.88" type="line"/>
    </contour>
  </outline>
</glyph>
<glyph name="uni00ED" format="2">
  <advance width="1381"/>
  <unicode hex="00ED"/>
  <outline>
    <contour>
      <point x="752.738" y="989.839" type="line"/>
      <point x="299.254" y="989.839" type="line"/>
      <point x="299.254" y="881.648" type="line"/>
      <point x="637.641" y="881.648" type="line"/>
      <point x="637.641" y="108.192" type="line"/>
      <point x="232.497" y="108.192" type="line"/>
      <point x="232.497" y="0" type="line"/>
      <point x="1150.98" y="0" type="line"/>
      <point x="1150.98" y="108.192" type="line"/>
      <point x="752.738" y="108.192" type="line"/>
    </contour>
    <contour>
      <point x="616.923" y="1157.88" type="line"/>
      <point x="946.102" y="1422.61" type="line"/>
      <point x="699.793" y="1422.61" type="line"/>
      <point x="494.92" y="1157.88" type="line"/>
    </contour>
  </outline>
</glyph>
<glyph name="uni00EE" format="2">
  <advance width="600"/>
  <unicode hex="00EE"/>
  <outline>
    <contour>
      <point x="327" y="430" type="line"/>
      <point x="130" y="430" type="line"/>
      <point x="130" y="383" type="line"/>
      <point x="277" y="383" type="line"/>
      <point x="277" y="47" type="line"/>
      <point x="101" y="47" type="line"/>
      <point x="101" y="0" type="line"/>
      <point x="500" y="0" type="line"/>
      <point x="500" y="47" type="line"/>
      <point x="327" y="47" type="line"/>
    </contour>
    <contour>
      <point x="336" y="621" type="line"/>
      <point x="259" y="621" type="line"/>
      <point x="171" y="526" type="line"/>
      <point x="204" y="502" type="line"/>
      <point x="295" y="568" type="line"/>
      <point x="396" y="502" type="line"/>
      <point x="428" y="527" type="line"/>
    </contour>
  </outline>
</glyph>
<glyph name="uni00EF" format="2">
  <advance width="600"/>
  <unicode hex="00EF"/>
  <outline>
    <contour>
      <point x="327" y="430" type="line"/>
      <point x="130" y="430" type="line"/>
      <point x="130" y="383" type="line"/>
      <point x="277" y="383" type="line"/>
      <point x="277" y="47" type="line"/>
      <point x="101" y="47" type="line"/>
      <point x="101" y="0" type="line"/>
      <point x="500" y="0" type="line"/>
      <point x="500" y="47" type="line"/>
      <point x="327" y="47" type="line"/>
    </contour>
    <contour>
      <point x="329" y="621" type="line"/>
      <point x="329" y="513" type="line"/>
      <point x="401" y="513" type="line"/>
      <point x="401" y="621" type="line"/>
    </contour>
    <contour>
      <point x="199" y="621" type="line"/>
      <point x="199" y="513" type="line"/>
      <point x="271" y="513" type="line"/>
      <point x="271" y="621" type="line"/>
    </contour>
  </outline>
</glyph>
<glyph name="uni00F8" format="2">
  <advance width="1381"/>
  <unicode hex="00F8"/>
  <outline>
    <contour>
      <point x="955.31" y="849.42" type="qcurve"/>
      <point x="331.481" y="241.705" type="line"/>
      <point x="278.536" y="308.462"/>
      <point x="244.007" y="455.786"/>
      <point x="244.007" y="501.826" type="qcurve" smooth="yes"/>
      <point x="244.007" y="580.092"/>
      <point x="299.254" y="729.719"/>
      <point x="412.049" y="847.118"/>
      <point x="580.092" y="920.781"/>
      <point x="690.586" y="920.781" type="qcurve" smooth="yes"/>
      <point x="743.53" y="920.781"/>
      <point x="819.495" y="909.271"/>
      <point x="877.044" y="888.553"/>
      <point x="927.687" y="863.232"/>
    </contour>
    <contour>
      <point x="423.559" y="156.533" type="qcurve"/>
      <point x="1045.09" y="764.248" type="line"/>
      <point x="1137.16" y="651.452"/>
      <point x="1137.16" y="501.826" type="qcurve" smooth="yes"/>
      <point x="1137.16" y="421.257"/>
      <point x="1079.62" y="271.63"/>
      <point x="969.122" y="154.231"/>
      <point x="801.079" y="82.8703"/>
      <point x="690.586" y="82.8703" type="qcurve" smooth="yes"/>
      <point x="630.735" y="82.8703"/>
      <point x="547.865" y="96.682"/>
      <point x="488.014" y="117.4"/>
      <point x="444.277" y="142.721"/>
    </contour>
    <contour>
      <point x="227.893" y="-32.2273" type="line"/>
      <point x="333.783" y="73.6625" type="line"/>
      <point x="389.03" y="34.5293"/>
      <point x="508.731" y="-9.20781"/>
      <point x="610.017" y="-29.9254"/>
      <point x="683.68" y="-32.2273"/>
      <point x="695.19" y="-32.2273" type="qcurve" smooth="yes"/>
      <point x="831.005" y="-32.2273"/>
      <point x="1042.78" y="55.2468"/>
      <point x="1187.81" y="204.874"/>
      <point x="1261.47" y="398.238"/>
      <point x="1261.47" y="501.826" type="qcurve" smooth="yes"/>
      <point x="1261.47" y="527.147"/>
      <point x="1252.26" y="607.715"/>
      <point x="1226.94" y="702.095"/>
      <point x="1176.3" y="805.683"/>
      <point x="1134.86" y="854.024" type="qcurve"/>
      <point x="1240.75" y="959.914" type="line"/>
      <point x="1153.28" y="1047.39" type="line"/>
      <point x="1040.48" y="932.291" type="line"/>
      <point x="966.82" y="992.141"/>
      <point x="771.154" y="1035.88"/>
      <point x="690.586" y="1035.88" type="qcurve" smooth="yes"/>
      <point x="547.865" y="1035.88"/>
      <point x="336.085" y="943.8"/>
      <point x="191.062" y="796.475"/>
      <point x="119.702" y="603.111"/>
      <point x="119.702" y="504.127" type="qcurve" smooth="yes"/>
      <point x="119.702" y="476.504"/>
      <point x="128.909" y="398.238"/>
      <point x="156.533" y="306.16"/>
      <point x="204.874" y="207.176"/>
      <point x="244.007" y="158.835" type="qcurve"/>
      <point x="138.117" y="52.9449" type="line"/>
    </contour>
  </outline>
</glyph>
<glyph name="uni00FE" format="2">
  <advance width="600"/>
  <unicode hex="00FE"/>
  <outline>
    <contour>
      <point x="147" y="222" type="qcurve" smooth="yes"/>
      <point x="147" y="256"/>
      <point x="174" y="319"/>
      <point x="221" y="365"/>
      <point x="287" y="393"/>
      <point x="326" y="393" type="qcurve" smooth="yes"/>
      <point x="368" y="393"/>
      <point x="431" y="362"/>
      <point x="473" y="313"/>
      <point x="494" y="251"/>
      <point x="494" y="220" type="qcurve" smooth="yes"/>
      <point x="494" y="182"/>
      <point x="466" y="117"/>
      <point x="420" y="70"/>
      <point x="359" y="43"/>
      <point x="325" y="43" type="qcurve" smooth="yes"/>
      <point x="296" y="43"/>
      <point x="233" y="66"/>
      <point x="181" y="111"/>
      <point x="147" y="178"/>
    </contour>
    <contour>
      <point x="151" y="359" type="line"/>
      <point x="151" y="629" type="line"/>
      <point x="12" y="620" type="line"/>
      <point x="12" y="573" type="line"/>
      <point x="101" y="577" type="line"/>
      <point x="101" y="-110" type="line"/>
      <point x="19" y="-110" type="line"/>
      <point x="19" y="-157" type="line"/>
      <point x="300" y="-157" type="line"/>
      <point x="300" y="-110" type="line"/>
      <point x="151" y="-110" type="line"/>
      <point x="151" y="79" type="line"/>
      <point x="153" y="79" type="line"/>
      <point x="179" y="47"/>
      <point x="235" y="12"/>
      <point x="285" y="-4"/>
      <point x="321" y="-7"/>
      <point x="327" y="-7" type="qcurve" smooth="yes"/>
      <point x="367" y="-7"/>
      <point x="447" y="26"/>
      <point x="509" y="85"/>
      <point x="548" y="168"/>
      <point x="548" y="219" type="qcurve" smooth="yes"/>
      <point x="548" y="262"/>
      <point x="516" y="343"/>
      <point x="458" y="405"/>
      <point x="376" y="443"/>
      <point x="325" y="443" type="qcurve" smooth="yes"/>
      <point x="285" y="443"/>
      <point x="226" y="423"/>
      <point x="184" y="396"/>
      <point x="159" y="368"/>
      <point x="153" y="359" type="qcurve"/>
    </contour>
  </outline>
</glyph>
<glyph name="uni0161" format="2">
  <advance width="600"/>
  <unicode hex="0161"/>
  <outline>
    <contour>
      <point x="264" y="509" type="line"/>
      <point x="340" y="509" type="line"/>
      <point x="428" y="603" type="line"/>
      <point x="396" y="628" type="line"/>
      <point x="304" y="562" type="line"/>
      <point x="203" y="627" type="line"/>
      <point x="171" y="603" type="line"/>
    </contour>
    <contour>
      <point x="482" y="443" type="qcurve"/>
      <point x="437" y="450" type="line"/>
      <point x="435" y="445"/>
      <point x="433" y="439"/>
      <point x="431" y="429" type="qcurve"/>
      <point x="429" y="424"/>
      <point x="421" y="405"/>
      <point x="413" y="405" type="qcurve" smooth="yes"/>
      <point x="407" y="405"/>
      <point x="393" y="412"/>
      <point x="391" y="414" type="qcurve"/>
      <point x="377" y="422"/>
      <point x="321" y="443"/>
      <point x="276" y="443" type="qcurve" smooth="yes"/>
      <point x="237" y="443"/>
      <point x="171" y="424"/>
      <point x="125" y="390"/>
      <point x="99" y="344"/>
      <point x="99" y="317" type="qcurve" smooth="yes"/>
      <point x="99" y="272"/>
      <point x="149" y="221"/>
      <point x="217" y="196"/>
      <point x="287" y="189"/>
      <point x="307" y="188" type="qcurve" smooth="yes"/>
      <point x="338" y="187"/>
      <point x="391" y="183"/>
      <point x="429" y="170"/>
      <point x="450" y="144"/>
      <point x="450" y="122" type="qcurve" smooth="yes"/>
      <point x="450" y="93"/>
      <point x="415" y="59"/>
      <point x="367" y="41"/>
      <point x="317" y="35"/>
      <point x="302" y="35" type="qcurve" smooth="yes"/>
      <point x="250" y="35"/>
      <point x="188" y="63"/>
      <point x="155" y="101"/>
      <point x="143" y="141"/>
      <point x="141" y="154" type="qcurve"/>
      <point x="97" y="149" type="line"/>
      <point x="99" y="132"/>
      <point x="103" y="82"/>
      <point x="103" y="50" type="qcurve" smooth="yes"/>
      <point x="103" y="25"/>
      <point x="99" y="0"/>
      <point x="97" y="-13" type="qcurve"/>
      <point x="141" y="-13" type="line"/>
      <point x="146" y="4"/>
      <point x="154" y="29"/>
      <point x="161" y="29" type="qcurve"/>
      <point x="163" y="29"/>
      <point x="164" y="28" type="qcurve"/>
      <point x="166" y="27" type="line"/>
      <point x="175" y="22"/>
      <point x="202" y="8"/>
      <point x="240" y="-6"/>
      <point x="286" y="-15"/>
      <point x="313" y="-15" type="qcurve" smooth="yes"/>
      <point x="346" y="-15"/>
      <point x="413" y="1"/>
      <point x="469" y="35"/>
      <point x="504" y="88"/>
      <point x="504" y="124" type="qcurve" smooth="yes"/>
      <point x="504" y="163"/>
      <point x="465" y="208"/>
      <point x="415" y="230"/>
      <point x="368" y="236"/>
      <point x="359" y="236" type="qcurve"/>
      <point x="315" y="238"/>
      <point x="240" y="244"/>
      <point x="184" y="261"/>
      <point x="153" y="292"/>
      <point x="153" y="319" type="qcurve" smooth="yes"/>
      <point x="153" y="350"/>
      <point x="217" y="393"/>
      <point x="277" y="393" type="qcurve" smooth="yes"/>
      <point x="329" y="393"/>
      <point x="389" y="371"/>
      <point x="420" y="340"/>
      <point x="431" y="304"/>
      <point x="434" y="289" type="qcurve"/>
      <point x="478" y="294" type="line"/>
      <point x="476" y="307"/>
      <point x="473" y="336"/>
      <point x="473" y="357" type="qcurve" smooth="yes"/>
      <point x="473" y="386"/>
      <point x="479" y="427"/>
    </contour>
  </outline>
</glyph>
<glyph name="uni02C6" format="2">
  <advance width="600"/>
  <unicode hex="02C6"/>
  <outline>
    <contour>
      <point x="336" y="621" type="line"/>
      <point x="259" y="621" type="line"/>
      <point x="171" y="526" type="line"/>
      <point x="204" y="502" type="line"/>
      <point x="295" y="568" type="line"/>
      <point x="396" y="502" type="line"/>
      <point x="428" y="527" type="line"/>
    </contour>
  </outline>
</glyph>
<glyph name="uni02DC" format="2">
  <advance width="1381"/>
  <unicode hex="02DC"/>
  <outline>
    <contour>
      <point x="1058.9" y="1394.98" type="qcurve"/>
      <point x="966.82" y="1424.91" type="line"/>
      <point x="959.914" y="1406.49"/>
      <point x="941.498" y="1360.45"/>
      <point x="909.271" y="1316.72"/>
      <point x="865.534" y="1286.79"/>
      <point x="835.609" y="1286.79" type="qcurve" smooth="yes"/>
      <point x="810.287" y="1286.79"/>
      <point x="752.738" y="1316.72"/>
      <point x="709.001" y="1348.94" type="qcurve"/>
      <point x="672.17" y="1381.17"/>
      <point x="593.904" y="1427.21"/>
      <point x="538.657" y="1427.21" type="qcurve" smooth="yes"/>
      <point x="453.485" y="1427.21"/>
      <point x="354.501" y="1309.81"/>
      <point x="322.273" y="1222.34" type="qcurve"/>
      <point x="414.351" y="1190.11" type="line"/>
      <point x="414.351" y="1190.11"/>
      <point x="416.653" y="1197.02" type="qcurve"/>
      <point x="418.955" y="1201.62"/>
      <point x="418.955" y="1203.92" type="qcurve"/>
      <point x="437.371" y="1249.96"/>
      <point x="492.618" y="1323.62"/>
      <point x="538.657" y="1323.62" type="qcurve" smooth="yes"/>
      <point x="563.978" y="1323.62"/>
      <point x="610.017" y="1298.3"/>
      <point x="665.264" y="1256.87" type="qcurve" smooth="yes"/>
      <point x="718.209" y="1215.43"/>
      <point x="789.57" y="1183.2"/>
      <point x="828.703" y="1183.2" type="qcurve" smooth="yes"/>
      <point x="902.365" y="1183.2"/>
      <point x="1026.67" y="1282.19"/>
      <point x="1054.29" y="1378.87" type="qcurve"/>
      <point x="1054.29" y="1390.38"/>
    </contour>
  </outline>
</glyph>
<glyph name="uni1200" format="2">
  <advance width="615"/>
  <unicode hex="1200"/>
  <outline>
    <contour>
      <point x="220" y="647" type="line"/>
      <point x="220" y="60" type="line" smooth="yes"/>
      <point x="220" y="45"/>
      <point x="270" y="21"/>
      <point x="309" y="21" type="qcurve" smooth="yes"/>
      <point x="343" y="21"/>
      <point x="395" y="44"/>
      <point x="395" y="56" type="qcurve" smooth="yes"/>
      <point x="395" y="621" type="line"/>
      <point x="345" y="621" type="line"/>
      <point x="345" y="647" type="line"/>
      <point x="575" y="647" type="line"/>
      <point x="575" y="621" type="line"/>
      <point x="525" y="621" type="line"/>
      <point x="525" y="180" type="line" smooth="yes"/>
      <point x="525" y="86"/>
      <point x="417" y="0"/>
      <point x="308" y="0" type="qcurve" smooth="yes"/>
      <point x="275" y="0"/>
      <point x="205" y="-1"/>
      <point x="144" y="-5"/>
      <point x="99" y="-14"/>
      <point x="90" y="-23" type="qcurve"/>
      <point x="90" y="595" type="line" smooth="yes"/>
      <point x="90" y="602"/>
      <point x="81" y="621"/>
      <point x="66" y="621" type="qcurve" smooth="yes"/>
      <point x="40" y="621" type="line"/>
      <point x="40" y="647" type="line"/>
    </contour>
  </outline>
</glyph>
<glyph name="uni1201" format="2">
  <advance width="1410"/>
  <unicode hex="1201"/>
  <outline>
    <contour>
      <point x="1084.88" y="756.314" type="line"/>
      <point x="1084.88" y="371.958" type="line" smooth="yes"/>
      <point x="1084.88" y="177.713"/>
      <point x="861.702" y="0"/>
      <point x="636.461" y="0" type="qcurve" smooth="yes"/>
      <point x="564.136" y="0"/>
      <point x="423.619" y="-4.13286"/>
      <point x="303.766" y="-16.5315"/>
      <point x="210.776" y="-45.4615"/>
      <point x="185.979" y="-70.2587" type="qcurve"/>
      <point x="185.979" y="1229.53" type="line" smooth="yes"/>
      <point x="185.979" y="1243.99"/>
      <point x="167.381" y="1283.25"/>
      <point x="136.385" y="1283.25" type="qcurve" smooth="yes"/>
      <point x="82.6573" y="1283.25" type="line"/>
      <point x="82.6573" y="1336.98" type="line"/>
      <point x="454.615" y="1336.98" type="line"/>
      <point x="454.615" y="123.986" type="line" smooth="yes"/>
      <point x="454.615" y="92.9894"/>
      <point x="557.937" y="43.3951"/>
      <point x="638.527" y="43.3951" type="qcurve" smooth="yes"/>
      <point x="708.786" y="43.3951"/>
      <point x="816.241" y="90.923"/>
      <point x="816.241" y="115.72" type="qcurve" smooth="yes"/>
      <point x="816.241" y="1283.25" type="line"/>
      <point x="712.919" y="1283.25" type="line"/>
      <point x="712.919" y="1336.98" type="line"/>
      <point x="1188.2" y="1336.98" type="line"/>
      <point x="1188.2" y="1283.25" type="line"/>
      <point x="1084.88" y="1283.25" type="line"/>
      <point x="1084.88" y="915.429" type="line"/>
      <point x="1326.65" y="915.429" type="line"/>
      <point x="1326.65" y="648.86" type="line"/>
      <point x="1274.99" y="648.86" type="line"/>
      <point x="1274.99" y="692.255"/>
      <point x="1246.06" y="756.314"/>
      <point x="1194.4" y="756.314" type="qcurve" smooth="yes"/>
    </contour>
  </outline>
</glyph>
<glyph name="uni1202" format="2">
  <advance width="657"/>
  <unicode hex="1202"/>
  <outline>
    <contour>
      <point x="502" y="26" type="line"/>
      <point x="533" y="26" type="line" smooth="yes"/>
      <point x="555" y="26"/>
      <point x="586" y="78"/>
      <point x="592" y="129" type="qcurve"/>
      <point x="617" y="129" type="line"/>
      <point x="617" y="0" type="line"/>
      <point x="352" y="0" type="line"/>
      <point x="352" y="26" type="line"/>
      <point x="372" y="26" type="line"/>
      <point x="372" y="334" type="line"/>
      <point x="363" y="325"/>
      <point x="340" y="311"/>
      <point x="315" y="301"/>
      <point x="290" y="296"/>
      <point x="281" y="296" type="qcurve" smooth="yes"/>
      <point x="257" y="296"/>
      <point x="201" y="295"/>
      <point x="148" y="292"/>
      <point x="103" y="284"/>
      <point x="90" y="277" type="qcurve"/>
      <point x="90" y="621" type="line"/>
      <point x="40" y="621" type="line"/>
      <point x="40" y="647" type="line"/>
      <point x="215" y="647" type="line"/>
      <point x="215" y="363" type="line" smooth="yes"/>
      <point x="215" y="349"/>
      <point x="227" y="331"/>
      <point x="246" y="321"/>
      <point x="269" y="317"/>
      <point x="281" y="317" type="qcurve" smooth="yes"/>
      <point x="291" y="317"/>
      <point x="318" y="324"/>
      <point x="345" y="335"/>
      <point x="367" y="349"/>
      <point x="372" y="356" type="qcurve"/>
      <point x="372" y="621" type="line"/>
      <point x="322" y="621" type="line"/>
      <point x="322" y="647" type="line"/>
      <point x="552" y="647" type="line"/>
      <point x="552" y="621" type="line"/>
      <point x="502" y="621" type="line"/>
    </contour>
  </outline>
</glyph>
<glyph name="uni1203" format="2">
  <advance width="1223"/>
  <unicode hex="1203"/>
  <outline>
    <contour>
      <point x="1037.35" y="1283.25" type="line"/>
      <point x="1037.35" y="43.3951" type="line"/>
      <point x="1140.67" y="43.3951" type="line"/>
      <point x="1140.67" y="0" type="line"/>
      <point x="665.391" y="0" type="line"/>
      <point x="665.391" y="43.3951" type="line"/>
      <point x="768.713" y="43.3951" type="line"/>
      <point x="768.713" y="694.321" type="line"/>
      <point x="717.052" y="657.125"/>
      <point x="619.93" y="615.797"/>
      <point x="580.667" y="615.797" type="qcurve" smooth="yes"/>
      <point x="520.741" y="615.797"/>
      <point x="398.821" y="613.73"/>
      <point x="289.3" y="601.332"/>
      <point x="206.643" y="574.468"/>
      <point x="185.979" y="549.671" type="qcurve"/>
      <point x="185.979" y="1283.25" type="line"/>
      <point x="82.6573" y="1283.25" type="line"/>
      <point x="82.6573" y="1336.98" type="line"/>
      <point x="444.283" y="1336.98" type="line"/>
      <point x="444.283" y="750.115" type="line" smooth="yes"/>
      <point x="444.283" y="721.185"/>
      <point x="469.08" y="683.989"/>
      <point x="508.342" y="663.325"/>
      <point x="555.87" y="655.059"/>
      <point x="580.667" y="655.059" type="qcurve" smooth="yes"/>
      <point x="621.996" y="655.059"/>
      <point x="712.919" y="702.587"/>
      <point x="768.713" y="737.716" type="qcurve"/>
      <point x="768.713" y="1283.25" type="line"/>
      <point x="665.391" y="1283.25" type="line"/>
      <point x="665.391" y="1336.98" type="line"/>
      <point x="1140.67" y="1336.98" type="line"/>
      <point x="1140.67" y="1283.25" type="line"/>
    </contour>
  </outline>
</glyph>
<glyph name="uni1204" format="2">
  <advance width="699"/>
  <unicode hex="1204"/>
  <outline>
    <contour>
      <point x="502" y="234" type="line"/>
      <point x="508" y="240"/>
      <point x="528" y="246"/>
      <point x="536" y="246" type="qcurve" smooth="yes"/>
      <point x="553" y="246"/>
      <point x="582" y="239"/>
      <point x="601" y="239" type="qcurve" smooth="yes"/>
      <point x="626" y="239"/>
      <point x="659" y="250" type="qcurve"/>
      <point x="659" y="118" type="line" smooth="yes"/>
      <point x="659" y="79"/>
      <point x="646" y="32"/>
      <point x="615" y="7"/>
      <point x="564" y="0"/>
      <point x="527" y="0" type="qcurve" smooth="yes"/>
      <point x="352" y="0" type="line"/>
      <point x="352" y="21" type="line"/>
      <point x="372" y="21" type="line"/>
      <point x="372" y="336" type="line"/>
      <point x="347" y="318"/>
      <point x="300" y="298"/>
      <point x="281" y="298" type="qcurve" smooth="yes"/>
      <point x="266" y="298"/>
      <point x="209" y="297"/>
      <point x="149" y="291"/>
      <point x="99" y="279"/>
      <point x="90" y="268" type="qcurve"/>
      <point x="90" y="621" type="line"/>
      <point x="40" y="621" type="line"/>
      <point x="40" y="647" type="line"/>
      <point x="215" y="647" type="line"/>
      <point x="215" y="363" type="line" smooth="yes"/>
      <point x="215" y="349"/>
      <point x="227" y="331"/>
      <point x="246" y="321"/>
      <point x="269" y="317"/>
      <point x="281" y="317" type="qcurve" smooth="yes"/>
      <point x="301" y="317"/>
      <point x="345" y="340"/>
      <point x="372" y="357" type="qcurve"/>
      <point x="372" y="621" type="line"/>
      <point x="322" y="621" type="line"/>
      <point x="322" y="647" type="line"/>
      <point x="552" y="647" type="line"/>
      <point x="552" y="621" type="line"/>
      <point x="502" y="621" type="line"/>
    </contour>
    <contour>
      <point x="502" y="218" type="qcurve"/>
      <point x="502" y="37" type="line" smooth="yes"/>
      <point x="502" y="23"/>
      <point x="513" y="8"/>
      <point x="529" y="8" type="qcurve" smooth="yes"/>
      <point x="546" y="8"/>
      <point x="559" y="16"/>
      <point x="562" y="34" type="qcurve"/>
      <point x="562" y="219" type="line"/>
      <point x="553" y="236"/>
      <point x="536" y="236" type="qcurve" smooth="yes"/>
      <point x="518" y="236"/>
    </contour>
  </outline>
</glyph>
<glyph name="uni1205" format="2">
  <advance width="615"/>
  <unicode hex="1205"/>
  <outline>
    <contour>
      <point x="220" y="60" type="line" smooth="yes"/>
      <point x="220" y="45"/>
      <point x="270" y="21"/>
      <point x="309" y="21" type="qcurve" smooth="yes"/>
      <point x="343" y="21"/>
      <point x="395" y="44"/>
      <point x="395" y="56" type="qcurve" smooth="yes"/>
      <point x="395" y="621" type="line"/>
      <point x="345" y="621" type="line"/>
      <point x="345" y="647" type="line"/>
      <point x="575" y="647" type="line"/>
      <point x="575" y="621" type="line"/>
      <point x="525" y="621" type="line"/>
      <point x="525" y="180" type="line" smooth="yes"/>
      <point x="525" y="86"/>
      <point x="417" y="0"/>
      <point x="308" y="0" type="qcurve" smooth="yes"/>
      <point x="274" y="0"/>
      <point x="206" y="-1"/>
      <point x="148" y="-8"/>
      <point x="102" y="-23"/>
      <point x="90" y="-36" type="qcurve"/>
      <point x="90" y="360" type="line"/>
      <point x="110" y="322"/>
      <point x="159" y="322" type="qcurve" smooth="yes"/>
      <point x="167" y="322"/>
      <point x="184" y="332"/>
      <point x="197" y="349"/>
      <point x="206" y="368"/>
      <point x="206" y="377" type="qcurve"/>
      <point x="199" y="372"/>
      <point x="175" y="360"/>
      <point x="158" y="360" type="qcurve" smooth="yes"/>
      <point x="146" y="360"/>
      <point x="122" y="366"/>
      <point x="102" y="385"/>
      <point x="90" y="422"/>
      <point x="90" y="453" type="qcurve" smooth="yes"/>
      <point x="90" y="595" type="line" smooth="yes"/>
      <point x="90" y="602"/>
      <point x="81" y="621"/>
      <point x="66" y="621" type="qcurve" smooth="yes"/>
      <point x="40" y="621" type="line"/>
      <point x="40" y="647" type="line"/>
      <point x="220" y="647" type="line"/>
    </contour>
  </outline>
</glyph>
<glyph name="uni1206" format="2">
  <advance width="1492"/>
  <unicode hex="1206"/>
  <outline>
    <contour>
      <point x="454.615" y="1318.38" type="line"/>
      <point x="454.615" y="123.986" type="line" smooth="yes"/>
      <point x="454.615" y="92.9894"/>
      <point x="557.937" y="43.3951"/>
      <point x="638.527" y="43.3951" type="qcurve" smooth="yes"/>
      <point x="708.786" y="43.3951"/>
      <point x="816.241" y="90.923"/>
      <point x="816.241" y="115.72" type="qcurve" smooth="yes"/>
      <point x="816.241" y="1264.66" type="line"/>
      <point x="748.048" y="1264.66" type="line"/>
      <point x="748.048" y="1318.38" type="line"/>
      <point x="1084.88" y="1318.38" type="line" smooth="yes"/>
      <point x="1190.26" y="1318.38"/>
      <point x="1363.85" y="1330.78"/>
      <point x="1409.31" y="1359.71" type="qcurve"/>
      <point x="1409.31" y="1053.88" type="line" smooth="yes"/>
      <point x="1409.31" y="960.891"/>
      <point x="1374.18" y="851.37"/>
      <point x="1295.65" y="793.51"/>
      <point x="1171.67" y="774.912"/>
      <point x="1084.88" y="772.846" type="qcurve"/>
      <point x="1084.88" y="371.958" type="line" smooth="yes"/>
      <point x="1084.88" y="177.713"/>
      <point x="861.702" y="0"/>
      <point x="636.461" y="0" type="qcurve" smooth="yes"/>
      <point x="564.136" y="0"/>
      <point x="419.486" y="-4.13286"/>
      <point x="295.5" y="-16.5315"/>
      <point x="204.577" y="-45.4615"/>
      <point x="185.979" y="-70.2587" type="qcurve"/>
      <point x="185.979" y="1210.93" type="line" smooth="yes"/>
      <point x="185.979" y="1223.33"/>
      <point x="167.381" y="1264.66"/>
      <point x="136.385" y="1264.66" type="qcurve" smooth="yes"/>
      <point x="82.6573" y="1264.66" type="line"/>
      <point x="82.6573" y="1318.38" type="line"/>
    </contour>
    <contour>
      <point x="1084.88" y="1268.79" type="qcurve"/>
      <point x="1084.88" y="859.636" type="line" smooth="yes"/>
      <point x="1084.88" y="830.706"/>
      <point x="1107.61" y="799.709"/>
      <point x="1140.67" y="799.709" type="qcurve" smooth="yes"/>
      <point x="1175.8" y="799.709"/>
      <point x="1208.86" y="822.44"/>
      <point x="1208.86" y="853.436" type="qcurve" smooth="yes"/>
      <point x="1208.86" y="1262.59" type="line"/>
      <point x="1190.26" y="1295.65"/>
      <point x="1155.14" y="1295.65" type="qcurve" smooth="yes"/>
      <point x="1138.6" y="1295.65"/>
      <point x="1101.41" y="1285.32"/>
    </contour>
  </outline>
</glyph>
<glyph name="uni1208" format="2">
  <advance width="615"/>
  <unicode hex="1208"/>
  <outline>
    <contour>
      <point x="395" y="397" type="qcurve"/>
      <point x="395" y="21" type="line"/>
      <point x="345" y="21" type="line"/>
      <point x="345" y="0" type="line"/>
      <point x="575" y="0" type="line"/>
      <point x="575" y="21" type="line"/>
      <point x="525" y="21" type="line"/>
      <point x="525" y="458" type="line"/>
      <point x="513" y="458"/>
      <point x="493" y="449"/>
      <point x="458" y="437"/>
      <point x="397" y="428"/>
      <point x="345" y="428" type="qcurve" smooth="yes"/>
      <point x="327" y="428"/>
      <point x="288" y="417"/>
      <point x="254" y="396"/>
      <point x="227" y="367"/>
      <point x="220" y="349" type="qcurve"/>
      <point x="220" y="647" type="line"/>
      <point x="40" y="647" type="line"/>
      <point x="40" y="621" type="line"/>
      <point x="66" y="621" type="line" smooth="yes"/>
      <point x="81" y="621"/>
      <point x="90" y="602"/>
      <point x="90" y="595" type="qcurve" smooth="yes"/>
      <point x="90" y="21" type="line"/>
      <point x="40" y="21" type="line"/>
      <point x="40" y="0" type="line"/>
      <point x="270" y="0" type="line"/>
      <point x="270" y="21" type="line"/>
      <point x="220" y="21" type="line"/>
      <point x="220" y="310" type="line"/>
      <point x="223" y="320"/>
      <point x="241" y="353"/>
      <point x="271" y="385"/>
      <point x="315" y="408"/>
      <point x="345" y="408" type="qcurve" smooth="yes"/>
      <point x="367" y="408"/>
    </contour>
  </outline>
</glyph>
<glyph name="uni1209" format="2">
  <advance width="1406"/>
  <unicode hex="1209"/>
  <outline>
    <contour>
      <point x="1322.52" y="380.223" type="line"/>
      <point x="1270.86" y="380.223" type="line"/>
      <point x="1270.86" y="423.619"/>
      <point x="1241.93" y="487.678"/>
      <point x="1190.26" y="487.678" type="qcurve" smooth="yes"/>
      <point x="1084.88" y="487.678" type="line"/>
      <point x="1084.88" y="43.3951" type="line"/>
      <point x="1188.2" y="43.3951" type="line"/>
      <point x="1188.2" y="0" type="line"/>
      <point x="712.919" y="0" type="line"/>
      <point x="712.919" y="43.3951" type="line"/>
      <point x="816.241" y="43.3951" type="line"/>
      <point x="816.241" y="820.374" type="line"/>
      <point x="758.381" y="843.104"/>
      <point x="712.919" y="843.104" type="qcurve" smooth="yes"/>
      <point x="650.926" y="843.104"/>
      <point x="560.003" y="795.576"/>
      <point x="498.01" y="729.45"/>
      <point x="460.814" y="661.258"/>
      <point x="454.615" y="640.594" type="qcurve"/>
      <point x="454.615" y="43.3951" type="line"/>
      <point x="557.937" y="43.3951" type="line"/>
      <point x="557.937" y="0" type="line"/>
      <point x="82.6573" y="0" type="line"/>
      <point x="82.6573" y="43.3951" type="line"/>
      <point x="185.979" y="43.3951" type="line"/>
      <point x="185.979" y="1229.53" type="line" smooth="yes"/>
      <point x="185.979" y="1243.99"/>
      <point x="167.381" y="1283.25"/>
      <point x="136.385" y="1283.25" type="qcurve" smooth="yes"/>
      <point x="82.6573" y="1283.25" type="line"/>
      <point x="82.6573" y="1336.98" type="line"/>
      <point x="454.615" y="1336.98" type="line"/>
      <point x="454.615" y="721.185" type="line"/>
      <point x="469.08" y="758.381"/>
      <point x="524.874" y="818.307"/>
      <point x="595.132" y="861.702"/>
      <point x="675.723" y="884.433"/>
      <point x="712.919" y="884.433" type="qcurve" smooth="yes"/>
      <point x="820.374" y="884.433"/>
      <point x="946.426" y="903.031"/>
      <point x="1018.75" y="927.828"/>
      <point x="1060.08" y="946.426"/>
      <point x="1084.88" y="946.426" type="qcurve"/>
      <point x="1084.88" y="646.793" type="line"/>
      <point x="1322.52" y="646.793" type="line"/>
    </contour>
  </outline>
</glyph>
<glyph name="uni120B" format="2">
  <advance width="1271"/>
  <unicode hex="120B"/>
  <outline>
    <contour>
      <point x="816.241" y="820.374" type="qcurve"/>
      <point x="816.241" y="43.3951" type="line"/>
      <point x="712.919" y="43.3951" type="line"/>
      <point x="712.919" y="0" type="line"/>
      <point x="1188.2" y="0" type="line"/>
      <point x="1188.2" y="43.3951" type="line"/>
      <point x="1084.88" y="43.3951" type="line"/>
      <point x="1084.88" y="946.426" type="line"/>
      <point x="1060.08" y="946.426"/>
      <point x="1018.75" y="927.828"/>
      <point x="946.426" y="903.031"/>
      <point x="820.374" y="884.433"/>
      <point x="712.919" y="884.433" type="qcurve" smooth="yes"/>
      <point x="675.723" y="884.433"/>
      <point x="595.132" y="861.702"/>
      <point x="524.874" y="818.307"/>
      <point x="469.08" y="758.381"/>
      <point x="454.615" y="721.185" type="qcurve"/>
      <point x="454.615" y="1336.98" type="line"/>
      <point x="82.6573" y="1336.98" type="line"/>
      <point x="82.6573" y="1283.25" type="line"/>
      <point x="136.385" y="1283.25" type="line" smooth="yes"/>
      <point x="167.381" y="1283.25"/>
      <point x="185.979" y="1243.99"/>
      <point x="185.979" y="1229.53" type="qcurve" smooth="yes"/>
      <point x="185.979" y="297.566" type="line"/>
      <point x="82.6573" y="297.566" type="line"/>
      <point x="82.6573" y="256.238" type="line"/>
      <point x="557.937" y="256.238" type="line"/>
      <point x="557.937" y="297.566" type="line"/>
      <point x="454.615" y="297.566" type="line"/>
      <point x="454.615" y="640.594" type="line"/>
      <point x="460.814" y="661.258"/>
      <point x="498.01" y="729.45"/>
      <point x="560.003" y="795.576"/>
      <point x="650.926" y="843.104"/>
      <point x="712.919" y="843.104" type="qcurve" smooth="yes"/>
      <point x="758.381" y="843.104"/>
    </contour>
  </outline>
</glyph>
<glyph name="uni120C" format="2">
  <advance width="722"/>
  <unicode hex="120C"/>
  <outline>
    <contour>
      <point x="525" y="234" type="line"/>
      <point x="531" y="240"/>
      <point x="551" y="246"/>
      <point x="559" y="246" type="qcurve" smooth="yes"/>
      <point x="576" y="246"/>
      <point x="603" y="244"/>
      <point x="617" y="244" type="qcurve" smooth="yes"/>
      <point x="632" y="244"/>
      <point x="664" y="248"/>
      <point x="682" y="256" type="qcurve"/>
      <point x="682" y="118" type="line" smooth="yes"/>
      <point x="682" y="79"/>
      <point x="669" y="32"/>
      <point x="638" y="7"/>
      <point x="587" y="0"/>
      <point x="550" y="0" type="qcurve" smooth="yes"/>
      <point x="375" y="0" type="line"/>
      <point x="375" y="21" type="line"/>
      <point x="395" y="21" type="line"/>
      <point x="395" y="397" type="line"/>
      <point x="367" y="408"/>
      <point x="345" y="408" type="qcurve" smooth="yes"/>
      <point x="315" y="408"/>
      <point x="271" y="385"/>
      <point x="241" y="353"/>
      <point x="223" y="320"/>
      <point x="220" y="310" type="qcurve"/>
      <point x="220" y="21" type="line"/>
      <point x="270" y="21" type="line"/>
      <point x="270" y="0" type="line"/>
      <point x="40" y="0" type="line"/>
      <point x="40" y="21" type="line"/>
      <point x="90" y="21" type="line"/>
      <point x="90" y="595" type="line" smooth="yes"/>
      <point x="90" y="602"/>
      <point x="81" y="621"/>
      <point x="66" y="621" type="qcurve" smooth="yes"/>
      <point x="40" y="621" type="line"/>
      <point x="40" y="647" type="line"/>
      <point x="220" y="647" type="line"/>
      <point x="220" y="349" type="line"/>
      <point x="227" y="367"/>
      <point x="254" y="396"/>
      <point x="288" y="417"/>
      <point x="327" y="428"/>
      <point x="345" y="428" type="qcurve" smooth="yes"/>
      <point x="397" y="428"/>
      <point x="458" y="437"/>
      <point x="493" y="449"/>
      <point x="513" y="458"/>
      <point x="525" y="458" type="qcurve"/>
    </contour>
    <contour>
      <point x="525" y="218" type="qcurve"/>
      <point x="525" y="37" type="line" smooth="yes"/>
      <point x="525" y="23"/>
      <point x="536" y="8"/>
      <point x="552" y="8" type="qcurve" smooth="yes"/>
      <point x="569" y="8"/>
      <point x="582" y="16"/>
      <point x="585" y="34" type="qcurve"/>
      <point x="585" y="219" type="line"/>
      <point x="576" y="236"/>
      <point x="559" y="236" type="qcurve" smooth="yes"/>
      <point x="541" y="236"/>
    </contour>
  </outline>
</glyph>
<glyph name="uni120D" format="2">
  <advance width="1329"/>
  <unicode hex="120D"/>
  <outline>
    <contour>
      <point x="454.615" y="483.545" type="line"/>
      <point x="467.014" y="495.944"/>
      <point x="508.342" y="508.342"/>
      <point x="524.874" y="508.342" type="qcurve" smooth="yes"/>
      <point x="547.604" y="508.342"/>
      <point x="613.73" y="506.276"/>
      <point x="648.86" y="506.276" type="qcurve" smooth="yes"/>
      <point x="692.255" y="506.276"/>
      <point x="766.646" y="514.542"/>
      <point x="779.045" y="531.073" type="qcurve"/>
      <point x="779.045" y="243.839" type="line" smooth="yes"/>
      <point x="779.045" y="163.248"/>
      <point x="752.181" y="66.1258"/>
      <point x="688.122" y="14.465"/>
      <point x="582.734" y="0"/>
      <point x="506.276" y="0" type="qcurve" smooth="yes"/>
      <point x="144.65" y="0" type="line"/>
      <point x="144.65" y="43.3951" type="line"/>
      <point x="185.979" y="43.3951" type="line"/>
      <point x="185.979" y="1229.53" type="line" smooth="yes"/>
      <point x="185.979" y="1243.99"/>
      <point x="167.381" y="1283.25"/>
      <point x="136.385" y="1283.25" type="qcurve" smooth="yes"/>
      <point x="82.6573" y="1283.25" type="line"/>
      <point x="82.6573" y="1336.98" type="line"/>
      <point x="454.615" y="1336.98" type="line"/>
      <point x="454.615" y="721.185" type="line"/>
      <point x="469.08" y="758.381"/>
      <point x="543.472" y="818.307"/>
      <point x="636.461" y="861.702"/>
      <point x="733.583" y="884.433"/>
      <point x="770.779" y="884.433" type="qcurve" smooth="yes"/>
      <point x="878.234" y="884.433"/>
      <point x="1004.29" y="903.031"/>
      <point x="1076.61" y="927.828"/>
      <point x="1117.94" y="946.426"/>
      <point x="1142.74" y="946.426" type="qcurve"/>
      <point x="1142.74" y="43.3951" type="line"/>
      <point x="1246.06" y="43.3951" type="line"/>
      <point x="1246.06" y="0" type="line"/>
      <point x="770.779" y="0" type="line"/>
      <point x="770.779" y="43.3951" type="line"/>
      <point x="874.101" y="43.3951" type="line"/>
      <point x="874.101" y="820.374" type="line"/>
      <point x="816.241" y="843.104"/>
      <point x="770.779" y="843.104" type="qcurve" smooth="yes"/>
      <point x="708.786" y="843.104"/>
      <point x="599.265" y="795.576"/>
      <point x="514.542" y="729.45"/>
      <point x="460.814" y="661.258"/>
      <point x="454.615" y="640.594" type="qcurve"/>
    </contour>
    <contour>
      <point x="454.615" y="444.283" type="qcurve"/>
      <point x="454.615" y="76.458" type="line" smooth="yes"/>
      <point x="454.615" y="47.5279"/>
      <point x="477.346" y="16.5315"/>
      <point x="510.409" y="16.5315" type="qcurve" smooth="yes"/>
      <point x="545.538" y="16.5315"/>
      <point x="588.933" y="33.0629"/>
      <point x="595.132" y="70.2587" type="qcurve"/>
      <point x="595.132" y="446.349" type="line"/>
      <point x="584.8" y="464.947"/>
      <point x="541.405" y="481.479"/>
      <point x="524.874" y="481.479" type="qcurve" smooth="yes"/>
      <point x="487.678" y="481.479"/>
    </contour>
  </outline>
</glyph>
<glyph name="uni120E" format="2">
  <advance width="1666"/>
  <unicode hex="120E"/>
  <outline>
    <contour>
      <point x="1157.2" y="613.73" type="line"/>
      <point x="1084.88" y="613.73" type="line"/>
      <point x="1084.88" y="43.3951" type="line"/>
      <point x="1188.2" y="43.3951" type="line"/>
      <point x="1188.2" y="0" type="line"/>
      <point x="712.919" y="0" type="line"/>
      <point x="712.919" y="43.3951" type="line"/>
      <point x="816.241" y="43.3951" type="line"/>
      <point x="816.241" y="820.374" type="line"/>
      <point x="758.381" y="843.104"/>
      <point x="712.919" y="843.104" type="qcurve" smooth="yes"/>
      <point x="650.926" y="843.104"/>
      <point x="560.003" y="795.576"/>
      <point x="498.01" y="729.45"/>
      <point x="460.814" y="661.258"/>
      <point x="454.615" y="640.594" type="qcurve"/>
      <point x="454.615" y="43.3951" type="line"/>
      <point x="557.937" y="43.3951" type="line"/>
      <point x="557.937" y="0" type="line"/>
      <point x="82.6573" y="0" type="line"/>
      <point x="82.6573" y="43.3951" type="line"/>
      <point x="185.979" y="43.3951" type="line"/>
      <point x="185.979" y="1229.53" type="line" smooth="yes"/>
      <point x="185.979" y="1243.99"/>
      <point x="167.381" y="1283.25"/>
      <point x="136.385" y="1283.25" type="qcurve" smooth="yes"/>
      <point x="82.6573" y="1283.25" type="line"/>
      <point x="82.6573" y="1336.98" type="line"/>
      <point x="454.615" y="1336.98" type="line"/>
      <point x="454.615" y="721.185" type="line"/>
      <point x="469.08" y="758.381"/>
      <point x="524.874" y="818.307"/>
      <point x="595.132" y="861.702"/>
      <point x="675.723" y="884.433"/>
      <point x="712.919" y="884.433" type="qcurve" smooth="yes"/>
      <point x="820.374" y="884.433"/>
      <point x="946.426" y="903.031"/>
      <point x="1018.75" y="927.828"/>
      <point x="1060.08" y="946.426"/>
      <point x="1084.88" y="946.426" type="qcurve"/>
      <point x="1084.88" y="646.793" type="line"/>
      <point x="1390.71" y="646.793" type="line" smooth="yes"/>
      <point x="1452.7" y="646.793"/>
      <point x="1549.82" y="652.993"/>
      <point x="1582.89" y="669.524" type="qcurve"/>
      <point x="1582.89" y="458.748" type="line" smooth="yes"/>
      <point x="1582.89" y="392.622"/>
      <point x="1562.22" y="312.031"/>
      <point x="1510.56" y="268.636"/>
      <point x="1425.84" y="256.238"/>
      <point x="1363.85" y="256.238" type="qcurve" smooth="yes"/>
      <point x="1297.72" y="256.238"/>
      <point x="1215.06" y="266.57"/>
      <point x="1171.67" y="299.633"/>
      <point x="1157.2" y="361.626"/>
      <point x="1157.2" y="413.286" type="qcurve" smooth="yes"/>
    </contour>
    <contour>
      <point x="1320.45" y="318.231" type="line"/>
      <point x="1326.65" y="295.5"/>
      <point x="1355.58" y="278.968"/>
      <point x="1374.18" y="278.968" type="qcurve" smooth="yes"/>
      <point x="1390.71" y="278.968"/>
      <point x="1417.57" y="293.433"/>
      <point x="1421.71" y="316.164" type="qcurve"/>
      <point x="1421.71" y="599.265" type="line"/>
      <point x="1409.31" y="628.195"/>
      <point x="1374.18" y="628.195" type="qcurve" smooth="yes"/>
      <point x="1361.78" y="628.195"/>
      <point x="1334.92" y="611.664"/>
      <point x="1320.45" y="599.265" type="qcurve"/>
    </contour>
  </outline>
</glyph>
<glyph name="uni120F" format="2">
  <advance width="691"/>
  <unicode hex="120F"/>
  <outline>
    <contour>
      <point x="276" y="-32" type="line"/>
      <point x="276" y="67" type="line"/>
      <point x="395" y="67" type="line"/>
      <point x="395" y="397" type="line"/>
      <point x="367" y="408"/>
      <point x="345" y="408" type="qcurve" smooth="yes"/>
      <point x="315" y="408"/>
      <point x="271" y="385"/>
      <point x="241" y="353"/>
      <point x="223" y="320"/>
      <point x="220" y="310" type="qcurve"/>
      <point x="220" y="144" type="line"/>
      <point x="270" y="144" type="line"/>
      <point x="270" y="124" type="line"/>
      <point x="40" y="124" type="line"/>
      <point x="40" y="144" type="line"/>
      <point x="90" y="144" type="line"/>
      <point x="90" y="595" type="line" smooth="yes"/>
      <point x="90" y="602"/>
      <point x="81" y="621"/>
      <point x="66" y="621" type="qcurve" smooth="yes"/>
      <point x="40" y="621" type="line"/>
      <point x="40" y="647" type="line"/>
      <point x="220" y="647" type="line"/>
      <point x="220" y="349" type="line"/>
      <point x="227" y="367"/>
      <point x="254" y="396"/>
      <point x="288" y="417"/>
      <point x="327" y="428"/>
      <point x="345" y="428" type="qcurve" smooth="yes"/>
      <point x="397" y="428"/>
      <point x="458" y="437"/>
      <point x="493" y="449"/>
      <point x="513" y="458"/>
      <point x="525" y="458" type="qcurve"/>
      <point x="525" y="67" type="line"/>
      <point x="651" y="67" type="line"/>
      <point x="651" y="-32" type="line"/>
      <point x="606" y="-32" type="line"/>
      <point x="606" y="-23"/>
      <point x="601" y="4"/>
      <point x="585" y="29"/>
      <point x="555" y="46"/>
      <point x="530" y="46" type="qcurve" smooth="yes"/>
      <point x="397" y="46" type="line" smooth="yes"/>
      <point x="373" y="46"/>
      <point x="343" y="29"/>
      <point x="326" y="4"/>
      <point x="321" y="-23"/>
      <point x="321" y="-32" type="qcurve"/>
    </contour>
  </outline>
</glyph>
<glyph name="uni1210" format="2">
  <advance width="1676"/>
  <unicode hex="1210"/>
  <outline>
    <contour>
      <point x="646.793" y="43.3951" type="line"/>
      <point x="704.653" y="43.3951" type="line"/>
      <point x="704.653" y="752.181" type="line"/>
      <point x="568.269" y="752.181"/>
      <point x="462.881" y="683.989"/>
      <point x="454.615" y="632.328" type="qcurve"/>
      <point x="454.615" y="43.3951" type="line"/>
      <point x="512.475" y="43.3951" type="line"/>
      <point x="512.475" y="0" type="line"/>
      <point x="82.6573" y="0" type="line"/>
      <point x="82.6573" y="43.3951" type="line"/>
      <point x="185.979" y="43.3951" type="line"/>
      <point x="185.979" y="394.689" type="line" smooth="yes"/>
      <point x="185.979" y="555.87"/>
      <point x="374.024" y="774.912"/>
      <point x="570.335" y="797.643" type="qcurve"/>
      <point x="704.653" y="797.643" type="line"/>
      <point x="704.653" y="1210.93" type="line" smooth="yes"/>
      <point x="704.653" y="1252.26"/>
      <point x="686.055" y="1283.25"/>
      <point x="652.993" y="1283.25" type="qcurve" smooth="yes"/>
      <point x="599.265" y="1283.25" type="line"/>
      <point x="599.265" y="1336.98" type="line"/>
      <point x="973.289" y="1336.98" type="line"/>
      <point x="973.289" y="795.576" type="line"/>
      <point x="1173.73" y="795.576"/>
      <point x="1436.17" y="812.108"/>
      <point x="1489.9" y="859.636" type="qcurve"/>
      <point x="1489.9" y="43.3951" type="line"/>
      <point x="1593.22" y="43.3951" type="line"/>
      <point x="1593.22" y="0" type="line"/>
      <point x="1163.4" y="0" type="line"/>
      <point x="1163.4" y="43.3951" type="line"/>
      <point x="1221.26" y="43.3951" type="line"/>
      <point x="1221.26" y="655.059" type="line"/>
      <point x="1217.13" y="673.657"/>
      <point x="1194.4" y="710.853"/>
      <point x="1140.67" y="737.716"/>
      <point x="1047.68" y="754.248"/>
      <point x="973.289" y="754.248" type="qcurve"/>
      <point x="973.289" y="43.3951" type="line"/>
      <point x="1031.15" y="43.3951" type="line"/>
      <point x="1031.15" y="0" type="line"/>
      <point x="646.793" y="0" type="line"/>
    </contour>
  </outline>
</glyph>
<glyph name="uni1212" format="2">
  <advance width="1810"/>
  <unicode hex="1212"/>
  <outline>
    <contour>
      <point x="1489.9" y="53.7272" type="line"/>
      <point x="1553.96" y="53.7272" type="line" smooth="yes"/>
      <point x="1599.42" y="53.7272"/>
      <point x="1663.48" y="161.182"/>
      <point x="1675.88" y="266.57" type="qcurve"/>
      <point x="1727.54" y="266.57" type="line"/>
      <point x="1727.54" y="0" type="line"/>
      <point x="1179.93" y="0" type="line"/>
      <point x="1179.93" y="53.7272" type="line"/>
      <point x="1221.26" y="53.7272" type="line"/>
      <point x="1221.26" y="655.059" type="line"/>
      <point x="1217.13" y="673.657"/>
      <point x="1194.4" y="710.853"/>
      <point x="1140.67" y="737.716"/>
      <point x="1047.68" y="754.248"/>
      <point x="973.289" y="754.248" type="qcurve"/>
      <point x="973.289" y="43.3951" type="line"/>
      <point x="1031.15" y="43.3951" type="line"/>
      <point x="1031.15" y="0" type="line"/>
      <point x="646.793" y="0" type="line"/>
      <point x="646.793" y="43.3951" type="line"/>
      <point x="704.653" y="43.3951" type="line"/>
      <point x="704.653" y="752.181" type="line"/>
      <point x="568.269" y="752.181"/>
      <point x="462.881" y="683.989"/>
      <point x="454.615" y="632.328" type="qcurve"/>
      <point x="454.615" y="43.3951" type="line"/>
      <point x="512.475" y="43.3951" type="line"/>
      <point x="512.475" y="0" type="line"/>
      <point x="82.6573" y="0" type="line"/>
      <point x="82.6573" y="43.3951" type="line"/>
      <point x="185.979" y="43.3951" type="line"/>
      <point x="185.979" y="394.689" type="line" smooth="yes"/>
      <point x="185.979" y="555.87"/>
      <point x="374.024" y="774.912"/>
      <point x="570.335" y="797.643" type="qcurve"/>
      <point x="704.653" y="797.643" type="line"/>
      <point x="704.653" y="1210.93" type="line" smooth="yes"/>
      <point x="704.653" y="1252.26"/>
      <point x="686.055" y="1283.25"/>
      <point x="652.993" y="1283.25" type="qcurve" smooth="yes"/>
      <point x="599.265" y="1283.25" type="line"/>
      <point x="599.265" y="1336.98" type="line"/>
      <point x="973.289" y="1336.98" type="line"/>
      <point x="973.289" y="795.576" type="line"/>
      <point x="1173.73" y="795.576"/>
      <point x="1436.17" y="812.108"/>
      <point x="1489.9" y="859.636" type="qcurve"/>
    </contour>
  </outline>
</glyph>
<glyph name="uni1213" format="2">
  <advance width="797"/>
  <unicode hex="1213"/>
  <outline>
    <contour>
      <point x="299" y="117" type="line"/>
      <point x="327" y="117" type="line"/>
      <point x="327" y="364" type="line"/>
      <point x="261" y="364"/>
      <point x="210" y="331"/>
      <point x="206" y="306" type="qcurve"/>
      <point x="206" y="117" type="line"/>
      <point x="234" y="117" type="line"/>
      <point x="234" y="97" type="line"/>
      <point x="40" y="97" type="line"/>
      <point x="40" y="117" type="line"/>
      <point x="76" y="117" type="line"/>
      <point x="76" y="191" type="line" smooth="yes"/>
      <point x="76" y="269"/>
      <point x="167" y="375"/>
      <point x="262" y="386" type="qcurve"/>
      <point x="327" y="386" type="line"/>
      <point x="327" y="586" type="line" smooth="yes"/>
      <point x="327" y="606"/>
      <point x="318" y="621"/>
      <point x="302" y="621" type="qcurve" smooth="yes"/>
      <point x="276" y="621" type="line"/>
      <point x="276" y="647" type="line"/>
      <point x="457" y="647" type="line"/>
      <point x="457" y="385" type="line"/>
      <point x="554" y="385"/>
      <point x="681" y="393"/>
      <point x="707" y="416" type="qcurve"/>
      <point x="707" y="21" type="line"/>
      <point x="757" y="21" type="line"/>
      <point x="757" y="0" type="line"/>
      <point x="549" y="0" type="line"/>
      <point x="549" y="21" type="line"/>
      <point x="577" y="21" type="line"/>
      <point x="577" y="317" type="line"/>
      <point x="575" y="326"/>
      <point x="564" y="344"/>
      <point x="538" y="357"/>
      <point x="493" y="365"/>
      <point x="457" y="365" type="qcurve"/>
      <point x="457" y="117" type="line"/>
      <point x="485" y="117" type="line"/>
      <point x="485" y="97" type="line"/>
      <point x="299" y="97" type="line"/>
    </contour>
  </outline>
</glyph>
<glyph name="uni1214" format="2">
  <advance width="1897"/>
  <unicode hex="1214"/>
  <outline>
    <contour>
      <point x="1179.93" y="43.3951" type="line"/>
      <point x="1221.26" y="43.3951" type="line"/>
      <point x="1221.26" y="655.059" type="line"/>
      <point x="1217.13" y="673.657"/>
      <point x="1194.4" y="710.853"/>
      <point x="1140.67" y="737.716"/>
      <point x="1047.68" y="754.248"/>
      <point x="973.289" y="754.248" type="qcurve"/>
      <point x="973.289" y="43.3951" type="line"/>
      <point x="1031.15" y="43.3951" type="line"/>
      <point x="1031.15" y="0" type="line"/>
      <point x="646.793" y="0" type="line"/>
      <point x="646.793" y="43.3951" type="line"/>
      <point x="704.653" y="43.3951" type="line"/>
      <point x="704.653" y="752.181" type="line"/>
      <point x="568.269" y="752.181"/>
      <point x="462.881" y="683.989"/>
      <point x="454.615" y="632.328" type="qcurve"/>
      <point x="454.615" y="43.3951" type="line"/>
      <point x="512.475" y="43.3951" type="line"/>
      <point x="512.475" y="0" type="line"/>
      <point x="82.6573" y="0" type="line"/>
      <point x="82.6573" y="43.3951" type="line"/>
      <point x="185.979" y="43.3951" type="line"/>
      <point x="185.979" y="394.689" type="line" smooth="yes"/>
      <point x="185.979" y="555.87"/>
      <point x="374.024" y="774.912"/>
      <point x="570.335" y="797.643" type="qcurve"/>
      <point x="704.653" y="797.643" type="line"/>
      <point x="704.653" y="1210.93" type="line" smooth="yes"/>
      <point x="704.653" y="1252.26"/>
      <point x="686.055" y="1283.25"/>
      <point x="652.993" y="1283.25" type="qcurve" smooth="yes"/>
      <point x="599.265" y="1283.25" type="line"/>
      <point x="599.265" y="1336.98" type="line"/>
      <point x="973.289" y="1336.98" type="line"/>
      <point x="973.289" y="795.576" type="line"/>
      <point x="1173.73" y="795.576"/>
      <point x="1436.17" y="812.108"/>
      <point x="1489.9" y="859.636" type="qcurve"/>
      <point x="1489.9" y="409.154" type="line"/>
      <point x="1502.3" y="421.552"/>
      <point x="1543.62" y="436.017"/>
      <point x="1560.16" y="436.017" type="qcurve" smooth="yes"/>
      <point x="1584.95" y="436.017"/>
      <point x="1618.02" y="429.818"/>
      <point x="1646.95" y="423.619"/>
      <point x="1675.88" y="419.486"/>
      <point x="1694.47" y="419.486" type="qcurve" smooth="yes"/>
      <point x="1715.14" y="419.486"/>
      <point x="1785.4" y="429.818"/>
      <point x="1814.33" y="438.084" type="qcurve"/>
      <point x="1814.33" y="212.842" type="line" smooth="yes"/>
      <point x="1814.33" y="134.318"/>
      <point x="1787.46" y="49.5944"/>
      <point x="1723.4" y="8.26573"/>
      <point x="1618.02" y="0"/>
      <point x="1541.56" y="0" type="qcurve" smooth="yes"/>
      <point x="1179.93" y="0" type="line"/>
    </contour>
    <contour>
      <point x="1489.9" y="378.157" type="qcurve"/>
      <point x="1489.9" y="76.458" type="line" smooth="yes"/>
      <point x="1489.9" y="47.5279"/>
      <point x="1512.63" y="16.5315"/>
      <point x="1545.69" y="16.5315" type="qcurve" smooth="yes"/>
      <point x="1580.82" y="16.5315"/>
      <point x="1607.68" y="33.0629"/>
      <point x="1613.88" y="70.2587" type="qcurve"/>
      <point x="1613.88" y="380.223" type="line"/>
      <point x="1595.29" y="415.353"/>
      <point x="1560.16" y="415.353" type="qcurve" smooth="yes"/>
      <point x="1522.96" y="415.353"/>
    </contour>
  </outline>
</glyph>
<glyph name="uni1215" format="2">
  <advance width="811"/>
  <unicode hex="1215"/>
  <outline>
    <contour>
      <point x="313" y="21" type="line"/>
      <point x="341" y="21" type="line"/>
      <point x="341" y="364" type="line"/>
      <point x="275" y="364"/>
      <point x="224" y="331"/>
      <point x="220" y="306" type="qcurve"/>
      <point x="220" y="21" type="line"/>
      <point x="248" y="21" type="line"/>
      <point x="248" y="0" type="line"/>
      <point x="40" y="0" type="line"/>
      <point x="40" y="21" type="line"/>
      <point x="90" y="21" type="line"/>
      <point x="90" y="191" type="line" smooth="yes"/>
      <point x="90" y="269"/>
      <point x="181" y="375"/>
      <point x="276" y="386" type="qcurve"/>
      <point x="341" y="386" type="line"/>
      <point x="341" y="543" type="line"/>
      <point x="216" y="543" type="line"/>
      <point x="216" y="697" type="line"/>
      <point x="241" y="697" type="line"/>
      <point x="241" y="670"/>
      <point x="265" y="623"/>
      <point x="298" y="589"/>
      <point x="332" y="569"/>
      <point x="342" y="569" type="qcurve"/>
      <point x="446" y="621" type="line"/>
      <point x="463" y="621"/>
      <point x="471" y="597"/>
      <point x="471" y="572" type="qcurve" smooth="yes"/>
      <point x="471" y="385" type="line"/>
      <point x="568" y="385"/>
      <point x="695" y="393"/>
      <point x="721" y="416" type="qcurve"/>
      <point x="721" y="21" type="line"/>
      <point x="771" y="21" type="line"/>
      <point x="771" y="0" type="line"/>
      <point x="563" y="0" type="line"/>
      <point x="563" y="21" type="line"/>
      <point x="591" y="21" type="line"/>
      <point x="591" y="317" type="line"/>
      <point x="589" y="326"/>
      <point x="578" y="344"/>
      <point x="552" y="357"/>
      <point x="507" y="365"/>
      <point x="471" y="365" type="qcurve"/>
      <point x="471" y="21" type="line"/>
      <point x="499" y="21" type="line"/>
      <point x="499" y="0" type="line"/>
      <point x="313" y="0" type="line"/>
    </contour>
  </outline>
</glyph>
<glyph name="uni1217" format="2">
  <advance width="1751"/>
  <unicode hex="1217"/>
  <outline>
    <contour>
      <point x="991.887" y="-66.1258" type="line"/>
      <point x="991.887" y="138.451" type="line"/>
      <point x="1192.33" y="138.451" type="line"/>
      <point x="1192.33" y="655.059" type="line"/>
      <point x="1188.2" y="673.657"/>
      <point x="1165.47" y="710.853"/>
      <point x="1111.74" y="737.716"/>
      <point x="1018.75" y="754.248"/>
      <point x="944.359" y="754.248" type="qcurve"/>
      <point x="944.359" y="241.773" type="line"/>
      <point x="1002.22" y="241.773" type="line"/>
      <point x="1002.22" y="200.444" type="line"/>
      <point x="617.863" y="200.444" type="line"/>
      <point x="617.863" y="241.773" type="line"/>
      <point x="675.723" y="241.773" type="line"/>
      <point x="675.723" y="752.181" type="line"/>
      <point x="539.339" y="752.181"/>
      <point x="433.951" y="683.989"/>
      <point x="425.685" y="632.328" type="qcurve"/>
      <point x="425.685" y="241.773" type="line"/>
      <point x="483.545" y="241.773" type="line"/>
      <point x="483.545" y="200.444" type="line"/>
      <point x="82.6573" y="200.444" type="line"/>
      <point x="82.6573" y="241.773" type="line"/>
      <point x="157.049" y="241.773" type="line"/>
      <point x="157.049" y="394.689" type="line" smooth="yes"/>
      <point x="157.049" y="555.87"/>
      <point x="345.094" y="774.912"/>
      <point x="541.405" y="797.643" type="qcurve"/>
      <point x="675.723" y="797.643" type="line"/>
      <point x="675.723" y="1210.93" type="line" smooth="yes"/>
      <point x="675.723" y="1252.26"/>
      <point x="657.125" y="1283.25"/>
      <point x="624.062" y="1283.25" type="qcurve" smooth="yes"/>
      <point x="570.335" y="1283.25" type="line"/>
      <point x="570.335" y="1336.98" type="line"/>
      <point x="944.359" y="1336.98" type="line"/>
      <point x="944.359" y="795.576" type="line"/>
      <point x="1144.8" y="795.576"/>
      <point x="1407.24" y="812.108"/>
      <point x="1460.97" y="859.636" type="qcurve"/>
      <point x="1460.97" y="138.451" type="line"/>
      <point x="1667.61" y="138.451" type="line"/>
      <point x="1667.61" y="-66.1258" type="line"/>
      <point x="1597.35" y="-66.1258" type="line"/>
      <point x="1597.35" y="-47.5279"/>
      <point x="1584.95" y="8.26573"/>
      <point x="1553.96" y="59.9265"/>
      <point x="1500.23" y="95.0559"/>
      <point x="1460.97" y="95.0559" type="qcurve" smooth="yes"/>
      <point x="1190.26" y="95.0559" type="line" smooth="yes"/>
      <point x="1151" y="95.0559"/>
      <point x="1101.41" y="59.9265"/>
      <point x="1072.48" y="8.26573"/>
      <point x="1062.15" y="-47.5279"/>
      <point x="1062.15" y="-66.1258" type="qcurve"/>
    </contour>
  </outline>
</glyph>
<glyph name="uni1218" format="2">
  <advance width="2011"/>
  <unicode hex="1218"/>
  <outline>
    <contour>
      <point x="142.584" y="849.304" type="qcurve" smooth="yes"/>
      <point x="142.584" y="-78.5244" type="line"/>
      <point x="196.311" y="-39.2622"/>
      <point x="371.958" y="2.06643"/>
      <point x="526.94" y="2.06643" type="qcurve" smooth="yes"/>
      <point x="580.667" y="2.06643"/>
      <point x="717.052" y="12.3986"/>
      <point x="836.905" y="68.1923"/>
      <point x="919.562" y="185.979"/>
      <point x="919.562" y="291.367" type="qcurve" smooth="yes"/>
      <point x="919.562" y="789.377" type="line" smooth="yes"/>
      <point x="919.562" y="861.702"/>
      <point x="989.821" y="956.758"/>
      <point x="1035.28" y="956.758" type="qcurve" smooth="yes"/>
      <point x="1062.15" y="956.758"/>
      <point x="1107.61" y="938.16"/>
      <point x="1136.54" y="882.366"/>
      <point x="1153.07" y="779.045"/>
      <point x="1153.07" y="696.388" type="qcurve" smooth="yes"/>
      <point x="1153.07" y="293.433" type="line" smooth="yes"/>
      <point x="1153.07" y="173.58"/>
      <point x="1347.31" y="37.1958"/>
      <point x="1535.36" y="37.1958" type="qcurve" smooth="yes"/>
      <point x="1646.95" y="37.1958"/>
      <point x="1797.8" y="72.3251"/>
      <point x="1888.72" y="138.451"/>
      <point x="1927.98" y="233.507"/>
      <point x="1927.98" y="293.433" type="qcurve" smooth="yes"/>
      <point x="1927.98" y="1113.81" type="line"/>
      <point x="1903.18" y="1091.08"/>
      <point x="1739.94" y="1066.28"/>
      <point x="1516.76" y="1053.88"/>
      <point x="1264.66" y="1051.81"/>
      <point x="1153.07" y="1051.81" type="qcurve" smooth="yes"/>
      <point x="1124.14" y="1051.81"/>
      <point x="1051.81" y="1033.22"/>
      <point x="985.688" y="998.087"/>
      <point x="931.961" y="950.559"/>
      <point x="919.562" y="919.562" type="qcurve"/>
      <point x="874.101" y="987.754"/>
      <point x="754.248" y="1051.81"/>
      <point x="648.86" y="1051.81" type="qcurve" smooth="yes"/>
      <point x="611.664" y="1051.81"/>
      <point x="537.272" y="1031.15"/>
      <point x="471.146" y="993.954"/>
      <point x="423.619" y="940.227"/>
      <point x="413.286" y="907.164" type="qcurve"/>
      <point x="413.286" y="958.824"/>
      <point x="398.821" y="1016.68"/>
      <point x="380.223" y="1045.61"/>
      <point x="363.692" y="1051.81"/>
      <point x="361.626" y="1051.81" type="qcurve"/>
      <point x="82.6573" y="977.422" type="line"/>
      <point x="121.919" y="960.891"/>
      <point x="142.584" y="907.164"/>
    </contour>
    <contour>
      <point x="1423.77" y="900.964" type="line"/>
      <point x="1438.24" y="954.692"/>
      <point x="1485.76" y="993.954"/>
      <point x="1539.49" y="993.954" type="qcurve" smooth="yes"/>
      <point x="1597.35" y="993.954"/>
      <point x="1646.95" y="960.891"/>
      <point x="1659.34" y="903.031" type="qcurve"/>
      <point x="1659.34" y="163.248" type="line"/>
      <point x="1653.15" y="123.986"/>
      <point x="1603.55" y="82.6573"/>
      <point x="1531.23" y="82.6573" type="qcurve" smooth="yes"/>
      <point x="1469.23" y="82.6573"/>
      <point x="1432.04" y="128.119"/>
      <point x="1423.77" y="161.182" type="qcurve"/>
    </contour>
    <contour>
      <point x="531.073" y="45.4615" type="qcurve" smooth="yes"/>
      <point x="471.146" y="45.4615"/>
      <point x="419.486" y="95.0559"/>
      <point x="413.286" y="136.385" type="qcurve"/>
      <point x="413.286" y="820.374" type="line"/>
      <point x="415.353" y="847.237"/>
      <point x="446.349" y="903.031"/>
      <point x="493.877" y="950.559"/>
      <point x="551.737" y="981.555"/>
      <point x="580.667" y="981.555" type="qcurve" smooth="yes"/>
      <point x="613.73" y="981.555"/>
      <point x="642.66" y="965.024"/>
      <point x="648.86" y="944.359" type="qcurve"/>
      <point x="648.86" y="136.385" type="line"/>
      <point x="644.727" y="95.0559"/>
      <point x="566.202" y="45.4615"/>
    </contour>
  </outline>
</glyph>
